<svg xmlns="http://www.w3.org/2000/svg" xmlns:xlink="http://www.w3.org/1999/xlink" width="500" zoomAndPan="magnify" viewBox="0 0 375 374.999991" height="500" preserveAspectRatio="xMidYMid meet" version="1.2"><g id="2bc1989670"><path style=" stroke:none;fill-rule:nonzero;fill:#f0816a;fill-opacity:1;" d="M 359.675781 158.679688 C 353.03125 142.566406 341.011719 128.09375 324.226562 122.320312 C 324.257812 121.875 324.210938 121.398438 324.0625 120.878906 C 321.445312 111.890625 314.472656 104.261719 307.722656 97.800781 C 314.292969 80.972656 306.742188 59.714844 294.65625 47.261719 C 281.402344 33.597656 261.417969 29.066406 243.257812 34.148438 C 234.125 36.710938 225.613281 41.582031 219.441406 48.792969 C 215.679688 48.183594 211.875 47.769531 208 47.632812 C 198.644531 47.300781 189.53125 48.304688 180.652344 50.386719 C 176.40625 39.542969 168.3125 29.046875 160.179688 21.0625 C 153.796875 14.796875 146.222656 9.492188 137.628906 6.796875 C 116.679688 0.21875 92.667969 12.910156 79.480469 28.863281 C 73.078125 36.59375 68.363281 46.433594 69.140625 56.25 C 69.15625 56.785156 69.191406 57.316406 69.238281 57.851562 C 69.296875 58.539062 69.457031 59.214844 69.691406 59.878906 C 69.925781 60.929688 70.226562 61.972656 70.609375 63.011719 C 59.363281 70.785156 49.199219 80.113281 41.300781 91.003906 C 41.070312 91.3125 40.933594 91.621094 40.828125 91.929688 C 31.066406 96.171875 21.121094 101.070312 13.675781 108.78125 C 5.800781 116.917969 -0.03125 128.894531 3.160156 140.296875 C 3.695312 142.226562 5.378906 143.148438 7.0625 143.171875 C 6.585938 150.199219 7.429688 157.34375 9.292969 164.285156 C 6.132812 170.152344 4.15625 176.503906 3.855469 182.957031 C 3.410156 192.585938 5.832031 203.710938 11.058594 211.875 C 15.382812 218.636719 21.644531 223.210938 29.027344 225.496094 C 29.132812 233.003906 29.769531 240.484375 30.890625 247.804688 C 34.453125 271.128906 43.484375 295.832031 59.832031 313.324219 C 68.363281 322.460938 79.585938 329.117188 91.9375 331.335938 C 93.550781 331.625 94.742188 330.679688 95.234375 329.488281 C 95.898438 329.738281 96.570312 329.964844 97.253906 330.175781 C 98.566406 330.582031 99.925781 330.898438 101.277344 331.125 C 102.113281 331.269531 102.949219 331.335938 103.78125 331.375 C 104.542969 331.414062 105.273438 331.269531 106.019531 331.328125 C 107.039062 331.40625 107.75 330.90625 108.171875 330.191406 C 108.203125 330.191406 108.246094 330.203125 108.277344 330.203125 C 108.316406 330.203125 108.359375 330.191406 108.398438 330.191406 C 108.390625 330.777344 108.652344 331.375 109.265625 331.886719 C 118.339844 339.382812 129.460938 344.066406 140.996094 346.292969 C 146.757812 347.402344 152.640625 348.007812 158.503906 347.984375 C 164.132812 347.96875 170.152344 347.691406 175.492188 345.707031 C 175.507812 346.746094 176.074219 347.71875 177.324219 347.886719 C 181.996094 348.527344 186.429688 348.574219 191.0625 347.585938 C 195.535156 346.640625 199.882812 344.792969 203.765625 342.378906 C 207.613281 339.992188 211.121094 337.027344 213.964844 333.488281 C 216.0625 330.875 218.660156 327.375 219.773438 323.917969 C 224.820312 323.617188 229.839844 322.945312 234.710938 321.699219 C 235.238281 321.5625 235.664062 321.351562 236.046875 321.097656 C 251.820312 318.832031 269.105469 314.335938 279.273438 301.1875 C 287.640625 290.351562 289.992188 273.832031 280.433594 263.214844 C 280.449219 263.183594 280.480469 263.160156 280.496094 263.117188 C 282.085938 260.15625 283.503906 257.070312 284.839844 253.933594 C 290.039062 274.625 291.117188 296.894531 288.445312 318.039062 C 286.160156 336.113281 281.105469 353.457031 267.503906 366.277344 C 264.335938 369.265625 268.449219 374.699219 272.183594 372.34375 C 276.171875 369.824219 279.46875 366.640625 282.238281 363.03125 C 323.109375 342.800781 346.796875 294.320312 336.425781 249.683594 C 335.265625 244.6875 333.582031 239.464844 331.257812 234.550781 C 333.378906 235.351562 335.503906 236.136719 337.65625 236.863281 C 340.113281 237.699219 342.566406 238.542969 345.039062 239.359375 C 346.253906 239.753906 347.441406 240.199219 348.738281 240.257812 C 350.675781 240.339844 352.652344 239.195312 353.601562 237.519531 C 354.265625 236.355469 354.402344 235.003906 354.644531 233.707031 C 354.886719 232.425781 355.121094 231.148438 355.367188 229.867188 C 355.84375 227.300781 356.3125 224.742188 356.742188 222.167969 C 356.808594 221.777344 356.847656 221.390625 356.914062 221 C 357.132812 220.191406 357.34375 219.375 357.554688 218.5625 C 358.386719 218.296875 359.132812 217.730469 359.636719 216.765625 C 368.976562 199.089844 367.128906 176.746094 359.675781 158.679688 Z M 106.699219 295.882812 C 105.695312 298.464844 104.964844 300.96875 104.730469 303.738281 C 104.679688 304.328125 104.664062 304.917969 104.65625 305.511719 C 103.832031 305.957031 103.070312 306.515625 102.46875 307.261719 C 102.113281 307.695312 101.757812 308.140625 101.457031 308.628906 C 101.230469 309.007812 101.058594 309.414062 100.890625 309.820312 C 100.621094 310.441406 100.429688 311.097656 100.332031 311.769531 C 91.679688 299.007812 85.214844 284.722656 81.140625 269.78125 C 88.535156 279.453125 97.609375 287.574219 107.679688 294.351562 C 107.265625 294.757812 106.933594 295.273438 106.699219 295.882812 Z M 106.699219 295.882812 "/><path style=" stroke:none;fill-rule:nonzero;fill:#6699cc;fill-opacity:1;" d="M 298.425781 141.535156 C 298.773438 141.472656 299.097656 141.429688 299.429688 141.40625 C 299.429688 141.40625 299.421875 141.40625 299.421875 141.40625 C 299.089844 141.445312 298.757812 141.488281 298.425781 141.535156 Z M 69.230469 57.84375 C 69.289062 58.53125 69.449219 59.203125 69.683594 59.867188 C 69.417969 58.664062 69.230469 57.457031 69.132812 56.25 C 69.15625 56.777344 69.191406 57.308594 69.230469 57.84375 Z M 45.40625 141.089844 C 45.339844 141.113281 45.300781 141.164062 45.226562 141.1875 C 45.128906 141.21875 45.023438 141.261719 44.929688 141.300781 C 45.058594 141.367188 45.1875 141.421875 45.316406 141.503906 C 45.347656 141.367188 45.375 141.230469 45.40625 141.089844 Z M 278.535156 45.246094 C 262.78125 35.84375 243.839844 38.351562 229.242188 48.011719 C 228.238281 48.675781 227.25 49.382812 226.285156 50.109375 C 227.101562 50.304688 227.863281 50.492188 227.832031 50.5 C 245.199219 54.847656 261.378906 63.546875 276.40625 73.320312 C 284.53125 78.609375 292.429688 84.355469 299.816406 90.65625 C 300.328125 82.835938 300.027344 75.367188 297.0625 67.644531 C 293.570312 58.515625 286.976562 50.28125 278.535156 45.246094 Z M 291.691406 218.484375 C 291.714844 218.433594 291.742188 218.378906 291.757812 218.328125 C 291.726562 218.34375 291.683594 218.359375 291.652344 218.378906 C 291.667969 218.410156 291.675781 218.441406 291.691406 218.484375 Z M 357.527344 218.585938 C 357.320312 219.398438 357.109375 220.214844 356.890625 221.023438 C 356.824219 221.414062 356.785156 221.800781 356.71875 222.191406 C 356.28125 224.765625 355.820312 227.324219 355.339844 229.890625 C 355.097656 231.171875 354.863281 232.453125 354.621094 233.730469 C 354.378906 235.027344 354.238281 236.371094 353.574219 237.546875 C 352.628906 239.222656 350.652344 240.363281 348.714844 240.28125 C 347.417969 240.226562 346.226562 239.789062 345.011719 239.382812 C 342.550781 238.574219 340.09375 237.722656 337.632812 236.890625 C 335.484375 236.160156 333.355469 235.375 331.234375 234.574219 C 327.394531 226.441406 321.796875 219.136719 313.914062 215.066406 C 310.316406 213.210938 306.417969 217.785156 309.480469 220.808594 C 340.65625 251.570312 331.378906 304.554688 305.964844 335.820312 C 300.832031 342.136719 294.980469 347.675781 288.453125 352.375 C 292.785156 342.597656 294.835938 331.457031 296.097656 321.429688 C 298.019531 306.199219 297.726562 291.136719 295.546875 276.238281 C 295.492188 275.355469 295.355469 274.746094 295.214844 274.132812 C 294.972656 272.617188 294.714844 271.101562 294.4375 269.589844 C 294.339844 268.84375 294.242188 268.113281 294.074219 267.605469 C 293.035156 262.339844 291.789062 257.09375 290.300781 251.871094 C 289.941406 250.632812 289.066406 250.015625 288.105469 249.886719 C 287.542969 249.804688 286.960938 249.886719 286.425781 250.105469 C 286.742188 249.320312 287.042969 248.535156 287.351562 247.742188 C 288.007812 246.046875 288.65625 244.355469 289.292969 242.65625 C 289.382812 242.535156 289.503906 242.4375 289.578125 242.304688 C 289.84375 241.804688 289.949219 241.292969 289.984375 240.792969 C 291.261719 237.335938 292.535156 233.886719 293.871094 230.507812 C 298.230469 219.496094 302.386719 208.410156 306.882812 197.445312 C 308.054688 194.578125 303.050781 192.441406 301.835938 195.316406 C 299.429688 201.023438 296.925781 206.683594 294.414062 212.34375 C 294.066406 211.300781 293.371094 210.382812 292.355469 209.867188 C 288.054688 207.65625 283.566406 205.703125 279.007812 203.914062 C 284.246094 196.328125 288.015625 187.824219 289.773438 178.679688 C 290.839844 173.101562 291.289062 167.410156 290.890625 161.742188 C 290.5 156.183594 290.105469 148.386719 286.167969 144.101562 C 283.421875 141.125 279.007812 143.65625 278.730469 147.179688 C 278.527344 149.789062 279.628906 152.25 280.269531 154.734375 C 280.902344 157.191406 281.394531 159.683594 281.671875 162.203125 C 282.230469 167.269531 282.214844 172.511719 281.542969 177.570312 C 280.414062 186.089844 277.484375 194.375 272.890625 201.628906 C 269.339844 200.367188 265.777344 199.183594 262.238281 198.058594 C 260.121094 197.386719 258 196.757812 255.871094 196.15625 C 255.609375 195.929688 254.90625 195.816406 254.191406 195.695312 C 253.625 195.542969 253.050781 195.378906 252.484375 195.226562 C 253.097656 195.097656 253.707031 194.949219 254.304688 194.789062 C 255.894531 194.351562 257.449219 193.792969 258.964844 193.0625 C 260.949219 192.109375 261.574219 189.402344 260.777344 187.523438 C 259.960938 185.582031 257.660156 184.269531 255.546875 184.957031 C 252.175781 186.050781 248.855469 187.273438 245.347656 187.878906 C 244.527344 188.027344 243.726562 188.203125 242.90625 188.34375 C 242.804688 188.359375 241.832031 188.496094 241.863281 188.503906 C 241.523438 188.542969 241.191406 188.585938 240.851562 188.609375 C 239.003906 188.78125 237.773438 189.054688 235.980469 188.925781 C 235.8125 188.910156 235.640625 188.902344 235.457031 188.875 C 235.050781 188.828125 234.652344 188.933594 234.296875 189.113281 C 234.457031 188.617188 235.132812 187.929688 234.878906 187.566406 C 237.277344 183.53125 239.539062 179.417969 241.660156 175.230469 C 242.777344 173.027344 243.847656 170.800781 244.894531 168.566406 C 245.863281 168.511719 246.835938 168.023438 247.527344 166.929688 C 252.207031 159.488281 255.871094 151.585938 258.382812 143.15625 C 259.628906 138.960938 260.625 134.675781 261.355469 130.359375 C 262.035156 126.335938 262.753906 122.191406 262.210938 118.109375 C 261.175781 110.367188 254.953125 105.597656 247.460938 104.746094 C 239.835938 103.882812 233.007812 107.605469 226.804688 111.621094 C 228.246094 105.394531 228.546875 98.511719 224.488281 93.347656 C 217.277344 84.171875 205.601562 89.328125 197.511719 94.179688 C 192.179688 97.199219 185.964844 100.941406 180.917969 105.28125 C 178.789062 107.113281 156.007812 126.953125 154.226562 138.371094 C 153.058594 140.710938 154.03125 142.847656 155.683594 143.910156 C 149.148438 143.761719 142.601562 143.804688 136.074219 143.925781 C 128.953125 144.054688 121.832031 144.339844 114.71875 144.757812 C 108.027344 145.15625 100.550781 145.164062 94.117188 147.109375 C 94.101562 147.117188 94.09375 147.125 94.078125 147.125 C 93.777344 147.1875 93.492188 147.300781 93.234375 147.472656 C 92.1875 147.125 91.007812 147.34375 90.472656 148.566406 C 85.5625 159.617188 81.472656 171.207031 78.546875 183.078125 C 77.023438 183.257812 75.542969 184.164062 74.828125 185.976562 C 67.539062 204.503906 66.023438 225.761719 68.121094 245.433594 C 70.261719 265.457031 76.261719 284.902344 86.316406 302.386719 C 86.484375 302.683594 86.671875 302.96875 86.84375 303.269531 C 87.054688 303.882812 87.253906 304.507812 87.464844 305.121094 C 88.195312 306.054688 88.941406 306.96875 89.695312 307.867188 C 94.636719 315.464844 100.445312 322.566406 106.738281 329.042969 C 107.273438 329.59375 107.863281 329.835938 108.441406 329.886719 C 108.421875 329.992188 108.414062 330.097656 108.414062 330.203125 C 108.375 330.203125 108.335938 330.210938 108.292969 330.210938 C 108.261719 330.210938 108.222656 330.203125 108.1875 330.203125 C 107.765625 330.914062 107.054688 331.425781 106.035156 331.335938 C 105.289062 331.269531 104.558594 331.425781 103.796875 331.382812 C 102.957031 331.34375 102.121094 331.269531 101.292969 331.132812 C 99.941406 330.90625 98.582031 330.589844 97.269531 330.183594 C 96.597656 329.972656 95.925781 329.746094 95.25 329.496094 C 95.835938 328.078125 95.414062 326.3125 93.460938 325.894531 C 72.867188 321.382812 58.960938 301.875 50.738281 283.734375 C 42.457031 265.484375 38.398438 245.480469 38.414062 225.472656 C 39.71875 224.003906 39.953125 221.730469 38.519531 220.417969 C 38.585938 218.523438 38.632812 216.621094 38.769531 214.726562 C 39.757812 201.4375 42.945312 188.472656 46.6875 175.71875 C 47.707031 172.242188 43.574219 169.539062 40.851562 170.746094 C 41.671875 167.53125 42.515625 164.324219 43.398438 161.125 C 43.808594 159.644531 44.222656 158.160156 44.644531 156.679688 C 46.644531 158.640625 51.027344 157.699219 51.3125 154 C 52.785156 134.789062 62.214844 115.957031 77.90625 104.40625 C 80.5625 102.449219 78.167969 98.019531 75.257812 99.871094 C 61.6875 108.539062 51.328125 121.851562 46.546875 137.082031 C 46.011719 136.320312 45.089844 135.867188 43.875 136.191406 C 30.007812 139.941406 16.542969 150.847656 9.308594 164.285156 C 7.445312 157.34375 6.601562 150.191406 7.082031 143.171875 C 9.195312 143.203125 11.308594 141.828125 11.195312 139.210938 C 10.75 129.25 14.257812 120.683594 20.835938 113.316406 C 27.324219 106.035156 36.121094 101.234375 44.585938 96.527344 C 45.503906 96.5625 46.425781 96.277344 47.195312 95.546875 C 50.316406 92.558594 53.441406 89.613281 56.609375 86.730469 C 55.070312 89.839844 56.429688 94.359375 60.757812 93.960938 C 68.589844 93.242188 76.320312 91.789062 84.144531 91.0625 C 92.230469 90.308594 100.355469 89.945312 108.472656 90.113281 C 112.992188 90.210938 117.519531 90.445312 122.035156 90.851562 C 113.015625 94.226562 105.984375 102.066406 100.417969 109.671875 C 94.53125 117.71875 90.34375 127.097656 88.375 136.871094 C 87.863281 139.398438 89.101562 142.03125 91.710938 142.742188 C 94.09375 143.398438 97.042969 141.941406 97.585938 139.40625 C 99.488281 130.621094 102.957031 122.335938 107.976562 114.878906 C 113.058594 107.339844 120.121094 101.960938 126.261719 95.417969 C 127.394531 94.210938 127.234375 92.40625 126.328125 91.28125 C 128.222656 91.5 130.117188 91.742188 132.003906 92.027344 C 135.804688 92.59375 139.597656 93.214844 143.363281 93.960938 C 147.445312 94.769531 151.59375 95.929688 155.789062 95.765625 C 159.484375 95.628906 160.625 90.996094 157.628906 88.988281 C 151.066406 84.609375 141.6875 83.433594 134.039062 82.121094 C 125.808594 80.714844 117.480469 79.773438 109.136719 79.359375 C 92.871094 78.566406 74.976562 78.914062 59.421875 84.1875 C 59.40625 84.195312 59.386719 84.203125 59.371094 84.203125 C 70.828125 74.015625 82.875 64.777344 96.75 57.625 C 106.292969 52.710938 116.824219 47.875 127.542969 46.394531 C 136.90625 45.105469 148.894531 48.003906 152.582031 57.828125 C 153.820312 61.132812 159.039062 59.84375 157.976562 56.347656 C 154.84375 46.046875 145.300781 39.964844 134.9375 38.878906 C 122.375 37.558594 109.761719 42.660156 98.460938 47.59375 C 90.601562 51.019531 82.824219 55.097656 75.421875 59.8125 C 73.085938 50.433594 78.472656 40.027344 84.574219 33.144531 C 92.109375 24.636719 102.007812 17.921875 112.929688 14.640625 C 117.308594 13.324219 121.757812 12.519531 126.195312 12.578125 C 129.03125 12.617188 131.859375 13 134.679688 13.839844 C 138.226562 14.902344 141.566406 16.519531 144.675781 18.503906 C 147.769531 20.480469 150.644531 22.820312 153.277344 25.339844 C 157.191406 29.074219 160.691406 33.234375 163.808594 37.65625 C 167.058594 42.265625 169.667969 47.269531 172.640625 52.03125 C 172.648438 52.199219 172.65625 52.378906 172.664062 52.558594 C 168.273438 53.933594 163.929688 55.554688 159.644531 57.449219 C 156.835938 58.695312 158.875 63.652344 161.761719 62.460938 C 167.246094 60.210938 172.972656 58.507812 178.835938 57.292969 C 179.023438 57.269531 179.210938 57.230469 179.386719 57.179688 C 199.941406 53.050781 222.082031 55.238281 241.035156 63.609375 C 260.753906 72.316406 279.605469 84.722656 295.621094 99.113281 C 303.875 106.527344 310.730469 114.675781 316.773438 123.949219 C 317.144531 124.523438 317.617188 124.9375 318.132812 125.234375 C 318.394531 126.027344 318.960938 126.742188 319.980469 127.097656 C 335.542969 132.476562 346.277344 147.335938 351.671875 162.339844 C 352.570312 164.835938 353.308594 167.351562 353.933594 169.878906 C 353.097656 169.3125 352.207031 168.898438 351.316406 168.445312 C 350.441406 168 349.574219 167.804688 348.59375 167.933594 C 347.695312 168.058594 346.769531 168.421875 346.140625 169.109375 C 345.636719 169.652344 345.273438 170.292969 345.039062 170.996094 C 344.6875 172.066406 344.957031 173.328125 345.464844 174.285156 C 345.929688 175.144531 346.351562 175.992188 346.910156 176.792969 C 347.71875 177.953125 348.683594 178.980469 349.621094 180.027344 C 350.285156 180.769531 350.960938 181.515625 351.625 182.261719 C 351.949219 182.625 352.320312 182.941406 352.667969 183.28125 C 353.15625 183.742188 353.664062 184.179688 354.214844 184.558594 C 354.328125 184.640625 354.441406 184.714844 354.5625 184.789062 C 354.96875 185.015625 355.609375 185.320312 356.078125 185.402344 C 356.085938 185.402344 356.085938 185.402344 356.09375 185.402344 C 356.445312 194.859375 355.082031 204.359375 352.230469 213.671875 C 351.195312 217 354.816406 219.453125 357.527344 218.585938 Z M 309.230469 150.039062 C 309.191406 149.84375 309.140625 149.640625 309.09375 149.449219 C 308.898438 148.734375 308.550781 148.046875 308.226562 147.375 C 307.910156 146.71875 307.351562 146.105469 306.914062 145.554688 C 306.664062 145.238281 306.371094 144.945312 306.070312 144.671875 C 305.253906 143.917969 304.363281 143.203125 303.40625 142.636719 C 302.789062 142.273438 302.070312 142.015625 301.414062 141.746094 C 301.226562 141.675781 301.039062 141.601562 300.855469 141.535156 C 300.367188 141.375 299.914062 141.359375 299.460938 141.390625 C 299.105469 141.34375 298.757812 141.277344 298.398438 141.238281 C 298.09375 141.277344 297.777344 141.316406 297.46875 141.359375 C 297.015625 141.464844 296.617188 141.675781 296.277344 141.980469 C 295.703125 142.425781 295.191406 143.066406 295.023438 143.804688 C 294.882812 144.417969 294.882812 145.050781 295.023438 145.667969 C 295.222656 146.550781 295.871094 147.203125 296.570312 147.714844 C 296.585938 147.722656 296.59375 147.738281 296.609375 147.746094 C 296.707031 147.867188 296.804688 148 296.902344 148.121094 C 296.925781 148.144531 296.957031 148.160156 296.980469 148.183594 C 297.777344 148.808594 298.503906 149.535156 299.160156 150.316406 C 299.5 150.816406 299.832031 151.328125 300.175781 151.835938 C 300.789062 152.742188 301.332031 153.835938 302.183594 154.542969 C 302.703125 155.058594 303.316406 155.417969 304.03125 155.617188 C 304.765625 155.820312 305.511719 155.820312 306.25 155.617188 C 307.570312 155.253906 308.898438 154.097656 309.167969 152.703125 C 309.183594 152.621094 309.199219 152.542969 309.214844 152.460938 C 309.410156 151.375 309.457031 151.125 309.230469 150.039062 Z M 333.007812 158.300781 C 333.007812 157.585938 332.828125 156.921875 332.464844 156.308594 C 332.292969 155.984375 332.132812 155.660156 331.960938 155.335938 C 331.792969 155.019531 331.558594 154.726562 331.355469 154.429688 C 331.152344 154.144531 330.957031 153.859375 330.753906 153.578125 C 330.5625 153.300781 330.359375 153.027344 330.15625 152.761719 C 329.824219 152.332031 329.765625 152.265625 329.507812 152.0625 C 329.289062 151.859375 329.109375 151.59375 328.933594 151.359375 C 328.730469 151.109375 328.535156 150.855469 328.332031 150.605469 C 328.015625 150.265625 327.636719 150.023438 327.207031 149.886719 C 326.785156 149.667969 326.339844 149.570312 325.855469 149.585938 C 325.546875 149.625 325.230469 149.667969 324.921875 149.707031 C 324.46875 149.8125 324.070312 150.023438 323.730469 150.332031 C 323.472656 150.484375 323.261719 150.695312 323.101562 150.960938 C 322.792969 151.300781 322.582031 151.699219 322.476562 152.152344 C 322.433594 152.460938 322.394531 152.777344 322.355469 153.082031 C 322.355469 153.714844 322.515625 154.308594 322.832031 154.847656 C 322.976562 155.164062 323.125 155.488281 323.269531 155.804688 C 323.292969 155.917969 323.308594 156.03125 323.351562 156.144531 C 323.496094 156.628906 323.730469 157.050781 323.957031 157.488281 C 324.128906 157.8125 324.296875 158.128906 324.46875 158.453125 C 324.632812 158.753906 324.777344 159.078125 324.964844 159.359375 C 325.171875 159.675781 325.410156 159.984375 325.636719 160.292969 C 325.886719 160.753906 326.226562 161.117188 326.65625 161.402344 C 327.035156 161.75 327.484375 161.984375 328 162.105469 C 328.527344 162.265625 329.054688 162.292969 329.582031 162.179688 C 330.105469 162.152344 330.59375 162 331.046875 161.707031 C 331.890625 161.164062 332.632812 160.355469 332.863281 159.34375 C 332.910156 159.003906 332.957031 158.65625 333.007812 158.300781 Z M 333.007812 158.300781 "/><path style=" stroke:none;fill-rule:nonzero;fill:#f7b9ac;fill-opacity:1;" d="M 43.632812 154 C 43.597656 155.179688 43.996094 156.0625 44.621094 156.679688 C 44.199219 158.160156 43.785156 159.644531 43.371094 161.125 C 42.488281 164.324219 41.648438 167.53125 40.828125 170.746094 C 40.125 171.0625 39.507812 171.636719 39.101562 172.535156 C 33.15625 185.785156 30.101562 200.214844 29.261719 214.796875 C 29.21875 215.488281 29.179688 216.183594 29.148438 216.871094 C 28.539062 216.570312 27.949219 216.253906 27.363281 215.921875 C 23.589844 213.753906 20.351562 210.78125 17.96875 206.847656 C 13.789062 199.929688 11.785156 191.007812 12.070312 182.957031 C 12.679688 165.382812 28.742188 147.058594 44.9375 141.300781 C 45.066406 141.367188 45.195312 141.421875 45.324219 141.503906 C 44.351562 145.570312 43.761719 149.746094 43.632812 154 Z M 237.804688 261.140625 C 237.804688 261.078125 237.820312 261.011719 237.820312 260.949219 C 237.804688 260.949219 237.78125 260.957031 237.746094 260.964844 C 237.765625 261.019531 237.789062 261.085938 237.804688 261.140625 Z M 237.660156 260.980469 C 237.511719 261.019531 237.308594 261.078125 237.179688 261.191406 C 237.292969 261.09375 237.5625 261.125 237.660156 260.980469 Z M 236.550781 113.203125 C 236.085938 113.414062 235.625 113.632812 235.171875 113.867188 C 235.550781 113.875 236.445312 113.429688 236.550781 113.203125 Z M 183.707031 157.570312 C 183.714844 157.570312 183.714844 157.570312 183.707031 157.570312 C 183.84375 157.738281 183.84375 157.738281 183.707031 157.570312 Z M 78.53125 183.085938 C 81.457031 171.222656 85.539062 159.628906 90.457031 148.574219 C 91 147.359375 92.179688 147.132812 93.21875 147.480469 C 93.484375 147.316406 93.761719 147.195312 94.0625 147.132812 C 94.078125 147.125 94.085938 147.117188 94.101562 147.117188 C 100.535156 145.171875 108.011719 145.164062 114.703125 144.765625 C 121.816406 144.347656 128.925781 144.0625 136.054688 143.933594 C 142.585938 143.8125 149.132812 143.769531 155.667969 143.917969 C 157.417969 145.042969 159.9375 144.960938 161.46875 142.613281 C 169.894531 129.714844 179.175781 117.964844 191.160156 108.398438 C 191.5 108.480469 191.847656 108.511719 192.210938 108.464844 C 193.914062 108.261719 194.109375 108.179688 195.65625 108.058594 C 196.804688 107.96875 197.964844 107.921875 199.121094 107.9375 C 200.199219 107.945312 201.277344 108.003906 202.355469 108.101562 C 202.792969 108.140625 203.222656 108.179688 203.660156 108.238281 C 203.683594 108.246094 204.769531 108.425781 204.921875 108.449219 C 207.046875 108.835938 209.144531 109.386719 211.175781 110.109375 C 213.535156 110.941406 215.21875 111.792969 217.617188 112.464844 C 219.058594 112.871094 220.355469 112.269531 221.15625 111.265625 C 220.9375 112.40625 220.6875 113.476562 220.4375 114.398438 C 219.660156 117.308594 223.304688 118.714844 225.003906 116.949219 C 225.839844 118.058594 227.289062 118.628906 228.820312 117.648438 C 229.007812 117.527344 229.203125 117.40625 229.394531 117.28125 C 229.523438 117.769531 229.792969 118.183594 230.15625 118.496094 C 230.472656 119.378906 231.167969 120.078125 232.148438 120.441406 C 231.84375 120.328125 232.140625 120.472656 232.261719 120.539062 C 232.621094 120.757812 233.121094 120.910156 233.542969 121.039062 C 234.019531 121.1875 234.507812 121.308594 234.984375 121.453125 C 235.894531 121.738281 236.792969 122.0625 237.683594 122.402344 C 237.859375 122.464844 238.039062 122.539062 238.21875 122.613281 C 238.070312 122.554688 238.953125 122.917969 239.09375 122.976562 C 239.199219 123.015625 239.296875 123.058594 239.398438 123.097656 C 239.433594 123.113281 239.734375 123.242188 239.828125 123.292969 C 240.746094 123.710938 241.636719 124.167969 242.511719 124.667969 C 243.335938 125.136719 244.140625 125.648438 244.925781 126.191406 C 245.152344 126.351562 245.386719 126.515625 245.613281 126.675781 C 245.621094 126.683594 245.664062 126.710938 245.695312 126.734375 C 245.734375 126.773438 246.480469 127.339844 246.527344 127.382812 C 246.617188 127.453125 246.699219 127.519531 246.730469 127.542969 C 247.46875 128.140625 248.171875 128.78125 248.855469 129.445312 C 249.785156 130.359375 250.597656 131.503906 251.761719 132.109375 C 252.273438 132.378906 252.808594 132.539062 253.351562 132.613281 C 250.976562 143.367188 246.660156 153.902344 241.5625 163.441406 C 240.074219 166.226562 242.511719 168.703125 244.902344 168.558594 C 243.855469 170.792969 242.785156 173.019531 241.667969 175.222656 C 239.546875 179.410156 237.277344 183.523438 234.886719 187.558594 C 234.507812 188.195312 234.117188 188.835938 233.730469 189.476562 C 233.171875 189.953125 232.78125 190.640625 232.699219 191.304688 C 232.546875 192.59375 233.324219 194.125 234.71875 194.390625 C 236.785156 194.789062 238.777344 195.445312 240.859375 195.710938 C 242.699219 195.945312 244.601562 196.148438 246.457031 196.027344 C 248.507812 195.890625 250.515625 195.636719 252.484375 195.226562 C 253.058594 195.378906 253.625 195.542969 254.191406 195.695312 C 254.75 195.847656 255.3125 195.996094 255.871094 196.15625 C 258 196.765625 260.121094 197.394531 262.238281 198.058594 C 265.777344 199.175781 269.339844 200.359375 272.890625 201.628906 C 272.023438 203 271.097656 204.335938 270.109375 205.632812 C 268.027344 208.359375 272.6875 211.980469 274.898438 209.324219 C 276.347656 207.582031 277.71875 205.777344 279.007812 203.921875 C 283.566406 205.710938 288.054688 207.664062 292.355469 209.875 C 293.371094 210.394531 294.066406 211.308594 294.414062 212.351562 C 293.53125 214.34375 292.648438 216.328125 291.765625 218.320312 C 291.734375 218.335938 291.691406 218.351562 291.660156 218.371094 C 291.675781 218.402344 291.683594 218.441406 291.699219 218.472656 C 290.316406 221.59375 288.929688 224.71875 287.5625 227.851562 C 286.5625 230.128906 285.527344 232.402344 284.464844 234.695312 C 284.457031 234.6875 284.449219 234.6875 284.441406 234.679688 C 283.097656 233.886719 281.753906 233.097656 280.414062 232.304688 C 279.0625 231.511719 277.667969 230.839844 276.285156 230.121094 C 275.917969 229.925781 275.570312 229.707031 275.214844 229.503906 C 274.527344 228.378906 273.269531 227.714844 271.984375 227.65625 C 271.972656 227.648438 271.964844 227.648438 271.957031 227.640625 C 270.75 226.929688 268.96875 227.324219 268.296875 228.605469 C 267.914062 229.316406 267.867188 230.023438 268.0625 230.660156 C 265.453125 237.925781 256.113281 239.867188 249.40625 237.8125 C 239.417969 234.75 233.25 224.144531 228.222656 215.769531 C 226.414062 212.757812 221.796875 215.445312 223.515625 218.523438 C 229.394531 229.097656 236.574219 241.675781 249.171875 245.035156 C 258.128906 247.425781 269.835938 244.65625 274.25 236.160156 C 275.125 236.890625 275.992188 237.625 276.90625 238.304688 C 278.164062 239.246094 279.417969 240.175781 280.683594 241.117188 C 280.894531 241.269531 281.097656 241.425781 281.296875 241.578125 C 278.480469 247.742188 275.789062 253.96875 273.835938 260.332031 C 273.503906 261.410156 273.722656 262.375 274.234375 263.132812 C 274.160156 263.449219 274.152344 263.78125 274.203125 264.121094 C 272.890625 263.207031 271.480469 262.414062 270.09375 261.667969 C 266.636719 259.78125 263.03125 258.164062 259.351562 256.738281 C 255.699219 255.320312 251.941406 254.160156 248.117188 253.277344 C 244.746094 252.5 241.054688 251.570312 237.570312 251.835938 C 233.648438 252.136719 229.980469 254.226562 228.851562 258.226562 C 227.90625 261.585938 229.128906 265.011719 230.902344 267.914062 C 230.902344 268.480469 231 269.03125 231.308594 269.441406 C 233.058594 271.800781 235.058594 273.757812 237.246094 275.453125 C 245.101562 282.683594 255.902344 286.859375 266.601562 285.847656 C 267.695312 285.800781 268.78125 285.6875 269.84375 285.453125 C 274.152344 284.480469 277.921875 281.039062 279.332031 276.941406 C 279.558594 284.261719 276.082031 292.09375 271.269531 297.046875 C 268.476562 299.921875 265.242188 302.199219 261.757812 304.078125 C 261.378906 304.246094 260.988281 304.425781 260.609375 304.578125 C 260.578125 304.628906 260.542969 304.675781 260.511719 304.726562 C 252.320312 308.847656 242.867188 310.945312 234.191406 313.316406 C 233.648438 313.226562 233.058594 313.234375 232.417969 313.382812 C 216.253906 317.132812 197.339844 315.609375 180.488281 312.878906 C 178.441406 311.367188 175.921875 311 173.515625 311.632812 C 150.855469 307.316406 128.480469 299.582031 109.070312 287.03125 C 97.511719 279.558594 87.035156 269.894531 79.59375 258.265625 C 79.25 257.742188 78.804688 257.449219 78.335938 257.261719 C 76.101562 244.859375 75.453125 232.183594 76.5625 219.730469 C 77.519531 208.992188 80.09375 198.59375 83.117188 188.269531 C 84.128906 184.789062 81.253906 182.761719 78.53125 183.085938 Z M 146.667969 221.65625 C 146.726562 216.554688 143.429688 213.203125 139.5625 210.402344 C 135.546875 207.484375 131.40625 204.742188 127.175781 202.148438 C 123.039062 199.605469 118.824219 196.949219 114.273438 195.183594 C 105.9375 191.945312 94.472656 194.78125 93.558594 205.105469 C 93.121094 210.070312 95.542969 214.464844 99.003906 218.054688 C 102.800781 224.554688 109.257812 229.714844 116.046875 232.671875 C 123.929688 236.105469 134.507812 238.105469 141.695312 232.054688 C 144.699219 229.542969 146.628906 225.566406 146.667969 221.65625 Z M 197.324219 237.148438 C 188.558594 233.253906 178.042969 233.316406 170.175781 239.292969 C 169.011719 240.175781 168.425781 241.601562 169.214844 242.980469 C 169.894531 244.175781 171.699219 244.761719 172.898438 243.941406 C 179.167969 239.667969 187.417969 240.28125 193.832031 243.554688 C 197.074219 245.207031 200.183594 247.675781 202.054688 250.332031 C 203.109375 251.828125 203.976562 253.457031 204.402344 254.703125 C 205.214844 257.0625 205.304688 259.320312 206.929688 261.335938 C 208.398438 263.160156 211.71875 262.535156 212.730469 260.589844 C 215.234375 255.789062 211.28125 249.277344 208.292969 245.511719 C 205.425781 241.910156 201.542969 239.027344 197.324219 237.148438 Z M 175.09375 155.375 C 176.117188 157.253906 177.234375 159.066406 178.375 160.875 C 179.511719 162.671875 180.601562 164.476562 181.875 166.1875 C 183.246094 168.015625 184.734375 169.773438 186.339844 171.402344 C 188.039062 173.117188 189.953125 174.519531 191.960938 175.855469 C 193.417969 176.828125 195.476562 176.261719 196.480469 174.957031 C 197.527344 173.605469 197.460938 171.578125 196.207031 170.355469 C 194.757812 168.941406 193.371094 167.472656 191.886719 166.082031 C 190.375 164.648438 188.914062 163.175781 187.457031 161.683594 C 186.753906 160.964844 186.070312 160.210938 185.375 159.480469 C 185.042969 159.140625 184.710938 158.792969 184.394531 158.4375 C 184.214844 158.234375 184.054688 158.03125 183.890625 157.820312 C 183.828125 157.738281 183.761719 157.660156 183.699219 157.570312 C 182.433594 155.917969 181.316406 154.152344 180.261719 152.355469 C 179.46875 151.003906 177.523438 150.402344 176.164062 151.277344 C 174.769531 152.175781 174.292969 153.902344 175.09375 155.375 Z M 93.054688 163.894531 C 98.078125 166.722656 103.253906 169.214844 108.496094 171.597656 C 109.542969 172.074219 110.503906 172.257812 111.632812 172.007812 C 111.785156 171.976562 111.914062 171.902344 112.0625 171.847656 C 116.582031 183.808594 125.695312 193.445312 137.636719 198.222656 C 149.339844 202.910156 162.96875 202.335938 173.621094 195.339844 C 177.785156 192.601562 174.082031 186.105469 169.683594 188.609375 C 150.234375 199.6875 125.492188 188.601562 117.019531 168.882812 C 116.550781 167.78125 115.542969 167.386719 114.53125 167.472656 C 114.484375 167.15625 114.402344 166.84375 114.265625 166.519531 C 113.730469 165.261719 112.855469 164.671875 111.632812 164.160156 C 106.324219 161.941406 100.980469 159.855469 95.496094 158.105469 C 93.988281 157.625 92.34375 158.550781 91.761719 159.933594 C 91.160156 161.359375 91.671875 163.117188 93.054688 163.894531 Z M 221.660156 107.648438 C 221.691406 107.226562 221.714844 106.804688 221.730469 106.382812 C 221.578125 106.578125 221.539062 107.394531 221.660156 107.648438 Z M 221.660156 107.648438 "/><path style=" stroke:none;fill-rule:nonzero;fill:#f0816a;fill-opacity:1;" d="M 137.917969 309.890625 C 146.894531 313.398438 156.164062 316.257812 165.601562 318.476562 C 164.878906 319.496094 164.125 320.476562 163.152344 321.246094 C 161.640625 322.445312 159.710938 323.117188 157.808594 323.316406 C 148.710938 324.242188 142.488281 317.089844 137.917969 309.890625 Z M 221.730469 106.382812 C 221.855469 102.578125 221.09375 98.8125 218.183594 96.835938 C 214.433594 94.285156 209.605469 96.398438 206.089844 98.324219 C 202.378906 100.367188 198.8125 102.730469 195.378906 105.191406 C 193.929688 106.230469 192.527344 107.304688 191.152344 108.40625 C 191.492188 108.488281 191.839844 108.519531 192.203125 108.472656 C 193.90625 108.269531 194.101562 108.1875 195.648438 108.066406 C 196.796875 107.980469 197.957031 107.929688 199.113281 107.945312 C 200.191406 107.953125 201.269531 108.011719 202.347656 108.109375 C 202.785156 108.148438 203.214844 108.1875 203.652344 108.246094 C 203.675781 108.253906 204.761719 108.433594 204.914062 108.457031 C 207.035156 108.84375 209.136719 109.394531 211.167969 110.117188 C 213.527344 110.949219 215.210938 111.800781 217.609375 112.472656 C 219.050781 112.878906 220.347656 112.277344 221.148438 111.273438 C 221.367188 110.125 221.554688 108.894531 221.652344 107.636719 C 221.539062 107.394531 221.578125 106.578125 221.730469 106.382812 Z M 253.277344 114.835938 C 251.664062 112.84375 249.023438 111.808594 246.554688 111.429688 C 243.03125 110.894531 239.699219 111.761719 236.558594 113.203125 C 236.445312 113.429688 235.550781 113.875 235.179688 113.867188 C 233.179688 114.894531 231.25 116.109375 229.402344 117.292969 C 229.535156 117.777344 229.800781 118.191406 230.164062 118.507812 C 230.480469 119.386719 231.179688 120.085938 232.15625 120.449219 C 231.851562 120.335938 232.148438 120.480469 232.273438 120.546875 C 232.628906 120.765625 233.128906 120.917969 233.550781 121.046875 C 234.03125 121.195312 234.515625 121.316406 234.992188 121.460938 C 235.902344 121.746094 236.800781 122.070312 237.691406 122.410156 C 237.871094 122.472656 238.046875 122.546875 238.226562 122.621094 C 238.078125 122.5625 238.964844 122.925781 239.101562 122.984375 C 239.207031 123.023438 239.304688 123.066406 239.410156 123.105469 C 239.441406 123.121094 239.742188 123.25 239.835938 123.300781 C 240.753906 123.722656 241.644531 124.175781 242.519531 124.675781 C 243.34375 125.144531 244.148438 125.65625 244.933594 126.199219 C 245.160156 126.359375 245.394531 126.523438 245.621094 126.683594 C 245.628906 126.691406 245.671875 126.71875 245.703125 126.742188 C 245.742188 126.78125 246.488281 127.347656 246.539062 127.390625 C 246.625 127.460938 246.707031 127.527344 246.738281 127.550781 C 247.476562 128.152344 248.183594 128.789062 248.863281 129.453125 C 249.792969 130.371094 250.605469 131.511719 251.769531 132.117188 C 252.28125 132.386719 252.816406 132.546875 253.359375 132.621094 C 254.023438 129.617188 254.542969 126.59375 254.863281 123.574219 C 255.171875 120.59375 255.269531 117.300781 253.277344 114.835938 Z M 139.570312 210.402344 C 135.554688 207.484375 131.414062 204.742188 127.183594 202.148438 C 123.046875 199.605469 118.832031 196.949219 114.28125 195.183594 C 105.945312 191.945312 94.480469 194.78125 93.566406 205.105469 C 93.128906 210.070312 95.550781 214.464844 99.011719 218.054688 C 102.808594 224.554688 109.265625 229.714844 116.054688 232.671875 C 123.9375 236.105469 134.515625 238.105469 141.703125 232.054688 C 144.691406 229.542969 146.621094 225.566406 146.660156 221.65625 C 146.726562 216.554688 143.429688 213.203125 139.570312 210.402344 Z M 270.09375 261.667969 C 271.472656 262.421875 272.882812 263.214844 274.203125 264.121094 C 274.273438 264.617188 274.492188 265.109375 274.921875 265.570312 C 277.878906 268.769531 279.199219 272.769531 279.332031 276.933594 C 277.921875 281.03125 274.160156 284.472656 269.84375 285.445312 C 268.78125 285.679688 267.695312 285.792969 266.605469 285.839844 C 255.902344 286.851562 245.101562 282.675781 237.246094 275.441406 C 235.058594 273.75 233.058594 271.792969 231.308594 269.433594 C 231 269.023438 230.902344 268.460938 230.902344 267.902344 C 229.136719 265.003906 227.90625 261.578125 228.851562 258.21875 C 229.980469 254.226562 233.65625 252.136719 237.570312 251.828125 C 241.046875 251.5625 244.738281 252.492188 248.117188 253.269531 C 251.941406 254.144531 255.691406 255.3125 259.351562 256.730469 C 263.023438 258.164062 266.628906 259.78125 270.09375 261.667969 Z M 237.660156 260.980469 C 237.511719 261.019531 237.308594 261.078125 237.179688 261.191406 C 237.292969 261.09375 237.5625 261.125 237.660156 260.980469 Z M 237.820312 260.949219 C 237.804688 260.949219 237.78125 260.957031 237.746094 260.964844 C 237.765625 261.027344 237.789062 261.085938 237.804688 261.140625 C 237.804688 261.078125 237.8125 261.011719 237.820312 260.949219 Z M 237.820312 260.949219 "/><path style=" stroke:none;fill-rule:nonzero;fill:#f794c6;fill-opacity:1;" d="M 175.484375 345.726562 C 170.144531 347.699219 164.132812 347.976562 158.496094 348 C 152.628906 348.023438 146.75 347.417969 140.988281 346.308594 C 129.453125 344.082031 118.339844 339.402344 109.257812 331.902344 C 108.632812 331.390625 108.382812 330.792969 108.390625 330.210938 C 108.390625 330.105469 108.398438 330 108.414062 329.894531 C 110.570312 330.054688 112.539062 327.203125 110.667969 325.097656 C 106.933594 320.886719 103.480469 316.425781 100.324219 311.761719 C 100.417969 311.097656 100.613281 310.441406 100.882812 309.8125 C 101.050781 309.398438 101.222656 309 101.449219 308.621094 C 101.742188 308.132812 102.105469 307.6875 102.460938 307.25 C 103.0625 306.515625 103.820312 305.957031 104.648438 305.503906 C 104.65625 304.910156 104.671875 304.320312 104.722656 303.730469 C 104.957031 300.960938 105.683594 298.457031 106.691406 295.875 C 106.925781 295.265625 107.257812 294.75 107.671875 294.34375 C 111.746094 297.089844 115.988281 299.617188 120.347656 301.929688 C 120.4375 302.042969 120.527344 302.167969 120.617188 302.28125 C 120.679688 302.238281 120.761719 302.214844 120.835938 302.175781 C 123.914062 303.792969 127.046875 305.316406 130.230469 306.734375 C 130.238281 306.75 130.253906 306.757812 130.265625 306.773438 C 130.3125 307 130.351562 307.21875 130.472656 307.453125 C 135.554688 316.75 141.515625 327.359375 152.769531 329.753906 C 157.582031 330.777344 163.058594 330.402344 167.164062 327.457031 C 169.496094 325.78125 170.972656 323.578125 172.714844 321.34375 C 173.003906 320.96875 173.3125 320.566406 173.644531 320.199219 C 180.070312 321.449219 186.550781 322.410156 193.039062 323.082031 C 193.273438 323.140625 193.5 323.195312 193.734375 323.261719 C 193.808594 323.230469 193.890625 323.203125 193.960938 323.179688 C 197.875 323.5625 201.789062 323.84375 205.699219 324 C 207.09375 324.054688 208.503906 324.09375 209.914062 324.121094 C 209.199219 325.421875 208.4375 326.703125 207.570312 327.910156 C 206.25 329.746094 204.6875 331.496094 202.976562 333.074219 C 202.800781 333.148438 202.613281 333.230469 202.425781 333.285156 C 202.199219 333.398438 201.972656 333.511719 201.722656 333.59375 C 200.410156 334.648438 199.066406 335.667969 197.640625 336.542969 C 194.480469 338.476562 191.117188 340.0625 187.636719 341.335938 C 186.628906 341.699219 185.617188 342.023438 184.605469 342.332031 C 182.410156 342.746094 180.191406 342.9375 177.980469 342.882812 C 176.398438 342.832031 175.460938 344.347656 175.484375 345.726562 Z M 60.734375 93.960938 C 68.566406 93.242188 76.296875 91.789062 84.121094 91.0625 C 92.207031 90.308594 100.332031 89.945312 108.449219 90.113281 C 112.96875 90.210938 117.496094 90.445312 122.007812 90.851562 C 122.4375 90.691406 122.875 90.527344 123.3125 90.390625 C 124.578125 89.984375 125.644531 90.453125 126.320312 91.289062 C 128.214844 91.507812 130.109375 91.75 131.996094 92.035156 C 135.796875 92.601562 139.589844 93.222656 143.355469 93.96875 C 147.4375 94.777344 151.585938 95.9375 155.78125 95.773438 C 159.476562 95.636719 160.617188 91.003906 157.621094 88.996094 C 151.058594 84.617188 141.679688 83.441406 134.03125 82.128906 C 125.800781 80.722656 117.472656 79.78125 109.128906 79.367188 C 92.863281 78.574219 74.964844 78.921875 59.414062 84.195312 C 59.394531 84.203125 59.378906 84.210938 59.363281 84.210938 C 58.433594 85.039062 57.5 85.878906 56.578125 86.714844 C 55.046875 89.832031 56.40625 94.359375 60.734375 93.960938 Z M 309.230469 150.039062 C 309.457031 151.125 309.410156 151.367188 309.222656 152.453125 C 309.207031 152.535156 309.191406 152.613281 309.175781 152.695312 C 308.90625 154.097656 307.578125 155.246094 306.257812 155.609375 C 305.519531 155.8125 304.773438 155.8125 304.039062 155.609375 C 303.332031 155.40625 302.71875 155.050781 302.191406 154.535156 C 301.339844 153.835938 300.796875 152.734375 300.183594 151.828125 C 299.84375 151.328125 299.519531 150.808594 299.167969 150.304688 C 298.511719 149.527344 297.777344 148.800781 296.992188 148.175781 C 296.964844 148.152344 296.933594 148.136719 296.910156 148.113281 C 296.8125 147.992188 296.714844 147.859375 296.617188 147.738281 C 296.601562 147.730469 296.59375 147.714844 296.578125 147.707031 C 295.871094 147.203125 295.222656 146.539062 295.03125 145.65625 C 294.890625 145.042969 294.890625 144.410156 295.03125 143.796875 C 295.199219 143.066406 295.703125 142.425781 296.285156 141.972656 C 296.625 141.664062 297.023438 141.457031 297.476562 141.351562 C 297.785156 141.308594 298.101562 141.269531 298.40625 141.230469 C 298.765625 141.269531 299.113281 141.332031 299.46875 141.382812 C 299.921875 141.351562 300.375 141.367188 300.863281 141.527344 C 301.050781 141.59375 301.234375 141.664062 301.421875 141.738281 C 302.078125 142.007812 302.796875 142.265625 303.414062 142.628906 C 304.371094 143.195312 305.261719 143.910156 306.078125 144.660156 C 306.378906 144.9375 306.664062 145.230469 306.921875 145.542969 C 307.351562 146.085938 307.910156 146.710938 308.234375 147.367188 C 308.558594 148.039062 308.90625 148.71875 309.101562 149.441406 C 309.140625 149.640625 309.191406 149.84375 309.230469 150.039062 Z M 299.429688 141.398438 C 299.429688 141.398438 299.421875 141.398438 299.421875 141.398438 C 299.089844 141.4375 298.765625 141.488281 298.433594 141.527344 C 298.78125 141.464844 299.105469 141.421875 299.429688 141.398438 Z M 331.96875 155.335938 C 331.800781 155.019531 331.566406 154.726562 331.363281 154.429688 C 331.160156 154.144531 330.964844 153.863281 330.761719 153.578125 C 330.570312 153.300781 330.367188 153.027344 330.164062 152.761719 C 329.832031 152.332031 329.773438 152.265625 329.515625 152.0625 C 329.296875 151.859375 329.117188 151.59375 328.941406 151.359375 C 328.738281 151.109375 328.542969 150.855469 328.339844 150.605469 C 328.023438 150.265625 327.644531 150.023438 327.214844 149.886719 C 326.792969 149.667969 326.347656 149.570312 325.863281 149.585938 C 325.554688 149.625 325.238281 149.667969 324.929688 149.707031 C 324.476562 149.8125 324.078125 150.023438 323.738281 150.332031 C 323.480469 150.484375 323.269531 150.695312 323.109375 150.960938 C 322.800781 151.300781 322.589844 151.699219 322.484375 152.152344 C 322.445312 152.460938 322.402344 152.777344 322.363281 153.082031 C 322.363281 153.714844 322.523438 154.308594 322.839844 154.847656 C 322.988281 155.164062 323.132812 155.488281 323.277344 155.804688 C 323.300781 155.917969 323.320312 156.03125 323.359375 156.144531 C 323.503906 156.628906 323.738281 157.050781 323.964844 157.488281 C 324.136719 157.8125 324.308594 158.128906 324.476562 158.453125 C 324.640625 158.753906 324.785156 159.078125 324.972656 159.359375 C 325.183594 159.675781 325.417969 159.984375 325.644531 160.292969 C 325.894531 160.753906 326.234375 161.117188 326.664062 161.402344 C 327.046875 161.75 327.492188 161.984375 328.007812 162.105469 C 328.535156 162.265625 329.0625 162.292969 329.589844 162.179688 C 330.117188 162.152344 330.601562 162 331.054688 161.707031 C 331.898438 161.164062 332.644531 160.355469 332.871094 159.34375 C 332.917969 158.996094 332.96875 158.648438 333.007812 158.289062 C 333.007812 157.578125 332.828125 156.914062 332.464844 156.296875 C 332.300781 155.984375 332.140625 155.660156 331.96875 155.335938 Z M 348.570312 167.945312 C 347.671875 168.066406 346.746094 168.429688 346.113281 169.117188 C 345.613281 169.660156 345.246094 170.300781 345.011719 171.003906 C 344.664062 172.074219 344.933594 173.335938 345.441406 174.292969 C 345.902344 175.152344 346.324219 176 346.882812 176.800781 C 347.695312 177.960938 348.660156 178.988281 349.597656 180.035156 C 350.261719 180.777344 350.933594 181.523438 351.597656 182.269531 C 351.921875 182.632812 352.296875 182.949219 352.644531 183.289062 C 353.128906 183.75 353.640625 184.1875 354.191406 184.570312 C 354.304688 184.648438 354.417969 184.722656 354.539062 184.796875 C 354.945312 185.023438 355.585938 185.328125 356.054688 185.410156 C 356.0625 185.410156 356.0625 185.410156 356.070312 185.410156 C 355.882812 180.210938 355.164062 175.027344 353.898438 169.894531 C 353.066406 169.328125 352.175781 168.914062 351.28125 168.460938 C 350.417969 168.007812 349.550781 167.804688 348.570312 167.945312 Z M 348.570312 167.945312 "/><path style=" stroke:none;fill-rule:nonzero;fill:#020201;fill-opacity:1;" d="M 155.667969 143.925781 C 154.023438 142.863281 153.804688 140.96875 154.210938 138.386719 C 156 126.96875 178.773438 107.128906 180.902344 105.296875 C 185.949219 100.957031 192.164062 97.214844 197.492188 94.195312 C 205.707031 89.546875 217.269531 84.1875 224.46875 93.363281 C 228.527344 98.527344 228.230469 105.410156 226.789062 111.640625 C 232.992188 107.628906 239.820312 103.90625 247.445312 104.765625 C 254.945312 105.613281 261.167969 110.382812 262.195312 118.125 C 262.738281 122.207031 262.019531 126.351562 261.335938 130.378906 C 260.609375 134.695312 259.621094 138.96875 258.363281 143.171875 C 255.851562 151.601562 252.191406 159.503906 247.507812 166.949219 C 246.820312 168.039062 245.855469 168.527344 244.875 168.582031 C 242.488281 168.730469 240.046875 166.25 241.539062 163.464844 C 246.632812 153.925781 250.953125 143.390625 253.324219 132.636719 C 253.988281 129.632812 254.507812 126.613281 254.832031 123.589844 C 255.15625 120.613281 255.253906 117.316406 253.261719 114.855469 C 251.648438 112.863281 249.007812 111.824219 246.539062 111.445312 C 243.011719 110.910156 239.683594 111.777344 236.539062 113.21875 C 236.078125 113.429688 235.617188 113.648438 235.164062 113.882812 C 233.164062 114.910156 231.234375 116.125 229.386719 117.308594 C 229.191406 117.429688 229 117.550781 228.8125 117.671875 C 227.28125 118.652344 225.832031 118.078125 224.996094 116.976562 C 223.296875 118.742188 219.648438 117.332031 220.429688 114.425781 C 220.679688 113.5 220.929688 112.433594 221.148438 111.289062 C 221.367188 110.140625 221.554688 108.910156 221.652344 107.65625 C 221.683594 107.234375 221.707031 106.8125 221.722656 106.390625 C 221.84375 102.585938 221.085938 98.820312 218.175781 96.84375 C 214.425781 94.292969 209.597656 96.40625 206.082031 98.335938 C 202.371094 100.375 198.804688 102.738281 195.371094 105.199219 C 193.921875 106.238281 192.519531 107.316406 191.144531 108.414062 C 179.152344 117.980469 169.871094 129.730469 161.453125 142.628906 C 159.929688 144.96875 157.417969 145.050781 155.667969 143.925781 Z M 359.617188 216.789062 C 359.117188 217.746094 358.363281 218.320312 357.535156 218.585938 C 354.816406 219.453125 351.203125 217 352.222656 213.671875 C 355.074219 204.359375 356.433594 194.851562 356.085938 185.402344 C 355.902344 180.203125 355.179688 175.019531 353.914062 169.886719 C 353.292969 167.359375 352.554688 164.84375 351.65625 162.347656 C 346.261719 147.351562 335.535156 132.484375 319.964844 127.105469 C 318.945312 126.757812 318.386719 126.046875 318.117188 125.242188 C 317.597656 124.945312 317.128906 124.53125 316.757812 123.957031 C 310.714844 114.683594 303.859375 106.539062 295.605469 99.121094 C 279.589844 84.730469 260.738281 72.324219 241.019531 63.617188 C 222.0625 55.253906 199.917969 53.058594 179.371094 57.1875 C 179.195312 57.238281 179.007812 57.277344 178.820312 57.300781 C 172.964844 58.515625 167.230469 60.210938 161.746094 62.46875 C 158.859375 63.652344 156.820312 58.703125 159.628906 57.457031 C 163.90625 55.5625 168.257812 53.941406 172.648438 52.566406 C 172.730469 52.539062 172.808594 52.507812 172.898438 52.484375 C 172.808594 52.339844 172.722656 52.191406 172.625 52.046875 C 169.652344 47.277344 167.042969 42.273438 163.792969 37.671875 C 160.675781 33.25 157.175781 29.089844 153.261719 25.355469 C 150.621094 22.835938 147.746094 20.496094 144.660156 18.519531 C 141.546875 16.535156 138.210938 14.917969 134.664062 13.855469 C 131.84375 13.015625 129.015625 12.625 126.179688 12.59375 C 121.734375 12.535156 117.292969 13.347656 112.910156 14.660156 C 101.992188 17.9375 92.09375 24.652344 84.558594 33.160156 C 78.464844 40.054688 73.070312 50.449219 75.402344 59.828125 C 82.808594 55.117188 90.585938 51.035156 98.441406 47.609375 C 109.742188 42.675781 122.355469 37.574219 134.921875 38.894531 C 145.292969 39.980469 154.835938 46.070312 157.960938 56.363281 C 159.023438 59.859375 153.8125 61.15625 152.566406 57.84375 C 148.894531 48.03125 136.90625 45.121094 127.542969 46.417969 C 116.824219 47.898438 106.292969 52.734375 96.75 57.648438 C 82.875 64.800781 70.828125 74.03125 59.371094 84.226562 C 58.441406 85.054688 57.507812 85.894531 56.585938 86.730469 C 53.417969 89.613281 50.289062 92.550781 47.171875 95.546875 C 46.410156 96.277344 45.480469 96.5625 44.5625 96.527344 C 36.097656 101.234375 27.300781 106.035156 20.8125 113.316406 C 14.242188 120.691406 10.726562 129.25 11.171875 139.210938 C 11.292969 141.828125 9.171875 143.203125 7.054688 143.171875 C 5.371094 143.148438 3.6875 142.226562 3.152344 140.296875 C -0.03125 128.894531 5.792969 116.917969 13.667969 108.78125 C 21.109375 101.078125 31.050781 96.179688 40.820312 91.929688 C 40.925781 91.621094 41.070312 91.3125 41.289062 91.003906 C 49.1875 80.113281 59.347656 70.785156 70.601562 63.011719 C 70.21875 61.964844 69.917969 60.921875 69.683594 59.878906 C 69.417969 58.671875 69.230469 57.464844 69.132812 56.257812 C 68.363281 46.433594 73.078125 36.59375 79.480469 28.855469 C 92.667969 12.902344 116.679688 0.210938 137.628906 6.789062 C 146.222656 9.484375 153.796875 14.789062 160.179688 21.054688 C 168.3125 29.039062 176.40625 39.535156 180.652344 50.378906 C 189.539062 48.296875 198.644531 47.292969 208 47.625 C 211.875 47.761719 215.679688 48.175781 219.441406 48.78125 C 225.613281 41.574219 234.125 36.699219 243.257812 34.140625 C 261.417969 29.054688 281.402344 33.589844 294.65625 47.246094 C 306.742188 59.699219 314.292969 80.957031 307.722656 97.785156 C 314.472656 104.246094 321.445312 111.875 324.0625 120.863281 C 324.210938 121.371094 324.25 121.851562 324.226562 122.304688 C 341.011719 128.078125 353.042969 142.546875 359.675781 158.664062 C 367.128906 176.746094 368.976562 199.089844 359.617188 216.789062 Z M 297.078125 67.660156 C 293.570312 58.515625 286.976562 50.28125 278.542969 45.253906 C 262.789062 35.851562 243.847656 38.359375 229.25 48.023438 C 228.246094 48.6875 227.257812 49.390625 226.292969 50.117188 C 226.8125 50.242188 227.328125 50.378906 227.847656 50.507812 C 245.21875 54.855469 261.394531 63.554688 276.421875 73.328125 C 284.546875 78.617188 292.445312 84.363281 299.832031 90.664062 C 300.335938 82.84375 300.042969 75.382812 297.078125 67.660156 Z M 331.242188 234.574219 C 333.566406 239.496094 335.25 244.71875 336.410156 249.707031 C 346.777344 294.34375 323.089844 342.824219 282.222656 363.054688 C 279.453125 366.667969 276.164062 369.847656 272.167969 372.367188 C 268.433594 374.722656 264.320312 369.289062 267.488281 366.300781 C 281.097656 353.472656 286.144531 336.136719 288.425781 318.0625 C 291.101562 296.917969 290.023438 274.648438 284.824219 253.960938 C 283.484375 257.09375 282.066406 260.171875 280.480469 263.140625 C 280.464844 263.175781 280.441406 263.207031 280.414062 263.238281 C 289.976562 273.855469 287.625 290.375 279.257812 301.210938 C 269.097656 314.355469 251.8125 318.855469 236.03125 321.125 C 235.648438 321.375 235.21875 321.585938 234.695312 321.722656 C 229.832031 322.976562 224.8125 323.640625 219.753906 323.941406 C 218.644531 327.40625 216.046875 330.898438 213.945312 333.511719 C 211.105469 337.042969 207.597656 340.015625 203.746094 342.40625 C 199.867188 344.816406 195.515625 346.664062 191.046875 347.613281 C 186.410156 348.589844 181.972656 348.550781 177.304688 347.910156 C 176.058594 347.742188 175.492188 346.777344 175.476562 345.734375 C 175.453125 344.355469 176.382812 342.84375 177.988281 342.890625 C 180.191406 342.957031 182.417969 342.753906 184.613281 342.339844 C 190.097656 341.3125 195.402344 338.929688 199.828125 335.691406 C 200.914062 334.898438 201.972656 334.023438 202.988281 333.085938 C 204.6875 331.503906 206.25 329.746094 207.578125 327.917969 C 208.445312 326.710938 209.207031 325.441406 209.921875 324.128906 C 208.511719 324.101562 207.109375 324.0625 205.707031 324.007812 C 201.796875 323.84375 197.882812 323.570312 193.96875 323.1875 C 193.664062 323.15625 193.355469 323.125 193.046875 323.089844 C 186.558594 322.425781 180.078125 321.457031 173.652344 320.207031 C 173.3125 320.582031 173.011719 320.976562 172.722656 321.351562 C 170.980469 323.585938 169.503906 325.789062 167.171875 327.464844 C 163.066406 330.410156 157.589844 330.785156 152.777344 329.765625 C 141.523438 327.367188 135.5625 316.757812 130.484375 307.460938 C 130.351562 307.226562 130.320312 307.007812 130.273438 306.78125 C 130.273438 306.773438 130.273438 306.765625 130.265625 306.757812 C 130.253906 306.75 130.246094 306.75 130.230469 306.742188 C 127.046875 305.324219 123.914062 303.800781 120.835938 302.183594 C 120.671875 302.101562 120.511719 302.019531 120.355469 301.929688 C 116 299.625 111.761719 297.089844 107.679688 294.34375 C 97.609375 287.566406 88.535156 279.433594 81.140625 269.773438 C 85.214844 284.714844 91.679688 299 100.332031 311.761719 C 103.488281 316.425781 106.933594 320.886719 110.675781 325.097656 C 112.546875 327.203125 110.578125 330.046875 108.421875 329.894531 C 107.847656 329.851562 107.257812 329.601562 106.722656 329.050781 C 100.429688 322.582031 94.628906 315.480469 89.679688 307.875 C 88.691406 306.359375 87.734375 304.824219 86.828125 303.269531 C 86.65625 302.96875 86.46875 302.683594 86.300781 302.386719 C 76.246094 284.894531 70.242188 265.457031 68.105469 245.433594 C 66.007812 225.769531 67.523438 204.503906 74.8125 185.976562 C 75.527344 184.171875 77 183.257812 78.53125 183.078125 C 81.253906 182.761719 84.136719 184.789062 83.117188 188.261719 C 80.09375 198.585938 77.519531 208.984375 76.5625 219.722656 C 75.453125 232.183594 76.101562 244.847656 78.335938 257.253906 C 78.804688 257.441406 79.253906 257.726562 79.59375 258.257812 C 87.035156 269.886719 97.511719 279.550781 109.070312 287.023438 C 128.488281 299.574219 150.855469 307.308594 173.515625 311.625 C 175.921875 311 178.441406 311.355469 180.488281 312.871094 C 197.339844 315.601562 216.265625 317.125 232.417969 313.375 C 233.058594 313.226562 233.648438 313.21875 234.191406 313.308594 C 242.867188 310.9375 252.320312 308.839844 260.511719 304.71875 C 260.933594 304.507812 261.347656 304.289062 261.757812 304.0625 C 265.242188 302.183594 268.476562 299.914062 271.269531 297.03125 C 276.089844 292.078125 279.558594 284.246094 279.332031 276.925781 C 279.199219 272.761719 277.878906 268.761719 274.921875 265.5625 C 274.492188 265.101562 274.273438 264.601562 274.203125 264.113281 C 274.152344 263.78125 274.167969 263.449219 274.234375 263.125 C 273.722656 262.355469 273.503906 261.394531 273.835938 260.324219 C 275.789062 253.953125 278.480469 247.730469 281.296875 241.570312 C 281.097656 241.414062 280.886719 241.261719 280.683594 241.109375 C 279.425781 240.167969 278.171875 239.238281 276.90625 238.296875 C 275.992188 237.609375 275.125 236.871094 274.25 236.152344 C 269.835938 244.648438 258.121094 247.417969 249.171875 245.027344 C 236.574219 241.675781 229.394531 229.089844 223.515625 218.515625 C 221.804688 215.4375 226.414062 212.75 228.222656 215.761719 C 233.25 224.136719 239.417969 234.742188 249.40625 237.804688 C 256.113281 239.859375 265.453125 237.917969 268.0625 230.652344 C 267.867188 230.015625 267.914062 229.308594 268.296875 228.597656 C 268.96875 227.324219 270.75 226.921875 271.957031 227.632812 C 271.964844 227.640625 271.972656 227.640625 271.984375 227.648438 C 273.269531 227.714844 274.527344 228.378906 275.214844 229.496094 C 275.570312 229.699219 275.917969 229.917969 276.285156 230.109375 C 277.667969 230.832031 279.070312 231.503906 280.414062 232.296875 C 281.761719 233.089844 283.105469 233.875 284.441406 234.671875 C 284.449219 234.679688 284.457031 234.679688 284.464844 234.6875 C 285.519531 232.402344 286.5625 230.128906 287.5625 227.84375 C 288.929688 224.710938 290.316406 221.59375 291.699219 218.464844 C 291.726562 218.417969 291.75 218.359375 291.765625 218.3125 C 292.648438 216.320312 293.53125 214.335938 294.414062 212.34375 C 296.925781 206.683594 299.429688 201.023438 301.835938 195.316406 C 303.050781 192.433594 308.054688 194.578125 306.882812 197.445312 C 302.386719 208.402344 298.230469 219.496094 293.871094 230.507812 C 292.535156 233.886719 291.261719 237.335938 289.984375 240.792969 C 289.949219 241.292969 289.84375 241.796875 289.578125 242.308594 C 289.503906 242.4375 289.382812 242.535156 289.292969 242.65625 C 288.664062 244.355469 288.015625 246.046875 287.351562 247.742188 C 287.042969 248.527344 286.742188 249.320312 286.425781 250.105469 C 286.953125 249.886719 287.542969 249.8125 288.105469 249.886719 C 289.066406 250.023438 289.949219 250.632812 290.300781 251.871094 C 291.789062 257.09375 293.035156 262.339844 294.074219 267.605469 C 294.203125 268.261719 294.316406 268.925781 294.4375 269.589844 C 294.722656 271.101562 294.980469 272.617188 295.214844 274.132812 C 295.328125 274.835938 295.449219 275.53125 295.546875 276.238281 C 297.734375 291.136719 298.019531 306.207031 296.097656 321.429688 C 294.835938 331.457031 292.785156 342.597656 288.453125 352.375 C 294.980469 347.675781 300.839844 342.136719 305.964844 335.820312 C 331.378906 304.554688 340.65625 251.570312 309.480469 220.808594 C 306.417969 217.785156 310.324219 213.203125 313.914062 215.066406 C 321.8125 219.136719 327.402344 226.441406 331.242188 234.574219 Z M 165.601562 318.476562 C 156.164062 316.257812 146.894531 313.390625 137.917969 309.890625 C 142.488281 317.097656 148.703125 324.25 157.808594 323.316406 C 159.71875 323.125 161.640625 322.453125 163.152344 321.246094 C 164.125 320.476562 164.878906 319.496094 165.601562 318.476562 Z M 274.898438 209.332031 C 276.347656 207.589844 277.71875 205.785156 279.007812 203.929688 C 284.246094 196.34375 288.015625 187.839844 289.773438 178.699219 C 290.839844 173.117188 291.289062 167.425781 290.890625 161.757812 C 290.5 156.203125 290.105469 148.402344 286.167969 144.121094 C 283.421875 141.140625 279.007812 143.675781 278.730469 147.195312 C 278.527344 149.804688 279.628906 152.265625 280.269531 154.753906 C 280.902344 157.207031 281.394531 159.699219 281.671875 162.21875 C 282.230469 167.289062 282.214844 172.527344 281.542969 177.589844 C 280.414062 186.105469 277.484375 194.390625 272.890625 201.648438 C 272.023438 203.015625 271.101562 204.351562 270.109375 205.648438 C 268.019531 208.367188 272.679688 211.988281 274.898438 209.332031 Z M 93.054688 163.894531 C 98.078125 166.722656 103.253906 169.214844 108.496094 171.597656 C 109.542969 172.074219 110.503906 172.257812 111.632812 172.007812 C 111.785156 171.976562 111.914062 171.902344 112.0625 171.847656 C 116.582031 183.808594 125.695312 193.445312 137.636719 198.222656 C 149.339844 202.910156 162.96875 202.335938 173.621094 195.339844 C 177.785156 192.601562 174.082031 186.105469 169.683594 188.609375 C 150.234375 199.6875 125.492188 188.601562 117.019531 168.882812 C 116.550781 167.78125 115.542969 167.386719 114.53125 167.472656 C 114.484375 167.15625 114.402344 166.84375 114.265625 166.519531 C 113.730469 165.261719 112.855469 164.671875 111.632812 164.160156 C 106.324219 161.941406 100.980469 159.855469 95.496094 158.105469 C 93.988281 157.625 92.34375 158.550781 91.761719 159.933594 C 91.160156 161.359375 91.671875 163.117188 93.054688 163.894531 Z M 170.175781 239.292969 C 169.011719 240.175781 168.425781 241.601562 169.214844 242.980469 C 169.894531 244.175781 171.699219 244.761719 172.898438 243.941406 C 179.167969 239.667969 187.417969 240.28125 193.832031 243.554688 C 197.074219 245.207031 200.183594 247.675781 202.054688 250.332031 C 203.109375 251.828125 203.976562 253.457031 204.402344 254.703125 C 205.214844 257.0625 205.304688 259.320312 206.929688 261.335938 C 208.398438 263.160156 211.71875 262.535156 212.730469 260.589844 C 215.234375 255.789062 211.28125 249.277344 208.292969 245.511719 C 205.417969 241.894531 201.535156 239.011719 197.316406 237.140625 C 188.558594 233.253906 178.042969 233.316406 170.175781 239.292969 Z M 93.445312 325.886719 C 72.851562 321.375 58.941406 301.867188 50.71875 283.726562 C 42.441406 265.476562 38.382812 245.472656 38.398438 225.464844 C 39.703125 223.996094 39.9375 221.722656 38.503906 220.410156 C 38.570312 218.515625 38.617188 216.613281 38.753906 214.71875 C 39.742188 201.429688 42.925781 188.464844 46.667969 175.710938 C 47.691406 172.234375 43.558594 169.53125 40.835938 170.738281 C 40.132812 171.054688 39.515625 171.628906 39.113281 172.527344 C 33.164062 185.773438 30.113281 200.207031 29.269531 214.789062 C 29.226562 215.476562 29.1875 216.175781 29.15625 216.863281 C 28.546875 216.5625 27.957031 216.246094 27.375 215.914062 C 23.597656 213.746094 20.359375 210.773438 17.976562 206.835938 C 13.796875 199.921875 11.796875 191 12.078125 182.949219 C 12.6875 165.375 28.75 147.050781 44.945312 141.292969 C 45.042969 141.261719 45.148438 141.21875 45.242188 141.179688 C 45.316406 141.15625 45.347656 141.105469 45.421875 141.082031 C 45.390625 141.21875 45.367188 141.359375 45.332031 141.496094 C 44.367188 145.570312 43.777344 149.738281 43.648438 153.992188 C 43.617188 155.171875 44.011719 156.054688 44.636719 156.671875 C 46.636719 158.632812 51.019531 157.691406 51.304688 153.992188 C 52.777344 134.78125 62.207031 115.945312 77.898438 104.398438 C 80.554688 102.441406 78.160156 98.011719 75.25 99.863281 C 61.679688 108.527344 51.320312 121.84375 46.539062 137.074219 C 46.003906 136.3125 45.082031 135.859375 43.867188 136.183594 C 29.996094 139.933594 16.535156 150.839844 9.300781 164.273438 C 6.140625 170.144531 4.164062 176.496094 3.863281 182.949219 C 3.417969 192.578125 5.839844 203.703125 11.066406 211.867188 C 15.390625 218.628906 21.652344 223.203125 29.035156 225.488281 C 29.140625 232.992188 29.777344 240.476562 30.898438 247.796875 C 34.460938 271.117188 43.496094 295.824219 59.84375 313.316406 C 68.371094 322.453125 79.59375 329.109375 91.945312 331.328125 C 93.558594 331.617188 94.75 330.671875 95.242188 329.480469 C 95.820312 328.078125 95.398438 326.3125 93.445312 325.886719 Z M 123.320312 90.390625 C 122.882812 90.527344 122.445312 90.691406 122.015625 90.851562 C 113 94.226562 105.96875 102.066406 100.402344 109.671875 C 94.515625 117.71875 90.324219 127.097656 88.359375 136.871094 C 87.847656 139.398438 89.085938 142.03125 91.695312 142.742188 C 94.078125 143.398438 97.027344 141.941406 97.566406 139.40625 C 99.472656 130.621094 102.9375 122.335938 107.960938 114.878906 C 113.042969 107.339844 120.105469 101.960938 126.246094 95.417969 C 127.378906 94.210938 127.21875 92.40625 126.3125 91.28125 C 125.65625 90.453125 124.585938 89.984375 123.320312 90.390625 Z M 232.691406 191.320312 C 232.539062 192.609375 233.316406 194.140625 234.710938 194.40625 C 236.777344 194.804688 238.769531 195.460938 240.851562 195.726562 C 242.6875 195.960938 244.59375 196.164062 246.449219 196.042969 C 248.496094 195.90625 250.507812 195.65625 252.476562 195.242188 C 253.089844 195.113281 253.699219 194.964844 254.296875 194.804688 C 255.886719 194.367188 257.441406 193.808594 258.957031 193.078125 C 260.941406 192.125 261.566406 189.417969 260.769531 187.539062 C 259.953125 185.597656 257.652344 184.285156 255.539062 184.972656 C 252.167969 186.066406 248.847656 187.289062 245.339844 187.898438 C 244.519531 188.042969 243.71875 188.222656 242.898438 188.359375 C 242.792969 188.375 241.824219 188.511719 241.855469 188.519531 C 241.515625 188.5625 241.183594 188.601562 240.84375 188.625 C 238.996094 188.796875 237.765625 189.070312 235.972656 188.941406 C 235.804688 188.925781 235.632812 188.917969 235.445312 188.894531 C 235.042969 188.84375 234.644531 188.949219 234.289062 189.128906 C 234.085938 189.234375 233.890625 189.347656 233.714844 189.5 C 233.164062 189.96875 232.773438 190.65625 232.691406 191.320312 Z M 175.09375 155.375 C 174.292969 153.902344 174.769531 152.175781 176.171875 151.277344 C 177.53125 150.394531 179.476562 151.003906 180.269531 152.355469 C 181.324219 154.152344 182.441406 155.917969 183.707031 157.570312 C 183.769531 157.652344 183.835938 157.730469 183.902344 157.820312 C 184.070312 158.03125 184.234375 158.234375 184.402344 158.4375 C 184.71875 158.792969 185.050781 159.132812 185.382812 159.480469 C 186.078125 160.210938 186.761719 160.953125 187.464844 161.683594 C 188.921875 163.175781 190.375 164.65625 191.894531 166.082031 C 193.371094 167.472656 194.765625 168.941406 196.214844 170.355469 C 197.46875 171.585938 197.535156 173.605469 196.488281 174.957031 C 195.484375 176.261719 193.417969 176.828125 191.96875 175.855469 C 189.960938 174.519531 188.046875 173.117188 186.347656 171.402344 C 184.734375 169.78125 183.246094 168.015625 181.882812 166.1875 C 180.613281 164.476562 179.519531 162.671875 178.382812 160.875 C 177.234375 159.066406 176.117188 157.253906 175.09375 155.375 Z M 183.707031 157.570312 C 183.714844 157.570312 183.714844 157.570312 183.707031 157.570312 C 183.84375 157.738281 183.84375 157.738281 183.707031 157.570312 Z M 183.707031 157.570312 "/></g></svg>