<svg xmlns="http://www.w3.org/2000/svg" xmlns:xlink="http://www.w3.org/1999/xlink" width="500" zoomAndPan="magnify" viewBox="0 0 375 374.999991" height="500" preserveAspectRatio="xMidYMid meet" version="1.2"><defs><clipPath id="9606ba4413"><path d="M 5 5 L 373 5 L 373 360.75 L 5 360.75 Z M 5 5 "/></clipPath><clipPath id="ca3e7f5b9e"><path d="M 35 84 L 368 84 L 368 360.75 L 35 360.75 Z M 35 84 "/></clipPath></defs><g id="0521f73048"><g clip-rule="nonzero" clip-path="url(#9606ba4413)"><path style=" stroke:none;fill-rule:nonzero;fill:#f0816a;fill-opacity:1;" d="M 367.320312 109.371094 C 367.132812 108.382812 366.769531 107.460938 366.207031 106.636719 C 365.914062 105.960938 365.65625 105.285156 365.339844 104.625 C 358.480469 90.023438 345.183594 78.304688 329.375 75.175781 C 328.210938 55.148438 321.125 35.539062 306.523438 21.21875 C 291.773438 6.734375 269.617188 0.0078125 250.628906 10.320312 C 241.28125 15.398438 234.074219 24.089844 232.054688 34.652344 C 231.675781 36.617188 233.125 37.898438 234.625 38.046875 C 234.394531 38.582031 234.167969 39.101562 233.957031 39.644531 C 225.972656 39.792969 217.988281 40.886719 210.210938 43.109375 C 210.074219 43.023438 209.949219 42.929688 209.800781 42.859375 C 189.714844 33.136719 165.625 31.21875 143.667969 34.644531 C 143.148438 26.839844 138.167969 19.996094 131.746094 15.292969 C 121.863281 8.0625 108.738281 6.398438 97.257812 10.445312 C 74.449219 18.484375 55.824219 41.515625 49.585938 64.488281 C 46.542969 75.6875 45.46875 89.945312 51.792969 100.261719 C 43.257812 105.332031 35.777344 111.085938 29.125 118.574219 C 22.382812 126.167969 16.621094 134.632812 12.210938 143.789062 C 5.046875 158.675781 0.175781 179.933594 15.664062 191.371094 C 17.753906 192.910156 20.1875 191.566406 21.234375 189.59375 C 22.027344 190.058594 22.914062 190.410156 24 190.472656 C 28.125 190.71875 32.007812 190.648438 35.914062 190.875 C 35.816406 191.199219 35.730469 191.527344 35.636719 191.851562 C 34.238281 191.214844 32.453125 191.566406 32.0625 193.507812 C 26.65625 220.105469 28.039062 247.871094 36.007812 273.832031 C 43.21875 297.339844 55.007812 322.167969 77.875 333.792969 C 87.367188 338.617188 97.550781 340.875 107.640625 344 C 109.078125 344.449219 110.242188 344.121094 111.074219 343.402344 C 114.554688 345.375 119.734375 341.816406 116.921875 337.988281 C 105.722656 322.710938 96.222656 306.519531 88.464844 289.574219 C 88.640625 289.738281 88.796875 289.921875 88.976562 290.085938 C 101.761719 301.921875 119.796875 305.214844 136.824219 306.464844 C 132.589844 313.035156 133.34375 321.570312 137.042969 328.511719 C 138.960938 332.109375 141.640625 334.988281 144.761719 337.289062 C 143.449219 338.351562 142.496094 339.742188 141.851562 341.328125 C 141.492188 342.226562 141.328125 343.183594 141.265625 344.144531 C 141.242188 344.511719 141.25 344.882812 141.289062 345.25 C 141.335938 345.652344 141.351562 346.078125 141.46875 346.460938 C 141.59375 346.855469 141.773438 347.230469 141.949219 347.609375 C 142.207031 348.183594 143.023438 348.765625 143.621094 348.898438 C 144.25 349.039062 144.855469 349.007812 145.453125 348.757812 C 145.773438 348.621094 146.074219 348.410156 146.332031 348.160156 C 146.480469 348.511719 146.605469 348.84375 146.628906 349.125 C 146.386719 350.015625 146.269531 350.964844 146.355469 352.035156 C 146.671875 356.105469 149.640625 358.933594 153.546875 359.65625 C 158.09375 360.5 163.023438 360.316406 167.636719 360.476562 C 172.78125 360.648438 177.9375 360.734375 183.082031 360.726562 C 202.988281 360.703125 222.796875 359.195312 242.511719 356.507812 C 243.480469 356.371094 244.289062 355.863281 244.941406 355.167969 C 245.429688 354.925781 245.851562 354.605469 246.246094 354.234375 C 247.285156 355.113281 248.730469 355.390625 250.042969 354.839844 C 251.769531 354.109375 252.578125 352.308594 252.171875 350.492188 C 251.738281 348.550781 250.859375 346.59375 250.042969 344.789062 C 249.320312 343.191406 248.609375 341.566406 247.816406 340 C 246.183594 336.800781 244.667969 333.585938 243.230469 330.292969 C 242.976562 329.722656 242.457031 329.351562 241.878906 329.125 C 243.9375 327.261719 245.789062 325.171875 247.257812 322.695312 C 251.296875 315.917969 252.351562 306.707031 248.722656 299.824219 C 255.636719 299.988281 262.542969 299.886719 269.441406 298.925781 C 280.285156 297.417969 290.390625 293.425781 299.246094 286.964844 C 302.816406 284.363281 305.949219 281.417969 308.652344 278.203125 C 308.152344 279.992188 307.65625 281.792969 307.113281 283.578125 C 303.945312 294.125 300.136719 304.507812 295.375 314.441406 C 290.902344 323.769531 285.175781 332.0625 279.664062 340.753906 C 277.703125 343.859375 282.195312 347.300781 284.734375 344.667969 C 284.882812 344.511719 285.023438 344.339844 285.175781 344.183594 C 294.28125 339.734375 303.238281 334.757812 311.765625 329.140625 C 315.539062 327.070312 319.121094 324.476562 322.484375 321.507812 C 326.90625 318.121094 331.183594 314.542969 335.214844 310.714844 C 342.222656 304.066406 348.5 296.292969 352.507812 287.453125 C 357.53125 276.371094 360.71875 264.667969 362.175781 252.597656 C 363.855469 238.667969 362.730469 224.648438 359.164062 211.097656 C 358.613281 209.007812 356.972656 208.175781 355.335938 208.253906 C 355.480469 201.707031 355.816406 195.417969 358.945312 188.109375 C 360.800781 183.785156 362.191406 179.542969 363.257812 175.226562 C 364.53125 175.109375 365.734375 174.324219 366.246094 172.671875 C 372.453125 152.625 374.847656 129.421875 367.320312 109.371094 Z M 367.320312 109.371094 "/></g><path style=" stroke:none;fill-rule:nonzero;fill:#6699cc;fill-opacity:1;" d="M 359.242188 170.730469 C 362.867188 152.757812 366.605469 133.53125 361.515625 115.582031 C 357.59375 115.203125 354.230469 111.628906 350.96875 109.578125 C 347.667969 107.5 344.195312 105.640625 340.597656 104.152344 C 333.210938 101.105469 324.667969 98.871094 316.667969 98.472656 C 312.039062 98.242188 312.085938 91.609375 316.667969 91.3125 C 321.335938 91.011719 325.785156 90.800781 330.453125 91.421875 C 334.953125 92.019531 339.371094 92.945312 343.699219 94.335938 C 346.914062 95.367188 350.042969 96.679688 353.097656 98.117188 C 347.046875 89.746094 338.59375 83.058594 328.644531 80.71875 C 326.382812 83.695312 320.433594 82.785156 319.851562 78.140625 C 319.648438 77.613281 319.609375 77.046875 319.703125 76.488281 C 319.003906 65.722656 317.265625 55.667969 312.355469 45.898438 C 307.144531 35.53125 300.410156 26.210938 290.367188 20.050781 C 280.859375 14.226562 269.742188 12.167969 258.984375 15.492188 C 249.027344 18.5625 240.34375 25.9375 237.398438 36.136719 C 236.964844 37.648438 235.777344 38.171875 234.625 38.0625 C 234.394531 38.597656 234.167969 39.117188 233.957031 39.660156 C 264.242188 39.085938 294.597656 52.753906 313.980469 76.347656 C 316.183594 79.027344 312.457031 82.894531 310.109375 80.214844 C 285.746094 52.351562 245.617188 41.433594 210.140625 51.132812 C 208.230469 51.652344 206.785156 50.820312 206.003906 49.539062 C 194.359375 45.5625 182.660156 42.199219 170.332031 41.230469 C 160.492188 40.460938 150.683594 41.035156 141.121094 42.746094 C 140.699219 42.898438 140.242188 42.96875 139.777344 42.960938 C 109.460938 48.753906 81.8125 66.445312 64.382812 92.554688 C 62.613281 95.203125 58.347656 92.757812 60.082031 90.039062 C 66.457031 80.03125 74.226562 70.851562 83.128906 63.007812 C 90.933594 56.125 99.695312 50.332031 109.039062 45.710938 C 109.863281 44.941406 111.59375 43.792969 111.472656 43.894531 C 111.027344 44.296875 110.625 44.734375 110.203125 45.160156 C 118.3125 41.253906 126.835938 38.210938 135.605469 36.230469 C 135.867188 29.890625 130.976562 24.378906 125.5625 20.929688 C 125.1875 20.820312 124.808594 20.710938 124.425781 20.640625 C 124.039062 20.285156 123.660156 19.914062 123.261719 19.59375 C 122.429688 19.160156 121.601562 18.777344 120.785156 18.445312 C 117.878906 17.28125 114.972656 16.6875 112.085938 16.472656 C 111.609375 16.550781 111.128906 16.652344 110.65625 16.796875 C 108.574219 16.363281 106.328125 16.480469 103.71875 17.355469 C 103.578125 17.324219 103.460938 17.265625 103.316406 17.242188 C 103.199219 17.21875 103.089844 17.226562 102.972656 17.203125 C 89.03125 20.371094 76.339844 32.238281 68.261719 43.15625 C 62.378906 51.117188 57.84375 60.109375 55.574219 69.777344 C 53.371094 79.152344 52.234375 91.925781 58.167969 100.183594 C 59.445312 101.96875 57.671875 104.042969 55.871094 104.167969 C 55.738281 104.3125 55.652344 104.46875 55.480469 104.59375 C 51.972656 107.234375 48.578125 110.09375 45.335938 113.152344 C 54.207031 108.703125 63.390625 104.925781 72.78125 101.664062 C 81.511719 98.628906 90.5625 95.695312 99.742188 93.882812 C 99.828125 93.761719 99.914062 93.644531 100 93.527344 C 100.898438 92.363281 102.304688 92.515625 103.347656 93.238281 C 105.878906 92.828125 108.417969 92.484375 110.964844 92.292969 C 115.757812 91.933594 116.339844 99.109375 112.054688 100.382812 C 108.015625 101.582031 103.945312 102.628906 99.867188 103.652344 C 95.367188 111.566406 92.363281 120.296875 90.730469 129.28125 C 88.5625 141.234375 90.148438 152.542969 92.128906 164.367188 C 92.9375 169.214844 86.542969 170.984375 84.789062 166.394531 C 80.238281 154.492188 80.960938 140.164062 83.554688 127.882812 C 85.222656 119.984375 88.128906 112.570312 91.988281 105.640625 C 86.558594 107 81.144531 108.40625 75.808594 110.167969 C 63.839844 114.113281 52.179688 118.984375 40.730469 124.234375 C 38.765625 125.136719 36.925781 124.398438 35.875 123.085938 C 30.261719 129.664062 25.335938 136.808594 21.398438 144.316406 C 15.332031 155.867188 8.355469 174.898438 20.519531 185.066406 C 22.011719 186.316406 21.996094 188.132812 21.21875 189.601562 C 22.011719 190.066406 22.898438 190.417969 23.984375 190.480469 C 28.109375 190.726562 31.992188 190.65625 35.898438 190.882812 C 35.800781 191.207031 35.714844 191.535156 35.621094 191.859375 C 36.722656 192.359375 37.59375 193.460938 37.328125 194.96875 C 34.75 209.234375 34.175781 223.855469 35.527344 238.285156 C 37.851562 263.183594 46.292969 289.800781 61.417969 309.984375 C 67.730469 318.410156 76.445312 324.566406 86.164062 328.464844 C 91.996094 330.804688 98.054688 332.496094 104.03125 334.4375 C 98.210938 326.097656 92.921875 317.367188 88.160156 308.398438 C 84.679688 301.835938 81.558594 295.148438 78.714844 288.363281 C 78.589844 288.066406 78.464844 287.773438 78.335938 287.476562 C 63.660156 252.070312 57.507812 213.964844 58.0625 175.40625 C 58.109375 171.878906 63.492188 171.886719 63.53125 175.40625 C 63.589844 179.847656 63.761719 184.304688 64.019531 188.753906 C 64.539062 188.28125 65.238281 188 66.109375 188.109375 C 66.917969 187.960938 67.761719 188.125 68.398438 188.730469 C 68.4375 188.746094 68.476562 188.753906 68.515625 188.769531 C 68.953125 188.644531 69.386719 188.476562 69.796875 188.25 C 70.613281 187.886719 71.414062 187.464844 72.207031 187.054688 C 74.210938 186.035156 76.199219 184.972656 78.171875 183.886719 C 81.929688 181.820312 85.410156 179.410156 88.984375 177.050781 C 91.980469 175.070312 95.035156 173.921875 98.476562 173.464844 C 102.242188 171.800781 106.179688 170.410156 109.910156 168.972656 C 110.179688 168.867188 110.4375 168.765625 110.703125 168.65625 C 113.289062 165.914062 116.292969 163.523438 119.84375 161.667969 C 124.125 159.4375 128.972656 158.171875 133.917969 157.835938 C 135.015625 156.921875 136.109375 156.011719 137.1875 155.074219 C 138.417969 154 140.0625 152.726562 140.707031 151.160156 C 140.902344 150.691406 140.996094 150.195312 141.027344 149.683594 C 140.039062 148.789062 139.132812 147.789062 138.300781 146.730469 C 137.453125 147.011719 136.476562 146.964844 135.613281 146.257812 C 131.386719 142.824219 129.617188 138.359375 129.265625 133.578125 C 128.636719 133.761719 127.953125 133.785156 127.207031 133.578125 C 125.273438 133.046875 123.628906 130.671875 124.417969 128.660156 C 125.925781 124.769531 128.382812 121.515625 131.488281 119.023438 C 131.746094 118.222656 132.007812 117.4375 132.28125 116.65625 C 136.699219 104.304688 142.976562 92.609375 150.898438 82.148438 C 156.855469 74.28125 168.65625 60.566406 179.484375 69.265625 C 184.121094 72.992188 186.179688 79.90625 187.894531 85.378906 C 188.96875 88.8125 189.738281 92.292969 190.28125 95.824219 C 194.234375 90.148438 197.289062 83.757812 202.746094 79.253906 C 210.195312 73.101562 220.824219 71.417969 227.960938 79.074219 C 234.679688 86.28125 235.707031 97.355469 236.367188 106.699219 C 237.242188 119.117188 236.046875 131.710938 232.777344 143.71875 C 232.398438 145.09375 231.605469 145.964844 230.648438 146.429688 C 231.984375 146.925781 233.375 147.292969 234.742188 147.546875 C 240.335938 148.597656 246.222656 147.851562 251.824219 147.222656 C 258.402344 146.484375 264.980469 145.683594 271.554688 144.914062 C 275.125 144.496094 278.683594 144.054688 282.242188 143.617188 C 285.128906 143.261719 288.160156 142.640625 291.105469 142.59375 C 291.195312 141.558594 291.273438 140.542969 291.273438 139.578125 C 291.28125 134.875 290.988281 130.144531 290.273438 125.492188 C 289.550781 120.800781 288.515625 116.125 287.082031 111.597656 C 285.882812 107.792969 284.625 104.773438 281.722656 101.960938 C 280.960938 101.230469 280.796875 100.199219 281.03125 99.257812 C 280.9375 99.179688 280.84375 99.117188 280.75 99.03125 C 280.445312 98.738281 280.121094 98.449219 279.824219 98.148438 C 279.242188 97.566406 278.730469 96.890625 278.1875 96.269531 C 277.433594 95.390625 276.640625 94.535156 275.988281 93.574219 C 275.523438 92.890625 275.054688 92.207031 274.589844 91.515625 C 274.09375 90.785156 273.945312 89.496094 274.21875 88.671875 C 274.417969 88.058594 274.738281 87.515625 275.171875 87.035156 C 275.714844 86.4375 276.515625 86.125 277.292969 86.023438 C 277.789062 85.910156 278.273438 85.933594 278.769531 86.085938 C 279.0625 86.210938 279.359375 86.335938 279.648438 86.453125 C 280.332031 86.957031 281.015625 87.453125 281.699219 87.957031 C 282.628906 88.632812 283.445312 89.402344 284.285156 90.171875 C 284.90625 90.746094 285.582031 91.296875 286.15625 91.917969 C 286.445312 92.230469 286.722656 92.554688 287.003906 92.875 C 287.507812 93.457031 287.886719 94.054688 288.253906 94.714844 C 288.757812 95.617188 288.992188 96.875 288.671875 97.890625 C 288.53125 98.3125 288.324219 98.699219 288.082031 99.070312 C 294.628906 103.996094 297.039062 114.316406 298.792969 121.640625 C 300.121094 127.207031 300.976562 132.894531 301.402344 138.601562 C 301.699219 142.617188 302.429688 147.6875 300.984375 151.671875 C 301.125 151.703125 301.25 151.726562 301.332031 151.742188 C 304.433594 152.386719 307.609375 152.796875 310.757812 153.164062 C 314.148438 153.558594 317.550781 153.855469 320.953125 154.117188 C 324.519531 154.390625 328.347656 154.117188 331.828125 154.925781 C 333.925781 155.414062 335.441406 157.574219 335.441406 159.671875 C 335.441406 161.175781 334.546875 162.980469 333.1875 163.886719 C 333.019531 164.523438 332.792969 165.144531 332.597656 165.78125 C 334.332031 165.679688 336.179688 167.054688 335.542969 169.207031 C 330.625 185.664062 326.8125 202.304688 323.503906 219.082031 C 323.625 219.390625 323.695312 219.742188 323.679688 220.152344 C 322.742188 242.316406 319.230469 264.503906 313.09375 285.824219 C 309.941406 296.773438 306.070312 307.535156 301.28125 317.882812 C 299.027344 322.765625 296.550781 327.804688 293.699219 332.582031 C 293.753906 332.621094 293.808594 332.667969 293.863281 332.707031 C 298.691406 329.808594 303.429688 326.757812 308.046875 323.527344 C 323.789062 312.523438 339.566406 299.039062 346.773438 280.742188 C 355.179688 259.386719 356.59375 235.53125 351.425781 213.210938 C 350.742188 210.273438 353.042969 208.347656 355.347656 208.230469 C 355.488281 201.683594 355.824219 195.394531 358.953125 188.085938 C 360.808594 183.761719 362.199219 179.519531 363.265625 175.203125 C 361.066406 175.414062 358.660156 173.617188 359.242188 170.730469 Z M 249.152344 87.695312 C 249.34375 87.121094 249.65625 86.628906 250.113281 86.203125 C 250.527344 85.753906 251.03125 85.433594 251.605469 85.242188 C 252.15625 84.953125 252.753906 84.820312 253.390625 84.84375 C 253.703125 84.828125 254.023438 84.789062 254.339844 84.8125 C 254.488281 84.820312 254.644531 84.828125 254.796875 84.84375 C 255.738281 84.90625 256.382812 85 257.199219 85.480469 C 258.121094 86.015625 258.253906 86.328125 258.882812 87.144531 C 258.90625 87.175781 258.929688 87.207031 258.960938 87.25 C 259.359375 87.941406 259.566406 88.679688 259.566406 89.480469 C 259.566406 90.28125 259.359375 91.019531 258.960938 91.710938 C 258.9375 91.742188 258.914062 91.773438 258.882812 91.8125 C 258.472656 92.507812 257.914062 93.0625 257.222656 93.472656 C 257.035156 93.566406 256.839844 93.644531 256.640625 93.714844 C 256.09375 94.007812 255.496094 94.140625 254.859375 94.117188 C 254.835938 94.117188 254.8125 94.117188 254.789062 94.125 C 254.636719 94.132812 254.480469 94.140625 254.332031 94.15625 C 254.015625 94.179688 253.695312 94.140625 253.382812 94.125 C 252.546875 94.125 251.761719 93.914062 251.046875 93.496094 C 250.734375 93.253906 250.417969 93.015625 250.113281 92.773438 C 249.539062 92.191406 249.136719 91.515625 248.917969 90.730469 C 248.863281 90.320312 248.808594 89.914062 248.753906 89.496094 C 248.730469 88.84375 248.863281 88.246094 249.152344 87.695312 Z M 266.253906 124.335938 C 262.851562 120.996094 258.753906 118.6875 254.316406 117.300781 C 249.695312 115.863281 245.359375 115.542969 240.273438 115.589844 C 236.1875 115.628906 235.269531 109.339844 239.308594 108.421875 C 250.773438 105.8125 262.953125 111.511719 270.253906 120.34375 C 272.523438 123.09375 268.894531 126.929688 266.253906 124.335938 Z M 311.765625 329.140625 C 315.433594 326.71875 319.003906 324.171875 322.484375 321.507812 C 319.121094 324.476562 315.539062 327.070312 311.765625 329.140625 Z M 311.765625 329.140625 "/><path style=" stroke:none;fill-rule:nonzero;fill:#f7b9ac;fill-opacity:1;" d="M 79.742188 245.460938 C 79.800781 245.6875 79.917969 245.835938 80.003906 246.023438 C 79.949219 246.105469 79.878906 246.136719 79.824219 246.222656 C 77.75 249.640625 76.539062 253.296875 76.019531 257.027344 C 71.769531 243.28125 68.585938 229.136719 66.550781 214.648438 C 66.449219 213.910156 66.371094 213.164062 66.277344 212.425781 C 72.46875 222.652344 77.039062 233.796875 79.742188 245.460938 Z M 187.539062 303.753906 C 187.546875 303.738281 187.546875 303.730469 187.554688 303.714844 C 187.507812 303.714844 187.460938 303.722656 187.40625 303.722656 C 187.453125 303.738281 187.5 303.738281 187.539062 303.753906 Z M 145.726562 199.890625 C 145.679688 200.503906 145.546875 201.09375 145.445312 201.691406 C 145.835938 201.148438 146.222656 200.597656 146.621094 200.054688 C 146.371094 200.03125 146.128906 200.023438 145.875 199.953125 C 145.828125 199.9375 145.78125 199.914062 145.726562 199.890625 Z M 124.125 199.128906 C 124.007812 198.890625 123.96875 198.640625 123.898438 198.398438 C 123.765625 198.539062 123.644531 198.695312 123.511719 198.835938 C 123.726562 198.921875 123.921875 199.035156 124.125 199.128906 Z M 335.449219 159.6875 C 335.449219 161.191406 334.554688 162.996094 333.195312 163.902344 C 333.027344 164.539062 332.800781 165.160156 332.605469 165.796875 C 331.558594 165.859375 330.5625 166.457031 330.167969 167.746094 C 323.066406 191.023438 316.875 214.839844 313.289062 238.9375 C 313.125 240.019531 313.472656 240.925781 314.042969 241.617188 C 314.148438 242.246094 314.195312 242.859375 314.265625 243.480469 C 313.839844 242.730469 313.367188 242.007812 312.792969 241.324219 C 308.953125 236.695312 302.746094 236.105469 297.164062 237.082031 C 293.292969 236.910156 289.410156 237.441406 285.589844 238.464844 C 280.019531 239.949219 273.582031 242.503906 269.945312 247.195312 C 266.03125 252.25 266.945312 259.128906 271.808594 263.222656 C 276.445312 267.128906 282.550781 268.589844 288.507812 268.808594 C 294.605469 269.039062 300.773438 267.488281 306.171875 264.683594 C 309.203125 263.113281 311.945312 260.753906 312.890625 257.34375 C 312.898438 257.3125 312.898438 257.28125 312.90625 257.25 C 313.007812 257.152344 313.117188 257.082031 313.210938 256.972656 C 313.28125 256.894531 313.320312 256.808594 313.382812 256.730469 C 310.648438 267.394531 303.152344 276.277344 293.070312 282.652344 C 284.554688 288.035156 275.273438 290.988281 265.238281 291.789062 C 259.863281 292.214844 254.472656 292.246094 249.074219 292.160156 C 259.429688 283.40625 264.886719 270.136719 262.015625 256.15625 C 258.457031 238.777344 242.804688 226 226.5625 220.835938 C 205.714844 214.210938 181.277344 218.910156 161.976562 228.285156 C 145.175781 236.453125 133.011719 252.800781 130.960938 271.503906 C 130.214844 278.3125 131.214844 285.464844 134.441406 291.5625 C 136.039062 294.582031 138.183594 297.097656 140.691406 299.179688 C 125.195312 297.457031 108.007812 295.894531 95.5 285.953125 C 91.679688 282.917969 88.269531 278.933594 85.769531 274.484375 C 84.601562 272.109375 83.625 269.636719 82.902344 267.113281 C 85.191406 268.441406 87.789062 269.375 90 270.066406 C 95.484375 271.789062 101.644531 272.722656 107.386719 272.109375 C 108.992188 271.9375 110.609375 271.625 112.171875 271.160156 C 113.054688 271.238281 113.871094 270.949219 114.445312 270.335938 C 117.375 269.070312 119.90625 267.105469 121.375 264.023438 C 123.6875 259.183594 122.960938 253.121094 119.835938 248.785156 C 116.0625 243.542969 109.605469 241.199219 103.285156 241.457031 C 96.472656 241.742188 89.929688 244.839844 84.378906 248.625 C 84.332031 248.660156 84.292969 248.714844 84.246094 248.746094 C 84.5625 248.132812 84.59375 247.558594 84.464844 247.03125 C 85.417969 246.378906 86.03125 245.253906 85.675781 243.824219 C 81.875 228.285156 74.808594 213.933594 65.019531 201.3125 C 64.609375 197.132812 64.289062 192.941406 64.042969 188.753906 C 64.5625 188.28125 65.261719 188 66.132812 188.109375 C 66.945312 187.960938 67.785156 188.125 68.421875 188.730469 C 68.460938 188.746094 68.5 188.753906 68.539062 188.769531 C 68.980469 188.644531 69.410156 188.476562 69.820312 188.25 C 70.636719 187.890625 71.4375 187.464844 72.230469 187.054688 C 74.234375 186.035156 76.222656 184.972656 78.195312 183.886719 C 81.953125 181.820312 85.433594 179.410156 89.007812 177.050781 C 92.003906 175.070312 95.058594 173.921875 98.5 173.464844 C 102.265625 171.800781 106.203125 170.410156 109.933594 168.972656 C 110.203125 168.867188 110.460938 168.765625 110.726562 168.65625 C 101.652344 178.308594 98.101562 192.628906 96.820312 205.902344 C 91.828125 203.679688 87.554688 200.402344 83.625 196.394531 C 81.433594 194.152344 77.222656 197.171875 79.164062 199.835938 C 84.230469 206.804688 91.257812 211.632812 99.191406 214.886719 C 100.984375 215.617188 103.546875 214.078125 103.875 212.222656 C 106.453125 197.792969 107.703125 179.839844 121.0625 170.777344 C 122.625 169.71875 124.289062 168.835938 126.027344 168.113281 C 126.382812 179.351562 121.398438 190.765625 111.71875 196.871094 C 107.570312 199.488281 109.683594 204.90625 114.042969 205.445312 C 123.859375 206.671875 131.722656 214.949219 133.601562 224.417969 C 134.355469 228.222656 140.445312 229.113281 142.136719 225.535156 C 147.09375 215.011719 153.515625 205.34375 161.394531 196.785156 C 164.320312 193.617188 162.078125 189.210938 158.085938 188.800781 C 147.542969 187.730469 140.644531 177.8125 140.476562 167.832031 C 140.46875 167.21875 140.351562 166.683594 140.1875 166.203125 C 141.390625 166.363281 142.59375 166.582031 143.777344 166.910156 C 151.511719 169.089844 156.4375 174.371094 161.128906 180.546875 C 163.507812 183.683594 169.75 182.082031 168.152344 177.585938 C 163.148438 163.53125 148.132812 156.835938 133.957031 157.820312 C 135.054688 156.90625 136.148438 155.996094 137.226562 155.058594 C 138.457031 153.984375 140.101562 152.710938 140.746094 151.144531 C 140.941406 150.675781 141.035156 150.179688 141.066406 149.667969 C 140.078125 148.773438 139.171875 147.773438 138.339844 146.714844 C 140.125 146.125 141.3125 143.960938 139.503906 142.398438 C 134.625 138.183594 135.535156 130.875 137.40625 124.574219 C 137.492188 124.511719 137.578125 124.445312 137.664062 124.390625 C 138.230469 124.007812 138.804688 123.636719 139.394531 123.300781 C 140.007812 122.945312 140.644531 122.632812 141.296875 122.339844 C 141.40625 122.292969 141.578125 122.222656 141.671875 122.191406 C 142.027344 122.066406 142.378906 121.941406 142.734375 121.820312 C 144.039062 121.40625 145.375 121.128906 146.71875 120.902344 C 146.820312 120.886719 146.851562 120.878906 146.867188 120.878906 C 146.984375 120.863281 147.109375 120.847656 147.226562 120.839844 C 147.535156 120.816406 147.847656 120.785156 148.15625 120.769531 C 148.894531 120.730469 149.632812 120.730469 150.371094 120.769531 C 152.632812 120.886719 155.289062 121.679688 157.53125 123.0625 C 160.082031 124.636719 163.210938 120.808594 160.804688 118.820312 C 155.34375 114.308594 148.09375 112.816406 141.222656 114.371094 C 142.664062 110.96875 144.28125 107.636719 146.003906 104.367188 C 147.226562 105.042969 148.640625 105.324219 150.089844 104.941406 C 155.367188 103.507812 160.671875 102.410156 166.070312 101.542969 C 169.113281 101.058594 171.039062 100.773438 173.9375 100.285156 C 175.148438 100.082031 176.601562 99.878906 177.960938 99.492188 C 178.351562 99.59375 178.738281 99.707031 179.132812 99.808594 C 179.484375 99.917969 179.839844 99.933594 180.191406 99.855469 C 180.546875 99.839844 180.875 99.738281 181.183594 99.539062 C 181.496094 99.375 181.738281 99.148438 181.929688 98.855469 C 182.046875 98.730469 182.085938 98.558594 182.164062 98.410156 C 182.441406 100.996094 182.558594 103.589844 182.511719 106.199219 C 182.449219 109.332031 186.359375 111.925781 189.117188 109.984375 C 192.480469 107.621094 194.972656 104.625 197.210938 101.425781 C 197.226562 101.535156 197.226562 101.648438 197.257812 101.765625 C 197.558594 102.847656 198.761719 103.972656 199.960938 103.824219 C 204.503906 103.265625 208.046875 102.324219 212.667969 102.503906 C 214.980469 102.597656 216.355469 102.746094 218.382812 103.171875 C 220.855469 103.691406 223.480469 105.121094 226.003906 104.523438 C 226.429688 104.421875 226.8125 104.199219 227.175781 103.933594 C 227.324219 106.339844 227.394531 108.6875 227.457031 110.851562 C 227.765625 121.144531 226.625 131.332031 224.394531 141.382812 C 223.488281 145.472656 227.820312 147.796875 230.6875 146.421875 C 232.023438 146.917969 233.414062 147.285156 234.78125 147.539062 C 240.375 148.589844 246.261719 147.84375 251.863281 147.214844 C 258.441406 146.476562 265.019531 145.675781 271.59375 144.90625 C 275.164062 144.488281 278.722656 144.046875 282.28125 143.609375 C 285.167969 143.253906 288.199219 142.632812 291.144531 142.585938 C 290.878906 145.683594 290.5 148.976562 291.335938 151.8125 C 291.5625 152.457031 291.578125 152.648438 291.5625 152.601562 C 291.78125 153.148438 292.050781 153.675781 292.394531 154.179688 C 293.890625 156.371094 296.953125 157.039062 298.949219 155.027344 C 299.90625 154.0625 300.550781 152.921875 301 151.679688 C 301.140625 151.710938 301.265625 151.734375 301.347656 151.75 C 304.449219 152.394531 307.625 152.804688 310.777344 153.171875 C 314.164062 153.566406 317.566406 153.863281 320.96875 154.125 C 324.535156 154.398438 328.363281 154.125 331.84375 154.933594 C 333.925781 155.429688 335.449219 157.589844 335.449219 159.6875 Z M 309.101562 179.335938 C 306.203125 182.167969 303.5 185.167969 300.789062 188.171875 C 295.175781 173.71875 286.320312 159.28125 271 154.636719 C 251.980469 148.867188 233.664062 160.835938 222.484375 175.3125 C 220.621094 177.726562 224.621094 180.714844 226.671875 178.542969 C 233.035156 171.824219 242.050781 165.605469 251.597656 163.132812 C 251.472656 169.207031 249.375 175.101562 245.230469 179.628906 C 243.007812 182.058594 240.453125 184 237.46875 185.398438 C 234.46875 186.804688 231.238281 188.414062 229.933594 191.699219 C 226.773438 199.6875 237.113281 201.585938 241.664062 205.148438 C 246.828125 209.1875 250.277344 214.839844 251.714844 221.203125 C 252.460938 224.515625 257.105469 225.722656 259.382812 223.234375 C 267.421875 214.460938 275.460938 205.699219 283.5 196.925781 C 286.039062 194.160156 284.703125 190.480469 281.457031 189.175781 C 276.003906 186.992188 271.351562 182.867188 268.21875 177.929688 C 265.027344 172.902344 264.179688 167.847656 263.414062 162.179688 C 265.339844 162.402344 267.25 162.824219 269.128906 163.476562 C 283.964844 168.632812 289.558594 185.601562 293.96875 199.066406 C 295.105469 202.539062 299.671875 204.171875 302.390625 201.289062 C 307.066406 196.335938 310.925781 190.75 315.425781 185.65625 C 319.214844 181.382812 313.265625 175.28125 309.101562 179.335938 Z M 309.101562 179.335938 "/><path style=" stroke:none;fill-rule:nonzero;fill:#f0816a;fill-opacity:1;" d="M 187.570312 303.714844 C 187.5625 303.730469 187.554688 303.746094 187.554688 303.761719 C 187.554688 303.738281 187.5625 303.722656 187.570312 303.714844 Z M 159.375 83.734375 C 159.519531 83.710938 159.644531 83.664062 159.785156 83.632812 C 159.722656 83.570312 159.667969 83.515625 159.597656 83.453125 C 159.527344 83.546875 159.453125 83.640625 159.375 83.734375 Z M 181.191406 304.175781 C 182.132812 304.105469 183.074219 304.042969 184.011719 303.972656 C 183.375 303.941406 181.796875 304.113281 181.191406 304.175781 Z M 103.269531 241.464844 C 96.457031 241.75 89.914062 244.847656 84.363281 248.632812 C 84.316406 248.664062 84.277344 248.722656 84.230469 248.753906 C 84.222656 248.769531 84.222656 248.777344 84.214844 248.792969 C 81.121094 254.601562 80.929688 260.949219 82.597656 266.945312 C 82.691406 267.003906 82.785156 267.058594 82.878906 267.113281 C 85.164062 268.441406 87.765625 269.375 89.976562 270.066406 C 95.460938 271.789062 101.621094 272.722656 107.363281 272.109375 C 108.96875 271.9375 110.585938 271.625 112.148438 271.160156 C 112.015625 271.144531 111.882812 271.175781 111.75 271.144531 C 110.320312 270.820312 109.496094 269.1875 109.863281 267.820312 C 110.171875 266.6875 110.398438 265.546875 110.625 264.394531 C 110.671875 264.148438 110.71875 263.898438 110.773438 263.652344 C 110.820312 263.410156 110.988281 262.992188 110.972656 262.726562 C 110.980469 262.65625 110.988281 262.585938 111.003906 262.515625 C 111.066406 262.011719 111.144531 261.539062 111.246094 261.050781 C 111.480469 259.945312 111.710938 258.84375 111.945312 257.734375 C 112.0625 257.164062 112.832031 254.089844 113.621094 253.265625 C 115.378906 251.410156 119.011719 252.210938 119.542969 254.828125 C 119.71875 255.667969 119.78125 256.390625 119.511719 257.226562 C 119.433594 257.460938 119.339844 257.695312 119.253906 257.933594 C 119.058594 258.484375 118.851562 259.03125 118.65625 259.582031 C 118.273438 260.644531 117.886719 261.703125 117.5 262.773438 C 117.335938 263.230469 117.164062 263.675781 116.96875 264.125 C 116.921875 264.234375 116.863281 264.34375 116.816406 264.457031 C 116.597656 264.925781 116.441406 265.453125 116.261719 265.933594 C 115.84375 267.035156 115.433594 268.125 115.097656 269.25 C 114.964844 269.683594 114.726562 270.027344 114.445312 270.335938 C 117.375 269.070312 119.90625 267.105469 121.375 264.023438 C 123.6875 259.183594 122.960938 253.121094 119.835938 248.785156 C 116.046875 243.550781 109.589844 241.207031 103.269531 241.464844 Z M 104.644531 255.007812 C 104.410156 256.164062 103.507812 257.3125 102.910156 258.324219 C 102.390625 259.199219 101.878906 260.078125 101.359375 260.957031 C 100.332031 262.710938 99.292969 264.464844 98.265625 266.214844 C 97.472656 267.558594 95.789062 267.921875 94.445312 267.214844 C 93.839844 266.890625 93.347656 266.191406 93.164062 265.546875 C 92.945312 264.753906 93.140625 264.117188 93.449219 263.394531 C 94.625 260.605469 95.8125 257.824219 96.992188 255.03125 C 97.117188 254.726562 97.25 254.417969 97.378906 254.113281 C 97.464844 253.917969 97.542969 253.710938 97.628906 253.515625 C 97.777344 253.160156 97.925781 252.816406 98.078125 252.460938 C 98.289062 252.15625 98.523438 251.855469 98.777344 251.582031 C 98.988281 251.347656 99.277344 251.140625 99.59375 250.976562 C 99.703125 250.921875 99.8125 250.882812 99.921875 250.835938 C 100.667969 250.519531 101.527344 250.402344 102.195312 250.679688 C 102.164062 250.6875 102.132812 250.695312 102.101562 250.703125 C 102.429688 250.78125 102.746094 250.875 103.035156 251.03125 C 104.457031 251.785156 104.960938 253.523438 104.644531 255.007812 Z M 197.234375 101.773438 C 197.203125 101.65625 197.203125 101.542969 197.1875 101.433594 C 199.632812 97.929688 201.753906 94.164062 204.324219 90.636719 C 208.425781 84.984375 216.960938 78.902344 222.367188 86.460938 C 225.761719 91.210938 226.765625 97.765625 227.160156 103.949219 C 226.796875 104.214844 226.414062 104.4375 225.988281 104.539062 C 223.464844 105.136719 220.839844 103.699219 218.367188 103.1875 C 216.339844 102.761719 214.964844 102.605469 212.652344 102.519531 C 208.03125 102.339844 204.488281 103.28125 199.945312 103.839844 C 198.738281 103.980469 197.535156 102.855469 197.234375 101.773438 Z M 145.988281 104.375 C 148.367188 99.855469 150.992188 95.460938 153.90625 91.273438 C 154.921875 89.816406 156.925781 86.800781 159.375 83.726562 C 159.519531 83.703125 159.644531 83.65625 159.785156 83.625 C 159.722656 83.5625 159.667969 83.507812 159.597656 83.445312 C 164.183594 77.761719 170.285156 72.03125 174.644531 75.757812 C 178.179688 78.777344 179.640625 85.832031 180.703125 90.132812 C 181.378906 92.859375 181.851562 95.625 182.148438 98.402344 C 182.070312 98.550781 182.03125 98.722656 181.914062 98.847656 C 181.722656 99.140625 181.472656 99.367188 181.167969 99.53125 C 180.859375 99.730469 180.53125 99.832031 180.175781 99.847656 C 179.824219 99.925781 179.46875 99.910156 179.117188 99.800781 C 178.722656 99.699219 178.335938 99.585938 177.945312 99.484375 C 176.578125 99.871094 175.132812 100.074219 173.921875 100.277344 C 171.03125 100.765625 169.097656 101.050781 166.054688 101.535156 C 160.65625 102.410156 155.351562 103.5 150.074219 104.933594 C 148.632812 105.339844 147.210938 105.058594 145.988281 104.375 Z M 188.042969 303.675781 C 190.195312 303.507812 192.339844 303.320312 194.492188 303.148438 C 194.335938 303.589844 194.226562 304.050781 194.203125 304.539062 C 194.203125 304.65625 194.195312 304.78125 194.179688 304.902344 C 194.132812 305.128906 194.101562 305.394531 194.054688 305.578125 C 193.992188 305.835938 193.921875 306.085938 193.839844 306.339844 C 193.816406 306.425781 193.636719 306.851562 193.597656 306.984375 C 193.542969 307.09375 193.488281 307.195312 193.472656 307.226562 C 193.324219 307.511719 193.164062 307.785156 192.992188 308.050781 C 192.867188 308.257812 192.726562 308.453125 192.585938 308.648438 C 192.535156 308.703125 192.472656 308.773438 192.386719 308.871094 C 191.996094 309.308594 191.578125 309.703125 191.136719 310.09375 C 191.097656 310.136719 191.082031 310.144531 191.058594 310.175781 C 191.019531 310.199219 190.988281 310.214844 190.933594 310.253906 C 190.667969 310.425781 190.40625 310.597656 190.125 310.753906 C 189.898438 310.890625 189.660156 311.007812 189.425781 311.125 C 189.371094 311.15625 189.324219 311.171875 189.269531 311.195312 C 188.679688 311.390625 188.097656 311.566406 187.484375 311.691406 C 187.429688 311.699219 187.4375 311.707031 187.40625 311.714844 C 187.390625 311.714844 187.40625 311.707031 187.359375 311.707031 C 187.042969 311.699219 186.722656 311.738281 186.40625 311.738281 C 186.140625 311.738281 185.882812 311.714844 185.621094 311.707031 C 185.550781 311.707031 185.519531 311.707031 185.480469 311.699219 C 185.433594 311.683594 185.394531 311.675781 185.308594 311.660156 C 184.734375 311.535156 184.175781 311.40625 183.617188 311.21875 C 183.46875 311.171875 183.320312 311.117188 183.171875 311.0625 C 183.429688 311.179688 183.445312 311.1875 183.234375 311.09375 C 182.988281 310.992188 182.738281 310.882812 182.503906 310.773438 C 182.21875 310.636719 181.921875 310.496094 181.652344 310.332031 C 181.660156 310.332031 181.269531 310.054688 181.183594 310 C 180.789062 309.695312 180.429688 309.347656 180.082031 308.988281 C 179.257812 308.121094 178.738281 307.421875 178.1875 306.222656 C 178.0625 305.953125 177.621094 305.546875 177.175781 305.183594 C 177.160156 305.175781 177.144531 305.167969 177.121094 305.160156 C 177.121094 305.152344 177.121094 305.152344 177.121094 305.144531 C 176.71875 304.828125 176.316406 304.554688 176.136719 304.453125 C 176.308594 304.375 176.914062 304.429688 177.371094 304.460938 C 177.574219 304.445312 177.78125 304.429688 177.992188 304.414062 C 178.234375 304.335938 178.496094 304.34375 178.761719 304.359375 C 178.988281 304.34375 179.226562 304.328125 179.453125 304.3125 C 180.035156 304.273438 180.609375 304.226562 181.191406 304.183594 C 181.699219 304.273438 182.179688 304.445312 182.589844 304.75 C 183.011719 304.40625 183.484375 304.136719 184.019531 303.980469 C 185.152344 303.894531 186.28125 303.824219 187.414062 303.730469 C 187.453125 303.746094 187.5 303.738281 187.546875 303.753906 C 187.554688 303.738281 187.554688 303.730469 187.5625 303.714844 C 187.5625 303.714844 187.570312 303.714844 187.570312 303.714844 C 187.5625 303.730469 187.554688 303.746094 187.554688 303.753906 C 187.5625 303.738281 187.570312 303.722656 187.570312 303.707031 C 187.726562 303.699219 187.886719 303.691406 188.042969 303.675781 Z M 272.460938 254.527344 C 272.476562 254.339844 272.492188 254.152344 272.523438 253.972656 C 272.539062 253.882812 272.554688 253.796875 272.570312 253.71875 C 272.53125 253.988281 272.492188 254.253906 272.460938 254.527344 Z M 314.257812 243.472656 C 313.832031 242.722656 313.359375 242 312.785156 241.316406 C 308.945312 236.6875 302.738281 236.097656 297.15625 237.074219 C 293.285156 236.898438 289.402344 237.433594 285.582031 238.457031 C 280.011719 239.941406 273.574219 242.496094 269.9375 247.1875 C 266.023438 252.242188 266.9375 259.117188 271.800781 263.214844 C 276.4375 267.121094 282.542969 268.582031 288.5 268.800781 C 294.597656 269.03125 300.765625 267.480469 306.164062 264.675781 C 309.195312 263.105469 311.9375 260.746094 312.882812 257.335938 C 312.890625 257.304688 312.890625 257.273438 312.898438 257.242188 C 313 257.144531 313.109375 257.074219 313.203125 256.964844 C 313.273438 256.886719 313.3125 256.800781 313.375 256.722656 C 314.453125 252.554688 314.765625 248.125 314.257812 243.472656 Z M 281.628906 248.539062 C 281.066406 249.835938 280.5 251.140625 279.933594 252.4375 C 279.65625 253.074219 279.382812 253.710938 279.101562 254.347656 C 278.714844 255.230469 278.257812 255.929688 277.652344 256.691406 C 277.8125 256.484375 277.96875 256.28125 278.132812 256.070312 C 277.882812 256.476562 277.628906 256.886719 277.378906 257.296875 C 276.640625 258.492188 275.1875 258.976562 273.898438 258.433594 C 272.5625 257.871094 272.011719 256.519531 272.28125 255.140625 C 272.359375 254.75 272.4375 254.363281 272.507812 253.972656 C 272.703125 252.523438 273.222656 251.203125 273.710938 249.8125 C 274.179688 248.476562 274.644531 247.132812 275.117188 245.796875 C 275.492188 244.71875 276.113281 243.933594 277.175781 243.488281 C 278.09375 243.101562 278.996094 243.101562 279.917969 243.488281 C 280.890625 243.894531 281.734375 244.71875 281.976562 245.796875 C 282.015625 246.113281 282.0625 246.425781 282.101562 246.742188 C 282.117188 247.386719 281.953125 247.980469 281.628906 248.539062 Z M 299.765625 245.710938 C 299.367188 247.09375 298.523438 248.421875 297.800781 249.664062 C 297.179688 250.726562 296.566406 251.777344 295.949219 252.839844 C 295.328125 253.902344 294.675781 254.929688 294.023438 255.96875 C 293.621094 256.621094 293.238281 257.3125 292.710938 257.871094 C 292.585938 257.972656 292.464844 258.074219 292.347656 258.191406 C 292.339844 258.199219 292.339844 258.199219 292.332031 258.207031 C 292.136719 258.484375 291.941406 258.757812 291.742188 259.039062 C 290.863281 260.28125 289.425781 260.753906 288.027344 260.015625 C 287.4375 259.699219 286.949219 259.015625 286.777344 258.386719 C 286.566406 257.617188 286.753906 256.996094 287.050781 256.289062 C 287.1875 255.976562 287.335938 255.667969 287.453125 255.347656 C 287.59375 255.039062 287.585938 255.03125 287.429688 255.332031 C 287.46875 255.171875 287.5 255.007812 287.515625 254.84375 C 287.703125 254.113281 288.144531 253.398438 288.472656 252.722656 C 289.015625 251.621094 289.550781 250.511719 290.125 249.429688 C 290.699219 248.34375 291.273438 247.257812 291.84375 246.183594 C 292.519531 244.902344 293.214844 243.542969 294.1875 242.464844 C 295.199219 241.339844 296.960938 241.269531 298.226562 241.945312 C 299.523438 242.628906 300.160156 244.351562 299.765625 245.710938 Z M 252.847656 252.257812 C 258.804688 267.425781 251.203125 282.265625 237.5 289.746094 C 236.488281 290.296875 235.898438 291.058594 235.613281 291.894531 C 235 291.507812 234.222656 291.320312 233.257812 291.429688 C 206.726562 294.636719 180.089844 297.121094 153.46875 299.476562 C 142.820312 295.539062 136.863281 286.492188 137.273438 274.734375 C 137.59375 265.667969 141.152344 256.753906 146.6875 249.390625 C 148.265625 247.289062 150 245.316406 151.871094 243.503906 C 154.277344 241.167969 156.894531 239.085938 159.675781 237.339844 C 167.714844 232.316406 177.074219 229.300781 186.25 227.171875 C 195.882812 224.9375 206.042969 224.003906 215.859375 225.542969 C 231.347656 227.988281 246.90625 237.128906 252.847656 252.257812 Z M 252.847656 252.257812 "/><g clip-rule="nonzero" clip-path="url(#ca3e7f5b9e)"><path style=" stroke:none;fill-rule:nonzero;fill:#f794c6;fill-opacity:1;" d="M 242.976562 347.765625 C 242.386719 346.109375 241.765625 344.457031 241.25 342.773438 C 240.195312 339.332031 239.054688 335.960938 237.796875 332.589844 C 237.765625 332.511719 237.789062 332.433594 237.765625 332.347656 C 231.300781 336.652344 223.417969 339.199219 216.222656 341.429688 C 212.652344 342.539062 211.300781 337.164062 214.703125 335.914062 C 223.75 332.582031 234.789062 328.761719 240.101562 320.070312 C 242.527344 316.085938 243.480469 311.1875 242.527344 306.808594 C 242.363281 306.707031 242.222656 306.574219 242.042969 306.488281 C 242.082031 306.183594 242.160156 305.875 242.167969 305.5625 C 241.445312 303.257812 240.210938 301.136719 238.269531 299.453125 C 237.050781 299.398438 235.84375 299.351562 234.625 299.304688 C 234.214844 299.492188 233.765625 299.632812 233.257812 299.691406 C 223.011719 300.757812 212.746094 301.65625 202.476562 302.503906 C 202.980469 303.554688 203.011719 304.546875 202.847656 305.726562 C 201.871094 312.808594 195.460938 318.394531 188.472656 318.96875 C 181.714844 319.527344 175.171875 314.667969 173.347656 308.273438 C 172.726562 306.09375 175.164062 304.453125 176.90625 305.050781 C 176.757812 304.867188 176.617188 304.695312 176.46875 304.53125 C 170.234375 304.972656 163.996094 305.355469 157.75 305.59375 C 157.703125 305.703125 157.664062 305.789062 157.65625 305.796875 C 157.625 305.789062 157.417969 305.726562 157.097656 305.632812 C 156.910156 305.640625 156.726562 305.65625 156.546875 305.664062 C 156.011719 305.929688 155.390625 306.0625 154.652344 305.890625 C 154.503906 305.851562 154.355469 305.804688 154.207031 305.765625 C 151.777344 305.835938 149.351562 305.835938 146.921875 305.851562 C 146.535156 306.316406 145.988281 306.652344 145.296875 306.808594 C 145.175781 307.429688 144.886719 308.058594 144.351562 308.632812 C 140.164062 313.144531 140.808594 319.855469 143.660156 325.28125 C 144.078125 325.816406 144.460938 326.371094 144.949219 326.84375 C 145.214844 327.472656 145.515625 328.085938 145.859375 328.667969 C 146.433594 329.390625 147.039062 330.066406 147.675781 330.671875 C 149.082031 332.007812 150.726562 333.046875 152.445312 333.957031 C 152.710938 334.027344 152.972656 334.121094 153.246094 334.167969 C 153.453125 334.246094 153.648438 334.328125 153.851562 334.390625 C 153.773438 334.453125 153.6875 334.507812 153.601562 334.570312 C 156.273438 335.828125 159.132812 336.722656 161.945312 337.34375 C 167.871094 338.640625 173.820312 339.144531 179.863281 339.464844 C 183.234375 339.648438 183.265625 344.683594 179.863281 344.734375 C 173.636719 344.8125 167.265625 344.953125 161.105469 343.898438 C 157.058594 343.207031 153.082031 341.964844 149.445312 340.15625 C 149.207031 340.582031 148.894531 340.96875 148.484375 341.21875 C 148.445312 341.242188 148.414062 341.265625 148.382812 341.289062 C 148.140625 341.496094 147.917969 341.730469 147.707031 341.964844 C 147.535156 342.21875 147.378906 342.476562 147.242188 342.75 C 147.132812 343.066406 147.046875 343.378906 146.984375 343.703125 C 146.953125 344.121094 146.929688 344.527344 146.976562 344.945312 C 147.015625 345.179688 147.046875 345.410156 147.085938 345.644531 C 147.085938 345.628906 147.085938 345.605469 147.085938 345.589844 C 147.070312 345.449219 147.046875 345.304688 147.03125 345.164062 C 147.046875 345.265625 147.0625 345.367188 147.085938 345.464844 C 147.09375 345.503906 147.085938 345.542969 147.09375 345.582031 C 147.109375 345.691406 147.125 345.800781 147.140625 345.910156 C 147.125 345.816406 147.109375 345.722656 147.101562 345.636719 C 147.203125 346.34375 147.148438 346.980469 146.8125 347.625 C 146.703125 347.835938 146.527344 348.011719 146.347656 348.175781 C 146.496094 348.527344 146.621094 348.859375 146.648438 349.140625 C 146.402344 350.03125 146.285156 350.980469 146.371094 352.050781 C 146.6875 356.121094 149.65625 358.949219 153.5625 359.671875 C 158.109375 360.523438 163.039062 360.332031 167.652344 360.492188 C 172.796875 360.664062 177.953125 360.75 183.097656 360.742188 C 203.003906 360.71875 222.8125 359.210938 242.527344 356.523438 C 243.496094 356.386719 244.304688 355.878906 244.957031 355.183594 C 245.445312 354.941406 245.867188 354.621094 246.261719 354.25 C 245.957031 353.992188 245.679688 353.699219 245.460938 353.347656 C 244.40625 351.648438 243.644531 349.628906 242.976562 347.765625 Z M 210.71875 344.054688 C 210.816406 343.96875 210.902344 343.882812 210.996094 343.789062 C 211.308594 343.84375 211.625 343.90625 211.945312 343.953125 C 211.539062 343.992188 211.128906 344.03125 210.71875 344.054688 Z M 254.835938 180.722656 C 255.605469 179.304688 256.25 177.828125 256.769531 176.320312 C 257.78125 178.707031 258.992188 180.996094 260.34375 183.03125 C 263.628906 187.96875 267.824219 191.96875 272.75 194.976562 C 271.839844 195.976562 270.9375 196.972656 270.023438 197.964844 C 269.835938 197.878906 269.417969 198.476562 269.394531 198.648438 C 265.570312 202.835938 261.75 207.035156 257.921875 211.222656 C 256.15625 207.515625 253.765625 204.09375 250.867188 201.164062 C 248.5 198.773438 245.75 196.652344 242.804688 195.03125 C 242.464844 194.84375 241.484375 194.253906 240.515625 193.742188 C 246.589844 190.742188 251.542969 186.789062 254.835938 180.722656 Z M 123.898438 198.398438 C 128.683594 193.125 131.960938 186.59375 133.097656 179.644531 C 136.140625 186.945312 142.441406 192.917969 149.78125 196.007812 C 148.699219 197.335938 147.652344 198.6875 146.621094 200.054688 C 146.371094 200.03125 145.546875 201.09375 145.445312 201.691406 C 143.03125 205.015625 140.769531 208.441406 138.710938 212 C 135.292969 206.351562 130.144531 201.894531 124.125 199.136719 C 124.015625 198.890625 123.976562 198.640625 123.898438 198.398438 Z M 45.34375 113.144531 C 54.214844 108.695312 63.398438 104.917969 72.789062 101.65625 C 81.519531 98.621094 90.570312 95.6875 99.75 93.875 C 96.875 97.628906 94.265625 101.542969 91.996094 105.632812 C 86.566406 106.992188 81.152344 108.398438 75.816406 110.160156 C 63.847656 114.105469 52.1875 118.976562 40.738281 124.226562 C 38.773438 125.128906 36.933594 124.390625 35.882812 123.078125 C 38.859375 119.597656 42.019531 116.273438 45.34375 113.144531 Z M 103.355469 93.238281 C 105.886719 92.828125 108.425781 92.484375 110.972656 92.292969 C 115.765625 91.933594 116.347656 99.109375 112.0625 100.382812 C 108.023438 101.582031 103.953125 102.628906 99.875 103.652344 C 101.210938 101.300781 102.671875 99.015625 104.285156 96.820312 C 105.234375 95.53125 104.519531 94.039062 103.355469 93.238281 Z M 248.917969 90.714844 C 248.863281 90.304688 248.808594 89.898438 248.753906 89.480469 C 248.730469 88.84375 248.863281 88.246094 249.152344 87.695312 C 249.34375 87.121094 249.65625 86.628906 250.113281 86.203125 C 250.527344 85.753906 251.03125 85.433594 251.605469 85.242188 C 252.15625 84.953125 252.753906 84.820312 253.390625 84.84375 C 253.703125 84.828125 254.023438 84.789062 254.339844 84.8125 C 254.488281 84.820312 254.644531 84.828125 254.796875 84.84375 C 255.738281 84.90625 256.382812 85 257.199219 85.480469 C 258.121094 86.015625 258.253906 86.328125 258.882812 87.144531 C 258.90625 87.175781 258.929688 87.207031 258.960938 87.25 C 259.359375 87.941406 259.566406 88.679688 259.566406 89.480469 C 259.566406 90.28125 259.359375 91.019531 258.960938 91.710938 C 258.9375 91.742188 258.914062 91.773438 258.882812 91.8125 C 258.472656 92.507812 257.914062 93.0625 257.222656 93.472656 C 257.035156 93.566406 256.839844 93.644531 256.640625 93.714844 C 256.09375 94.007812 255.496094 94.140625 254.859375 94.117188 C 254.835938 94.117188 254.8125 94.117188 254.789062 94.125 C 254.636719 94.132812 254.480469 94.140625 254.332031 94.15625 C 254.015625 94.179688 253.695312 94.140625 253.382812 94.125 C 252.546875 94.125 251.761719 93.914062 251.046875 93.496094 C 250.734375 93.253906 250.417969 93.015625 250.113281 92.773438 C 249.539062 92.175781 249.136719 91.5 248.917969 90.714844 Z M 281.058594 99.273438 C 280.960938 99.195312 280.867188 99.132812 280.773438 99.046875 C 280.46875 98.753906 280.144531 98.464844 279.847656 98.164062 C 279.265625 97.582031 278.753906 96.90625 278.210938 96.285156 C 277.457031 95.40625 276.664062 94.550781 276.011719 93.589844 C 275.546875 92.90625 275.078125 92.222656 274.613281 91.53125 C 274.117188 90.800781 273.96875 89.511719 274.242188 88.6875 C 274.441406 88.074219 274.761719 87.53125 275.195312 87.050781 C 275.738281 86.453125 276.539062 86.140625 277.316406 86.039062 C 277.8125 85.925781 278.296875 85.953125 278.792969 86.101562 C 279.085938 86.226562 279.382812 86.351562 279.671875 86.46875 C 280.355469 86.972656 281.039062 87.46875 281.726562 87.972656 C 282.652344 88.648438 283.46875 89.417969 284.308594 90.1875 C 284.929688 90.761719 285.605469 91.3125 286.179688 91.933594 C 286.472656 92.246094 286.746094 92.570312 287.027344 92.890625 C 287.53125 93.472656 287.910156 94.070312 288.277344 94.730469 C 288.78125 95.632812 289.015625 96.890625 288.695312 97.90625 C 288.554688 98.328125 288.347656 98.714844 288.105469 99.085938 C 287.035156 98.28125 285.875 97.605469 284.578125 97.128906 C 282.855469 96.5 281.433594 97.765625 281.058594 99.273438 Z M 367.320312 109.371094 C 366.976562 108.453125 366.589844 107.542969 366.207031 106.636719 C 366.769531 107.460938 367.132812 108.382812 367.320312 109.371094 Z M 343.699219 94.335938 C 346.914062 95.367188 350.042969 96.679688 353.097656 98.117188 C 355.652344 101.65625 357.789062 105.480469 359.410156 109.417969 C 360.25 111.457031 360.925781 113.515625 361.515625 115.589844 C 357.59375 115.210938 354.230469 111.636719 350.96875 109.585938 C 347.667969 107.511719 344.195312 105.648438 340.597656 104.160156 C 333.210938 101.113281 324.667969 98.878906 316.667969 98.480469 C 312.039062 98.25 312.085938 91.617188 316.667969 91.320312 C 321.335938 91.019531 325.785156 90.808594 330.453125 91.429688 C 334.953125 92.019531 339.378906 92.945312 343.699219 94.335938 Z M 343.699219 94.335938 "/></g><path style=" stroke:none;fill-rule:nonzero;fill:#020201;fill-opacity:1;" d="M 83.609375 196.394531 C 81.417969 194.152344 77.207031 197.171875 79.148438 199.835938 C 84.214844 206.804688 91.238281 211.632812 99.175781 214.886719 C 100.96875 215.617188 103.53125 214.078125 103.859375 212.222656 C 106.4375 197.792969 107.6875 179.839844 121.046875 170.777344 C 122.609375 169.71875 124.273438 168.835938 126.011719 168.113281 C 126.363281 179.351562 121.382812 190.765625 111.703125 196.871094 C 107.554688 199.488281 109.667969 204.90625 114.027344 205.445312 C 123.84375 206.671875 131.707031 214.949219 133.585938 224.417969 C 134.339844 228.222656 140.429688 229.113281 142.121094 225.535156 C 147.078125 215.011719 153.5 205.34375 161.378906 196.785156 C 164.304688 193.617188 162.0625 189.210938 158.070312 188.800781 C 147.527344 187.730469 140.628906 177.8125 140.460938 167.832031 C 140.453125 167.21875 140.335938 166.683594 140.171875 166.203125 C 141.375 166.363281 142.574219 166.582031 143.761719 166.910156 C 151.496094 169.089844 156.421875 174.371094 161.113281 180.546875 C 163.492188 183.683594 169.734375 182.082031 168.136719 177.585938 C 163.132812 163.53125 148.117188 156.835938 133.941406 157.816406 C 128.988281 158.164062 124.140625 159.421875 119.867188 161.652344 C 116.316406 163.507812 113.304688 165.898438 110.726562 168.640625 C 101.652344 178.292969 98.101562 192.613281 96.820312 205.886719 C 91.8125 203.679688 87.539062 200.402344 83.609375 196.394531 Z M 149.789062 196.007812 C 148.707031 197.335938 147.660156 198.6875 146.628906 200.054688 C 146.230469 200.589844 140.777344 208.441406 138.71875 212 C 135.300781 206.351562 130.152344 201.894531 124.132812 199.136719 C 123.929688 199.042969 123.734375 198.929688 123.519531 198.84375 C 123.652344 198.703125 123.773438 198.546875 123.90625 198.40625 C 128.691406 193.132812 131.96875 186.601562 133.105469 179.652344 C 136.140625 186.945312 142.441406 192.917969 149.789062 196.007812 Z M 226.679688 178.542969 C 233.042969 171.824219 242.058594 165.605469 251.605469 163.132812 C 251.480469 169.207031 249.382812 175.101562 245.238281 179.628906 C 243.015625 182.058594 240.460938 184 237.476562 185.398438 C 234.476562 186.804688 231.246094 188.414062 229.941406 191.699219 C 226.78125 199.6875 237.121094 201.585938 241.671875 205.148438 C 246.835938 209.1875 250.285156 214.839844 251.722656 221.203125 C 252.46875 224.515625 257.113281 225.722656 259.390625 223.234375 C 267.429688 214.460938 275.46875 205.699219 283.507812 196.925781 C 286.046875 194.160156 284.710938 190.480469 281.464844 189.175781 C 276.011719 186.992188 271.359375 182.867188 268.226562 177.929688 C 265.035156 172.902344 264.1875 167.847656 263.421875 162.179688 C 265.347656 162.398438 267.257812 162.824219 269.136719 163.476562 C 283.972656 168.632812 289.566406 185.601562 293.976562 199.066406 C 295.113281 202.539062 299.679688 204.171875 302.398438 201.289062 C 307.074219 196.335938 310.933594 190.75 315.433594 185.65625 C 319.222656 181.367188 313.265625 175.273438 309.109375 179.328125 C 306.210938 182.160156 303.507812 185.160156 300.796875 188.164062 C 295.183594 173.710938 286.328125 159.273438 271.007812 154.628906 C 251.988281 148.859375 233.671875 160.828125 222.492188 175.304688 C 220.636719 177.726562 224.636719 180.714844 226.679688 178.542969 Z M 256.777344 176.320312 C 257.789062 178.707031 259 180.996094 260.351562 183.03125 C 263.636719 187.96875 267.832031 191.96875 272.757812 194.976562 C 271.847656 195.976562 270.945312 196.972656 270.03125 197.964844 C 269.820312 198.191406 261.757812 207.035156 257.929688 211.222656 C 256.164062 207.515625 253.773438 204.09375 250.875 201.164062 C 248.507812 198.773438 245.757812 196.652344 242.8125 195.03125 C 242.472656 194.84375 241.492188 194.253906 240.523438 193.742188 C 246.589844 190.726562 251.542969 186.773438 254.835938 180.707031 C 255.605469 179.304688 256.25 177.828125 256.777344 176.320312 Z M 138.324219 146.722656 C 137.476562 147.003906 136.5 146.957031 135.636719 146.25 C 131.410156 142.816406 129.640625 138.351562 129.289062 133.570312 C 128.660156 133.753906 127.976562 133.777344 127.230469 133.570312 C 125.296875 133.039062 123.652344 130.664062 124.441406 128.652344 C 125.949219 124.761719 128.410156 121.507812 131.511719 119.015625 C 131.769531 118.214844 132.03125 117.429688 132.304688 116.648438 C 136.722656 104.296875 143 92.601562 150.921875 82.140625 C 156.878906 74.273438 168.679688 60.558594 179.507812 69.257812 C 184.144531 72.984375 186.203125 79.898438 187.917969 85.371094 C 188.992188 88.804688 189.761719 92.285156 190.304688 95.816406 C 194.257812 90.140625 197.316406 83.75 202.769531 79.246094 C 210.21875 73.09375 220.847656 71.410156 227.984375 79.066406 C 234.703125 86.273438 235.730469 97.347656 236.390625 106.691406 C 237.265625 119.109375 236.070312 131.703125 232.800781 143.710938 C 232.425781 145.085938 231.628906 145.957031 230.671875 146.421875 C 227.8125 147.796875 223.472656 145.480469 224.378906 141.382812 C 226.609375 131.339844 227.75 121.152344 227.441406 110.851562 C 227.378906 108.6875 227.308594 106.332031 227.160156 103.933594 C 226.765625 97.75 225.761719 91.195312 222.367188 86.445312 C 216.96875 78.886719 208.433594 84.96875 204.324219 90.621094 C 201.753906 94.148438 199.632812 97.914062 197.1875 101.417969 C 194.957031 104.625 192.464844 107.613281 189.09375 109.976562 C 186.34375 111.917969 182.421875 109.324219 182.488281 106.1875 C 182.542969 103.578125 182.414062 100.980469 182.140625 98.402344 C 181.84375 95.617188 181.371094 92.859375 180.695312 90.132812 C 179.632812 85.832031 178.171875 78.777344 174.636719 75.757812 C 170.273438 72.03125 164.175781 77.761719 159.589844 83.445312 C 159.511719 83.539062 159.4375 83.632812 159.367188 83.71875 C 156.917969 86.792969 154.914062 89.808594 153.898438 91.265625 C 150.984375 95.453125 148.359375 99.847656 145.980469 104.367188 C 144.25 107.636719 142.640625 110.960938 141.199219 114.371094 C 148.070312 112.816406 155.3125 114.300781 160.78125 118.820312 C 163.1875 120.808594 160.058594 124.636719 157.507812 123.0625 C 155.273438 121.679688 152.609375 120.894531 150.347656 120.769531 C 149.609375 120.730469 148.871094 120.730469 148.132812 120.769531 C 147.824219 120.785156 147.511719 120.816406 147.203125 120.839844 C 147.078125 120.847656 146.960938 120.863281 146.84375 120.878906 C 146.828125 120.878906 146.796875 120.886719 146.695312 120.902344 C 145.34375 121.128906 144.015625 121.40625 142.710938 121.820312 C 142.355469 121.941406 142.003906 122.066406 141.648438 122.191406 C 141.546875 122.230469 141.382812 122.292969 141.273438 122.339844 C 140.628906 122.632812 139.992188 122.945312 139.371094 123.300781 C 138.773438 123.636719 138.207031 124.007812 137.640625 124.390625 C 137.554688 124.453125 137.46875 124.519531 137.382812 124.574219 C 135.511719 130.875 134.59375 138.191406 139.480469 142.398438 C 141.296875 143.96875 140.101562 146.140625 138.324219 146.722656 Z M 291.128906 142.59375 C 291.21875 141.558594 291.296875 140.542969 291.296875 139.578125 C 291.304688 134.875 291.011719 130.144531 290.296875 125.492188 C 289.574219 120.800781 288.539062 116.125 287.105469 111.597656 C 285.90625 107.792969 284.648438 104.773438 281.75 101.960938 C 280.984375 101.230469 280.820312 100.199219 281.058594 99.257812 C 281.433594 97.75 282.847656 96.484375 284.5625 97.121094 C 285.859375 97.597656 287.027344 98.273438 288.089844 99.078125 C 294.636719 104.003906 297.046875 114.324219 298.800781 121.648438 C 300.128906 127.214844 300.984375 132.902344 301.410156 138.609375 C 301.707031 142.625 302.4375 147.695312 300.992188 151.679688 C 300.542969 152.921875 299.898438 154.0625 298.941406 155.027344 C 296.945312 157.046875 293.871094 156.371094 292.386719 154.179688 C 292.050781 153.675781 291.773438 153.148438 291.554688 152.601562 C 291.453125 152.347656 291.40625 152.074219 291.328125 151.8125 C 290.484375 148.984375 290.863281 145.691406 291.128906 142.59375 Z M 91.996094 105.640625 C 94.265625 101.550781 96.875 97.636719 99.75 93.882812 C 99.835938 93.761719 99.921875 93.644531 100.007812 93.527344 C 100.90625 92.363281 102.3125 92.515625 103.355469 93.238281 C 104.511719 94.03125 105.226562 95.53125 104.277344 96.820312 C 102.664062 99.015625 101.210938 101.300781 99.867188 103.652344 C 95.367188 111.566406 92.363281 120.296875 90.730469 129.28125 C 88.5625 141.234375 90.148438 152.542969 92.128906 164.367188 C 92.9375 169.214844 86.542969 170.984375 84.789062 166.394531 C 80.238281 154.492188 80.960938 140.164062 83.554688 127.882812 C 85.230469 119.984375 88.136719 112.570312 91.996094 105.640625 Z M 21.234375 189.601562 C 20.1875 191.574219 17.753906 192.917969 15.664062 191.378906 C 0.175781 179.941406 5.039062 158.675781 12.210938 143.796875 C 16.621094 134.640625 22.382812 126.175781 29.125 118.582031 C 35.777344 111.09375 43.257812 105.332031 51.792969 100.269531 C 45.46875 89.945312 46.542969 75.695312 49.585938 64.496094 C 55.824219 41.523438 74.449219 18.5 97.265625 10.453125 C 108.746094 6.40625 121.871094 8.070312 131.753906 15.300781 C 138.175781 20.003906 143.15625 26.847656 143.675781 34.652344 C 165.632812 31.234375 189.730469 33.144531 209.808594 42.867188 C 209.957031 42.9375 210.082031 43.03125 210.21875 43.117188 C 217.988281 40.894531 225.972656 39.808594 233.964844 39.652344 C 264.25 39.078125 294.605469 52.746094 313.988281 76.339844 C 316.191406 79.019531 312.464844 82.886719 310.117188 80.207031 C 285.753906 52.34375 245.625 41.425781 210.148438 51.125 C 208.238281 51.644531 206.792969 50.8125 206.011719 49.53125 C 194.367188 45.554688 182.667969 42.191406 170.339844 41.222656 C 160.5 40.453125 150.695312 41.027344 141.128906 42.738281 C 140.707031 42.890625 140.25 42.960938 139.785156 42.953125 C 109.46875 48.746094 81.820312 66.4375 64.390625 92.546875 C 62.621094 95.195312 58.355469 92.75 60.089844 90.03125 C 66.464844 80.023438 74.234375 70.84375 83.136719 63 C 90.941406 56.117188 99.703125 50.324219 109.046875 45.703125 C 109.429688 45.515625 109.824219 45.339844 110.21875 45.152344 C 118.328125 41.246094 126.851562 38.203125 135.621094 36.222656 C 135.882812 29.882812 130.992188 24.371094 125.578125 20.921875 C 124.816406 20.433594 124.046875 19.988281 123.277344 19.585938 C 122.445312 19.152344 121.617188 18.769531 120.800781 18.4375 C 117.894531 17.273438 114.988281 16.679688 112.101562 16.464844 C 109.03125 16.246094 105.980469 16.511719 102.996094 17.195312 C 89.054688 20.363281 76.363281 32.230469 68.289062 43.148438 C 62.402344 51.109375 57.867188 60.101562 55.597656 69.769531 C 53.394531 79.144531 52.257812 91.917969 58.191406 100.175781 C 59.46875 101.960938 57.695312 104.035156 55.894531 104.160156 C 55.761719 104.304688 55.675781 104.460938 55.503906 104.585938 C 51.996094 107.226562 48.601562 110.085938 45.359375 113.144531 C 42.035156 116.273438 38.875 119.597656 35.898438 123.085938 C 30.285156 129.664062 25.359375 136.808594 21.421875 144.316406 C 15.355469 155.871094 8.378906 174.898438 20.542969 185.066406 C 22.019531 186.316406 22.011719 188.132812 21.234375 189.601562 Z M 366.253906 172.664062 C 365.742188 174.316406 364.539062 175.101562 363.265625 175.21875 C 361.074219 175.421875 358.667969 173.617188 359.25 170.730469 C 362.875 152.757812 366.613281 133.53125 361.523438 115.582031 C 360.933594 113.507812 360.257812 111.449219 359.417969 109.410156 C 357.796875 105.472656 355.660156 101.648438 353.105469 98.109375 C 347.054688 89.738281 338.601562 83.050781 328.652344 80.707031 C 326.390625 83.6875 320.441406 82.777344 319.859375 78.132812 C 319.65625 77.605469 319.617188 77.039062 319.710938 76.480469 C 319.011719 65.714844 317.273438 55.660156 312.363281 45.890625 C 307.152344 35.523438 300.417969 26.203125 290.375 20.042969 C 280.867188 14.21875 269.75 12.160156 258.992188 15.484375 C 249.035156 18.554688 240.351562 25.929688 237.40625 36.128906 C 236.972656 37.640625 235.785156 38.164062 234.632812 38.054688 C 233.132812 37.90625 231.683594 36.617188 232.0625 34.660156 C 234.082031 24.089844 241.289062 15.40625 250.636719 10.328125 C 269.625 0.0078125 291.773438 6.742188 306.53125 21.21875 C 321.132812 35.539062 328.21875 55.148438 329.382812 75.175781 C 345.191406 78.304688 358.488281 90.023438 365.347656 104.625 C 365.664062 105.285156 365.921875 105.96875 366.214844 106.636719 C 366.597656 107.542969 366.984375 108.453125 367.328125 109.371094 C 374.847656 129.421875 372.453125 152.625 366.253906 172.664062 Z M 351.425781 213.226562 C 356.59375 235.546875 355.171875 259.394531 346.773438 280.757812 C 339.574219 299.054688 323.789062 312.539062 308.046875 323.542969 C 303.429688 326.773438 298.691406 329.816406 293.863281 332.722656 C 293.746094 332.792969 293.636719 332.871094 293.519531 332.941406 C 293.582031 332.832031 293.636719 332.714844 293.707031 332.605469 C 296.558594 327.828125 299.035156 322.789062 301.289062 317.90625 C 306.078125 307.566406 309.949219 296.804688 313.101562 285.847656 C 319.230469 264.535156 322.742188 242.339844 323.6875 220.175781 C 323.703125 219.765625 323.632812 219.421875 323.511719 219.105469 C 326.820312 202.328125 330.632812 185.679688 335.550781 169.230469 C 336.195312 167.078125 334.339844 165.695312 332.605469 165.804688 C 331.558594 165.867188 330.5625 166.464844 330.167969 167.753906 C 323.066406 191.03125 316.875 214.847656 313.289062 238.945312 C 313.125 240.027344 313.46875 240.933594 314.042969 241.625 C 314.144531 242.253906 314.195312 242.867188 314.265625 243.488281 C 314.773438 248.140625 314.460938 252.578125 313.390625 256.730469 C 310.65625 267.394531 303.160156 276.277344 293.078125 282.648438 C 284.5625 288.035156 275.28125 290.988281 265.246094 291.789062 C 259.871094 292.214844 254.480469 292.246094 249.082031 292.160156 C 259.4375 283.40625 264.894531 270.136719 262.023438 256.15625 C 258.464844 238.777344 242.8125 226 226.570312 220.835938 C 205.722656 214.210938 181.285156 218.910156 161.984375 228.285156 C 145.183594 236.453125 133.019531 252.800781 130.96875 271.503906 C 130.222656 278.3125 131.222656 285.464844 134.449219 291.5625 C 136.046875 294.582031 138.191406 297.097656 140.699219 299.179688 C 125.203125 297.457031 108.015625 295.894531 95.507812 285.953125 C 91.6875 282.917969 88.277344 278.933594 85.777344 274.484375 C 84.433594 272.085938 83.351562 269.554688 82.628906 266.953125 C 80.953125 260.957031 81.144531 254.609375 84.246094 248.800781 C 84.253906 248.785156 84.253906 248.777344 84.261719 248.761719 C 84.578125 248.148438 84.609375 247.574219 84.480469 247.046875 C 85.433594 246.394531 86.046875 245.269531 85.691406 243.839844 C 81.890625 228.300781 74.824219 213.949219 65.035156 201.328125 C 64.625 197.148438 64.304688 192.957031 64.058594 188.769531 C 63.800781 184.3125 63.628906 179.863281 63.574219 175.421875 C 63.53125 171.902344 58.148438 171.894531 58.101562 175.421875 C 57.546875 213.980469 63.699219 252.085938 78.375 287.492188 C 78.503906 287.789062 78.628906 288.082031 78.753906 288.378906 C 81.589844 295.15625 84.710938 301.851562 88.199219 308.414062 C 92.960938 317.390625 98.25 326.113281 104.070312 334.453125 C 98.101562 332.519531 92.042969 330.820312 86.203125 328.480469 C 76.484375 324.582031 67.769531 318.417969 61.457031 310 C 46.332031 289.816406 37.890625 263.199219 35.566406 238.300781 C 34.222656 223.871094 34.789062 209.25 37.367188 194.984375 C 37.640625 193.476562 36.769531 192.375 35.660156 191.875 C 34.261719 191.238281 32.476562 191.589844 32.085938 193.53125 C 26.679688 220.128906 28.0625 247.894531 36.03125 273.855469 C 43.242188 297.363281 55.03125 322.191406 77.898438 333.816406 C 87.390625 338.640625 97.574219 340.898438 107.664062 344.023438 C 109.101562 344.472656 110.265625 344.144531 111.097656 343.425781 C 114.578125 345.402344 119.757812 341.839844 116.945312 338.011719 C 105.746094 322.734375 96.246094 306.542969 88.488281 289.597656 C 88.664062 289.761719 88.820312 289.945312 89 290.109375 C 101.785156 301.945312 119.820312 305.238281 136.847656 306.488281 C 132.613281 313.058594 133.367188 321.59375 137.066406 328.535156 C 138.984375 332.132812 141.664062 335.011719 144.785156 337.3125 C 143.472656 338.375 142.519531 339.765625 141.875 341.351562 C 141.515625 342.25 141.351562 343.207031 141.289062 344.167969 C 141.265625 344.535156 141.273438 344.90625 141.3125 345.273438 C 141.359375 345.675781 141.375 346.101562 141.492188 346.484375 C 141.617188 346.878906 141.796875 347.253906 141.972656 347.632812 C 142.230469 348.207031 143.046875 348.789062 143.644531 348.921875 C 144.273438 349.0625 144.878906 349.03125 145.476562 348.78125 C 145.796875 348.644531 146.097656 348.433594 146.355469 348.183594 C 146.527344 348.019531 146.703125 347.84375 146.820312 347.632812 C 147.15625 346.988281 147.210938 346.351562 147.109375 345.644531 C 147.078125 345.410156 147.039062 345.179688 147 344.945312 C 146.953125 344.527344 146.976562 344.121094 147.007812 343.703125 C 147.070312 343.378906 147.15625 343.058594 147.265625 342.75 C 147.402344 342.476562 147.558594 342.21875 147.730469 341.964844 C 147.941406 341.722656 148.164062 341.496094 148.40625 341.289062 C 148.4375 341.265625 148.476562 341.242188 148.507812 341.21875 C 148.917969 340.960938 149.230469 340.582031 149.46875 340.15625 C 153.105469 341.972656 157.082031 343.207031 161.128906 343.898438 C 167.289062 344.953125 173.652344 344.820312 179.886719 344.730469 C 183.289062 344.683594 183.257812 339.65625 179.886719 339.464844 C 173.84375 339.136719 167.894531 338.640625 161.96875 337.34375 C 159.15625 336.730469 156.296875 335.828125 153.625 334.570312 C 153.230469 334.382812 152.855469 334.167969 152.46875 333.957031 C 150.75 333.046875 149.105469 332.007812 147.699219 330.671875 C 147.0625 330.066406 146.457031 329.382812 145.882812 328.667969 C 145.058594 327.628906 144.320312 326.492188 143.683594 325.28125 C 140.832031 319.855469 140.1875 313.152344 144.375 308.632812 C 144.910156 308.050781 145.199219 307.429688 145.320312 306.808594 C 146.011719 306.644531 146.550781 306.308594 146.945312 305.851562 C 149.375 305.835938 151.800781 305.835938 154.230469 305.765625 C 154.378906 305.804688 154.527344 305.851562 154.675781 305.890625 C 155.414062 306.0625 156.035156 305.929688 156.570312 305.664062 C 156.757812 305.65625 156.941406 305.640625 157.121094 305.632812 C 157.339844 305.625 157.554688 305.609375 157.773438 305.601562 C 164.019531 305.363281 170.257812 304.980469 176.492188 304.539062 C 176.6875 304.523438 177.292969 304.46875 177.089844 304.492188 C 176.804688 304.523438 178.21875 304.414062 179.484375 304.320312 C 180.066406 304.273438 180.640625 304.234375 181.222656 304.191406 C 182.164062 304.121094 183.105469 304.058594 184.042969 303.988281 C 185.175781 303.902344 186.304688 303.832031 187.4375 303.738281 C 187.484375 303.738281 187.53125 303.730469 187.585938 303.730469 C 187.585938 303.730469 187.59375 303.730469 187.59375 303.730469 C 187.59375 303.730469 187.59375 303.730469 187.601562 303.730469 C 187.757812 303.714844 187.917969 303.707031 188.074219 303.699219 C 190.226562 303.53125 192.371094 303.34375 194.523438 303.171875 C 194.367188 303.613281 194.257812 304.074219 194.234375 304.5625 C 194.234375 304.679688 194.226562 304.804688 194.210938 304.925781 C 194.164062 305.152344 194.132812 305.417969 194.085938 305.601562 C 194.023438 305.859375 193.953125 306.109375 193.871094 306.363281 C 193.847656 306.449219 193.667969 306.875 193.628906 307.007812 C 193.574219 307.117188 193.519531 307.21875 193.503906 307.25 C 193.355469 307.535156 193.195312 307.808594 193.023438 308.074219 C 192.898438 308.28125 192.757812 308.476562 192.617188 308.671875 C 192.566406 308.726562 192.503906 308.796875 192.417969 308.894531 C 192.027344 309.332031 191.609375 309.726562 191.167969 310.121094 C 191.128906 310.160156 191.113281 310.167969 191.089844 310.199219 C 191.050781 310.222656 191.019531 310.238281 190.964844 310.277344 C 190.699219 310.449219 190.4375 310.621094 190.15625 310.78125 C 189.929688 310.914062 189.691406 311.03125 189.457031 311.148438 C 189.402344 311.179688 189.355469 311.195312 189.300781 311.21875 C 188.710938 311.414062 188.128906 311.589844 187.515625 311.714844 C 187.460938 311.722656 187.46875 311.730469 187.4375 311.738281 C 187.421875 311.738281 187.4375 311.730469 187.390625 311.730469 C 187.074219 311.722656 186.753906 311.761719 186.4375 311.761719 C 186.171875 311.761719 185.914062 311.738281 185.652344 311.730469 C 185.582031 311.730469 185.550781 311.730469 185.511719 311.722656 C 185.464844 311.707031 185.425781 311.699219 185.339844 311.683594 C 184.765625 311.558594 184.207031 311.433594 183.648438 311.242188 C 183.5 311.195312 183.351562 311.140625 183.203125 311.085938 C 183.460938 311.203125 183.476562 311.210938 183.265625 311.117188 C 183.019531 311.015625 182.769531 310.90625 182.535156 310.796875 C 182.25 310.660156 181.953125 310.519531 181.683594 310.355469 C 181.691406 310.355469 181.300781 310.078125 181.214844 310.023438 C 180.820312 309.71875 180.460938 309.371094 180.113281 309.011719 C 179.289062 308.144531 178.769531 307.445312 178.21875 306.246094 C 177.984375 305.734375 177.621094 305.425781 177.222656 305.222656 C 177.199219 305.207031 177.175781 305.199219 177.152344 305.183594 C 177.074219 305.144531 177.007812 305.097656 176.929688 305.066406 C 175.1875 304.46875 172.75 306.101562 173.371094 308.289062 C 175.195312 314.6875 181.738281 319.542969 188.496094 318.984375 C 195.492188 318.410156 201.894531 312.824219 202.871094 305.742188 C 203.035156 304.5625 203.003906 303.582031 202.5 302.519531 C 212.769531 301.671875 223.035156 300.773438 233.28125 299.707031 C 233.792969 299.648438 234.238281 299.507812 234.648438 299.320312 C 235.867188 299.367188 237.074219 299.414062 238.292969 299.46875 C 240.234375 301.152344 241.46875 303.273438 242.191406 305.578125 C 242.324219 305.992188 242.464844 306.402344 242.5625 306.824219 C 243.511719 311.203125 242.570312 316.101562 240.132812 320.085938 C 234.828125 328.785156 223.789062 332.605469 214.734375 335.929688 C 211.332031 337.179688 212.683594 342.546875 216.253906 341.445312 C 223.457031 339.214844 231.332031 336.667969 237.796875 332.363281 C 237.820312 332.441406 237.796875 332.527344 237.832031 332.605469 C 239.085938 335.976562 240.226562 339.355469 241.28125 342.792969 C 241.789062 344.472656 242.410156 346.132812 243.007812 347.78125 C 243.667969 349.644531 244.429688 351.664062 245.46875 353.355469 C 245.6875 353.707031 245.964844 354 246.269531 354.257812 C 247.308594 355.136719 248.753906 355.414062 250.066406 354.863281 C 251.792969 354.132812 252.601562 352.332031 252.195312 350.515625 C 251.761719 348.574219 250.882812 346.617188 250.066406 344.8125 C 249.34375 343.214844 248.636719 341.589844 247.839844 340.023438 C 246.207031 336.824219 244.691406 333.609375 243.253906 330.316406 C 243 329.746094 242.480469 329.375 241.902344 329.148438 C 243.960938 327.285156 245.8125 325.195312 247.285156 322.71875 C 251.320312 315.941406 252.375 306.730469 248.746094 299.847656 C 255.660156 300.011719 262.566406 299.910156 269.464844 298.949219 C 280.308594 297.441406 290.414062 293.449219 299.269531 286.988281 C 302.839844 284.386719 305.972656 281.441406 308.675781 278.226562 C 308.175781 280.015625 307.679688 281.816406 307.136719 283.601562 C 303.96875 294.148438 300.160156 304.53125 295.398438 314.464844 C 290.925781 323.792969 285.199219 332.085938 279.6875 340.777344 C 277.726562 343.882812 282.21875 347.324219 284.757812 344.691406 C 284.90625 344.535156 285.046875 344.363281 285.199219 344.207031 C 294.304688 339.757812 303.261719 334.78125 311.789062 329.164062 C 315.457031 326.742188 319.027344 324.195312 322.507812 321.53125 C 326.929688 318.144531 331.207031 314.566406 335.238281 310.738281 C 342.246094 304.089844 348.523438 296.316406 352.53125 287.476562 C 357.554688 276.394531 360.742188 264.691406 362.199219 252.621094 C 363.878906 238.691406 362.753906 224.671875 359.1875 211.121094 C 358.636719 209.03125 356.996094 208.199219 355.363281 208.277344 C 353.042969 208.363281 350.742188 210.289062 351.425781 213.226562 Z M 79.824219 246.230469 C 77.75 249.648438 76.539062 253.304688 76.019531 257.035156 C 71.769531 243.289062 68.585938 229.144531 66.550781 214.65625 C 66.449219 213.917969 66.371094 213.171875 66.277344 212.433594 C 72.460938 222.652344 77.039062 233.796875 79.742188 245.460938 C 79.800781 245.6875 79.917969 245.835938 80.003906 246.023438 C 79.949219 246.105469 79.878906 246.144531 79.824219 246.230469 Z M 237.5 289.746094 C 236.488281 290.296875 235.898438 291.058594 235.613281 291.894531 C 235 291.507812 234.222656 291.320312 233.257812 291.429688 C 206.726562 294.636719 180.089844 297.121094 153.46875 299.476562 C 142.820312 295.539062 136.863281 286.492188 137.273438 274.734375 C 137.59375 265.667969 141.152344 256.753906 146.6875 249.390625 C 148.265625 247.289062 150 245.316406 151.871094 243.503906 C 154.277344 241.167969 156.894531 239.085938 159.675781 237.339844 C 167.714844 232.316406 177.074219 229.300781 186.25 227.171875 C 195.882812 224.9375 206.042969 224.003906 215.859375 225.542969 C 231.332031 227.980469 246.898438 237.113281 252.832031 252.242188 C 258.796875 267.433594 251.195312 282.265625 237.5 289.746094 Z M 147.070312 345.449219 C 147.078125 345.488281 147.070312 345.527344 147.078125 345.566406 C 147.0625 345.425781 147.039062 345.28125 147.023438 345.140625 C 147.03125 345.242188 147.054688 345.34375 147.070312 345.449219 Z M 147.117188 345.902344 C 147.101562 345.808594 147.085938 345.714844 147.078125 345.628906 C 147.078125 345.613281 147.078125 345.589844 147.078125 345.574219 C 147.09375 345.675781 147.109375 345.785156 147.117188 345.902344 Z M 270.253906 120.335938 C 272.53125 123.09375 268.902344 126.929688 266.261719 124.328125 C 262.859375 120.988281 258.765625 118.679688 254.324219 117.292969 C 249.703125 115.855469 245.367188 115.535156 240.28125 115.582031 C 236.195312 115.621094 235.277344 109.332031 239.316406 108.414062 C 250.773438 105.804688 262.945312 111.503906 270.253906 120.335938 Z M 93.164062 265.539062 C 92.945312 264.746094 93.140625 264.109375 93.449219 263.386719 C 94.625 260.597656 95.8125 257.8125 96.992188 255.023438 C 97.117188 254.71875 97.25 254.410156 97.378906 254.105469 C 97.464844 253.910156 97.542969 253.703125 97.628906 253.507812 C 97.777344 253.152344 97.925781 252.808594 98.078125 252.453125 C 98.289062 252.148438 98.523438 251.847656 98.777344 251.574219 C 98.988281 251.339844 99.277344 251.132812 99.59375 250.96875 C 99.703125 250.914062 99.8125 250.875 99.921875 250.828125 C 100.667969 250.511719 101.527344 250.394531 102.195312 250.671875 C 102.164062 250.679688 102.132812 250.6875 102.101562 250.695312 C 102.429688 250.773438 102.746094 250.867188 103.035156 251.023438 C 104.464844 251.777344 104.960938 253.515625 104.652344 254.992188 C 104.417969 256.148438 103.515625 257.296875 102.917969 258.308594 C 102.398438 259.183594 101.886719 260.0625 101.367188 260.941406 C 100.339844 262.695312 99.300781 264.449219 98.273438 266.199219 C 97.480469 267.542969 95.796875 267.90625 94.453125 267.199219 C 93.847656 266.890625 93.347656 266.191406 93.164062 265.539062 Z M 115.082031 269.257812 C 114.949219 269.691406 114.710938 270.035156 114.429688 270.34375 C 113.855469 270.957031 113.039062 271.246094 112.15625 271.167969 C 112.023438 271.152344 111.890625 271.183594 111.757812 271.152344 C 110.328125 270.828125 109.503906 269.195312 109.871094 267.828125 C 110.179688 266.695312 110.40625 265.554688 110.632812 264.402344 C 110.679688 264.15625 110.726562 263.90625 110.78125 263.660156 C 110.839844 263.402344 111.027344 262.929688 110.980469 262.679688 C 110.941406 263.050781 110.933594 263.121094 110.957031 262.890625 C 110.972656 262.773438 110.988281 262.648438 111.003906 262.53125 C 111.066406 262.027344 111.144531 261.554688 111.246094 261.066406 C 111.480469 259.960938 111.710938 258.859375 111.945312 257.75 C 112.0625 257.179688 112.832031 254.105469 113.621094 253.28125 C 115.378906 251.425781 119.011719 252.226562 119.542969 254.84375 C 119.71875 255.683594 119.78125 256.40625 119.511719 257.242188 C 119.433594 257.476562 119.339844 257.710938 119.253906 257.949219 C 119.058594 258.5 118.851562 259.046875 118.65625 259.597656 C 118.273438 260.660156 117.886719 261.71875 117.5 262.789062 C 117.335938 263.246094 117.164062 263.691406 116.96875 264.140625 C 116.921875 264.25 116.863281 264.363281 116.816406 264.472656 C 116.597656 264.941406 116.441406 265.46875 116.261719 265.949219 C 115.828125 267.042969 115.417969 268.132812 115.082031 269.257812 Z M 281.992188 245.789062 C 282.03125 246.105469 282.078125 246.417969 282.117188 246.734375 C 282.117188 247.378906 281.953125 247.972656 281.628906 248.53125 C 281.066406 249.828125 280.5 251.132812 279.933594 252.429688 C 279.65625 253.066406 279.382812 253.703125 279.101562 254.339844 C 278.714844 255.222656 278.257812 255.921875 277.652344 256.683594 C 277.8125 256.476562 277.96875 256.273438 278.132812 256.0625 C 277.882812 256.46875 277.628906 256.878906 277.378906 257.289062 C 276.640625 258.484375 275.1875 258.96875 273.898438 258.425781 C 272.5625 257.863281 272.011719 256.511719 272.28125 255.132812 C 272.375 254.664062 272.46875 254.183594 272.5625 253.710938 C 272.523438 253.980469 272.492188 254.253906 272.453125 254.519531 C 272.570312 252.847656 273.167969 251.371094 273.710938 249.804688 C 274.179688 248.46875 274.644531 247.125 275.117188 245.789062 C 275.492188 244.710938 276.113281 243.925781 277.175781 243.480469 C 278.09375 243.09375 278.996094 243.09375 279.917969 243.480469 C 280.90625 243.894531 281.75 244.71875 281.992188 245.789062 Z M 299.765625 245.710938 C 299.367188 247.09375 298.523438 248.421875 297.800781 249.664062 C 297.179688 250.726562 296.566406 251.777344 295.949219 252.839844 C 295.328125 253.902344 294.675781 254.929688 294.023438 255.96875 C 293.621094 256.621094 293.238281 257.3125 292.710938 257.871094 C 292.585938 257.972656 292.464844 258.074219 292.347656 258.191406 C 292.339844 258.199219 292.339844 258.199219 292.332031 258.207031 C 292.136719 258.484375 291.941406 258.757812 291.742188 259.039062 C 290.863281 260.28125 289.425781 260.753906 288.027344 260.015625 C 287.4375 259.699219 286.949219 259.015625 286.777344 258.386719 C 286.566406 257.617188 286.753906 256.996094 287.050781 256.289062 C 287.1875 255.976562 287.335938 255.667969 287.453125 255.347656 C 287.59375 255.039062 287.585938 255.03125 287.429688 255.332031 C 287.46875 255.171875 287.5 255.007812 287.515625 254.84375 C 287.703125 254.113281 288.144531 253.398438 288.472656 252.722656 C 289.015625 251.621094 289.550781 250.511719 290.125 249.429688 C 290.699219 248.34375 291.273438 247.257812 291.84375 246.183594 C 292.519531 244.902344 293.214844 243.542969 294.1875 242.464844 C 295.199219 241.339844 296.960938 241.269531 298.226562 241.945312 C 299.523438 242.628906 300.160156 244.351562 299.765625 245.710938 Z M 299.765625 245.710938 "/></g></svg>