<svg xmlns="http://www.w3.org/2000/svg" xmlns:xlink="http://www.w3.org/1999/xlink" width="500" zoomAndPan="magnify" viewBox="0 0 375 374.999991" height="500" preserveAspectRatio="xMidYMid meet" version="1.2"><defs><clipPath id="55a82f6319"><path d="M 1 32 L 374 32 L 374 354.75 L 1 354.75 Z M 1 32 "/></clipPath><clipPath id="a74d5dd0a9"><path d="M 70 110 L 294 110 L 294 354.75 L 70 354.75 Z M 70 110 "/></clipPath><clipPath id="9fa2c50567"><path d="M 1 32 L 374 32 L 374 354.75 L 1 354.75 Z M 1 32 "/></clipPath></defs><g id="04f8120528"><g clip-rule="nonzero" clip-path="url(#55a82f6319)"><path style=" stroke:none;fill-rule:nonzero;fill:#f0816a;fill-opacity:1;" d="M 367.878906 250.800781 C 363.453125 253.980469 358.714844 257.289062 353.148438 257.875 C 347.996094 258.421875 343.015625 256.558594 338.625 254.019531 C 331.375 249.824219 326.628906 245.113281 324.429688 236.972656 C 322.355469 229.300781 322.226562 221.152344 322.378906 213.253906 C 322.535156 204.828125 323.152344 196.386719 323.746094 187.984375 C 324.210938 181.433594 324.832031 174.644531 323.917969 168.085938 C 329.8125 168.265625 335.738281 168.28125 341.636719 168.296875 C 342.621094 168.296875 343.414062 168.0625 344.070312 167.695312 C 345.828125 169.722656 349.746094 169.25 350.355469 166.339844 C 351.46875 160.988281 348.597656 154.234375 346.59375 149.339844 C 344.460938 144.117188 341.867188 139.027344 338.535156 134.46875 C 334.882812 129.460938 330.664062 124.984375 326.011719 120.992188 C 333.394531 113.875 334.996094 102.722656 333.726562 92.875 C 332.320312 81.964844 327.351562 71.785156 320.734375 63.097656 C 313.957031 54.199219 305.410156 46.421875 296.03125 40.339844 C 286.882812 34.410156 274.894531 29.992188 264.027344 33.488281 C 255.382812 36.269531 247.34375 43.792969 246.863281 52.996094 C 236.515625 48.945312 225.464844 46.675781 214.515625 46.894531 C 203.574219 47.113281 192.789062 50.125 184.398438 57.304688 C 184.375 56.28125 183.863281 55.3125 182.707031 55.125 C 168.625 52.816406 154.867188 52.800781 141.0625 55.636719 C 138.363281 48.609375 131.449219 42.695312 124.972656 39.824219 C 114.683594 35.253906 103.101562 36.808594 92.960938 40.996094 C 83.273438 44.992188 74.449219 51.082031 67.296875 58.753906 C 60.464844 66.082031 53.777344 75.460938 53.148438 85.796875 C 52.734375 92.574219 56.390625 99.976562 62.152344 103.261719 C 50.640625 106.292969 39.890625 112.492188 31.132812 120.421875 C 24.871094 126.09375 19.484375 132.851562 15.519531 140.320312 C 12.085938 146.800781 8.015625 156.78125 15.730469 161.90625 C 17.269531 162.929688 18.957031 162.042969 19.746094 160.6875 C 20.804688 161.222656 21.992188 161.394531 23.082031 160.980469 C 23.441406 161.164062 23.832031 161.320312 24.285156 161.402344 C 31.195312 162.703125 38.179688 163.785156 45.203125 164.753906 C 45.277344 165.402344 45.390625 166.046875 45.464844 166.703125 C 44.625 166.949219 43.960938 167.640625 44.039062 168.8125 C 45.359375 188.460938 51.699219 207.414062 51.78125 227.21875 C 51.824219 237.121094 50.265625 246.726562 44.714844 255.121094 C 40.378906 261.667969 34.101562 265.691406 26.117188 264.320312 C 19.085938 263.121094 12.835938 259.308594 5.929688 257.648438 C 1.8125 256.65625 0.234375 262.488281 4.058594 263.960938 C 11.71875 277.511719 22.945312 289.851562 37.714844 295.488281 C 51.773438 300.855469 68.15625 297.730469 79.023438 287.15625 C 84.894531 281.441406 88.441406 273.875 87.953125 265.621094 C 94.699219 269.34375 102.140625 272.03125 109.183594 274.304688 C 118.972656 277.460938 128.992188 279.984375 139.136719 281.929688 C 137.277344 284.171875 136.222656 287.070312 136.074219 290.027344 C 135.878906 293.882812 137.3125 298.5625 140.722656 300.726562 C 139.949219 301.816406 139.242188 302.996094 138.636719 304.3125 C 134.324219 313.648438 133.746094 326.574219 137.457031 336.195312 C 141.460938 346.566406 151.066406 352.722656 161.796875 354.34375 C 163.554688 354.605469 164.699219 353.285156 164.75 351.953125 C 164.96875 352.015625 165.1875 352.050781 165.402344 352.113281 C 166.304688 352.585938 167.207031 352.992188 168.054688 353.269531 C 172.410156 354.71875 177.007812 354.148438 181.144531 352.375 C 183.332031 351.4375 185.285156 350.089844 187.050781 348.519531 C 187.6875 348.171875 188.339844 347.851562 188.933594 347.445312 C 193.117188 344.574219 196.21875 340.621094 198.046875 336.132812 C 198.21875 335.847656 198.34375 335.539062 198.441406 335.210938 C 198.472656 335.019531 198.554688 334.847656 198.601562 334.667969 C 198.730469 334.277344 198.863281 333.894531 198.976562 333.496094 C 198.992188 333.464844 199.007812 333.441406 199.015625 333.414062 C 199.292969 332.976562 199.441406 332.503906 199.464844 332 C 199.53125 331.707031 199.539062 331.414062 199.507812 331.121094 C 199.546875 330.917969 199.601562 330.722656 199.628906 330.519531 C 199.570312 330.984375 199.605469 331.460938 199.765625 331.902344 C 199.15625 333.367188 199.863281 335.433594 201.929688 335.433594 C 203.257812 335.433594 204 334.570312 204.226562 333.5625 C 206.320312 332.015625 207.71875 329.699219 208.597656 327.144531 C 209.234375 327.4375 209.941406 327.617188 210.714844 327.609375 C 213.703125 327.574219 216.777344 327.421875 219.757812 327.152344 C 220.375 327.09375 221.003906 327.003906 221.628906 326.882812 C 225.738281 326.988281 229.851562 326.964844 233.960938 326.808594 C 240.804688 326.542969 248.195312 326.722656 254.714844 324.476562 C 256.871094 323.734375 257.800781 322.050781 257.800781 320.351562 C 258.199219 320.570312 258.589844 320.792969 259.003906 320.976562 C 262.042969 322.289062 264.589844 319.074219 262.496094 316.441406 C 260.933594 314.472656 258.835938 313.046875 256.816406 311.566406 C 254.902344 310.167969 252.980469 308.792969 251.054688 307.410156 C 248.832031 305.816406 246.585938 304.273438 244.339844 302.710938 C 248.238281 302.546875 252.152344 301.960938 255.1875 299.816406 C 259.398438 296.84375 261.480469 291.0625 259.785156 286.109375 C 258.851562 283.390625 256.929688 281.132812 254.527344 279.714844 C 261.144531 278.089844 267.667969 276.152344 274.082031 273.84375 C 274.953125 274.296875 276 274.40625 276.976562 273.898438 C 280.714844 271.941406 284.578125 269.238281 287.867188 265.992188 C 294.007812 279.609375 309.371094 287.6875 324.164062 287.558594 C 344.152344 287.386719 361.734375 273.800781 372.640625 258.007812 C 373.121094 257.308594 373.25 256.582031 373.15625 255.890625 C 374.742188 252.851562 371.136719 248.457031 367.878906 250.800781 Z M 367.878906 250.800781 "/></g><path style=" stroke:none;fill-rule:nonzero;fill:#6699cc;fill-opacity:1;" d="M 266.601562 176.058594 C 266.476562 175.804688 266.324219 175.5625 266.191406 175.316406 C 266.421875 175.488281 266.648438 175.667969 266.867188 175.855469 C 266.769531 175.914062 266.6875 175.992188 266.601562 176.058594 Z M 187.53125 132.980469 C 187.628906 132.601562 187.726562 132.226562 187.839844 131.84375 C 187.703125 131.820312 187.582031 131.769531 187.453125 131.730469 C 187.484375 132.144531 187.507812 132.566406 187.53125 132.980469 Z M 71.527344 99.859375 C 71.984375 99.84375 72.351562 99.96875 72.683594 100.160156 C 72.75 99.957031 72.789062 99.746094 72.921875 99.542969 C 78.03125 91.703125 84.40625 84.917969 91.679688 79.0625 C 104.054688 69.089844 118.589844 61.625 133.902344 57.371094 C 132.304688 54.679688 130.652344 52.117188 128.066406 49.925781 C 124.355469 46.773438 119.738281 44.753906 114.902344 44.167969 C 103.941406 42.828125 92.796875 47.660156 83.84375 53.597656 C 75.289062 59.273438 67.613281 67.140625 62.835938 76.28125 C 60.441406 80.867188 58.636719 86.691406 60.476562 91.777344 C 62.152344 96.429688 66.472656 100.039062 71.527344 99.859375 Z M 228.882812 169.128906 C 228.507812 168.964844 228.148438 168.777344 227.765625 168.640625 C 227.914062 168.769531 228.082031 168.886719 228.238281 169.007812 C 228.582031 169.089844 228.847656 169.144531 228.882812 169.128906 Z M 72.554688 176.886719 C 72.691406 177.296875 72.8125 177.710938 72.9375 178.125 C 72.902344 177.800781 72.871094 177.480469 72.832031 177.164062 C 72.742188 177.082031 72.652344 176.984375 72.554688 176.886719 Z M 45.449219 166.710938 C 45.375 166.0625 45.261719 165.417969 45.1875 164.761719 C 38.164062 163.785156 31.179688 162.710938 24.269531 161.410156 C 23.8125 161.328125 23.421875 161.171875 23.066406 160.988281 C 21.976562 161.402344 20.792969 161.230469 19.734375 160.695312 C 20.363281 159.613281 20.429688 158.246094 19.296875 157.261719 C 14.707031 153.269531 21.894531 142.945312 24.261719 139.246094 C 28.195312 133.089844 33.058594 127.613281 38.644531 122.90625 C 49.851562 113.484375 63.503906 108.15625 77.867188 105.894531 C 79.921875 105.570312 79.984375 103.007812 78.722656 101.820312 C 91.550781 87.621094 106.496094 75.613281 124.335938 68.292969 C 142.234375 60.949219 162.773438 57.445312 182.054688 59.882812 C 182.386719 59.925781 182.6875 59.890625 182.949219 59.792969 C 183.152344 61.394531 184.9375 62.867188 186.570312 61.753906 C 202.132812 51.148438 222.132812 52.621094 239.226562 58.378906 C 255.78125 63.964844 270.636719 74.410156 281.917969 87.703125 C 288.460938 95.410156 292.832031 104.238281 297.929688 112.867188 C 299.84375 116.113281 304.855469 113.957031 303.960938 110.328125 C 301.648438 100.925781 295.917969 92.433594 289.976562 84.933594 C 284.019531 77.417969 276.984375 70.847656 269.222656 65.226562 C 263.90625 61.378906 258.101562 57.988281 251.996094 55.191406 C 252.964844 47.496094 259.210938 41.695312 266.722656 39.875 C 276.042969 37.621094 285.574219 42.46875 293.035156 47.609375 C 307.5 57.582031 321.035156 72.613281 324.902344 90.171875 C 326.9375 99.40625 325.375 108.605469 320.34375 116.519531 C 318.132812 114.933594 315.84375 113.445312 313.476562 112.070312 C 310.609375 110.402344 308.054688 114.796875 310.886719 116.511719 C 319.765625 121.894531 327.070312 129.613281 332.449219 138.472656 C 335.035156 142.734375 337.375 147.125 339.097656 151.804688 C 339.992188 154.234375 340.75 156.714844 341.386719 159.222656 C 342.0625 161.839844 342.320312 164.851562 343.671875 167.210938 C 343.777344 167.402344 343.933594 167.535156 344.070312 167.695312 C 343.414062 168.0625 342.613281 168.296875 341.636719 168.296875 C 335.738281 168.28125 329.8125 168.257812 323.917969 168.085938 C 323.835938 167.476562 323.753906 166.859375 323.640625 166.25 C 323.078125 163.265625 318.691406 164.574219 319.140625 167.492188 C 320.207031 174.390625 319.066406 181.832031 318.316406 188.699219 C 318.074219 190.910156 317.820312 193.113281 317.5625 195.320312 C 317.242188 195.578125 317.667969 196.3125 317.308594 196.507812 C 317.292969 196.898438 317.308594 197.289062 317.316406 197.679688 C 317.03125 200.234375 316.746094 202.800781 316.496094 205.363281 C 316.144531 209.023438 315.835938 212.683594 315.6875 216.363281 C 315.347656 224.78125 315.574219 233.621094 318.164062 241.707031 C 321.125 250.960938 327.644531 256.941406 336.023438 261.601562 C 341.492188 264.644531 347.734375 266.636719 354.042969 265.976562 C 354.5 265.929688 354.945312 265.839844 355.386719 265.765625 C 346.839844 273.378906 336.910156 279.488281 325.457031 280.441406 C 311.886719 281.570312 296.632812 275.054688 291.472656 261.894531 C 293.71875 258.902344 295.40625 255.597656 296.144531 252.070312 C 297.710938 244.632812 295.429688 235.761719 288.714844 231.621094 C 288.738281 231.5625 288.78125 231.523438 288.796875 231.464844 C 290.796875 224.796875 293.027344 218.175781 295.078125 211.515625 C 296.082031 208.246094 297.074219 204.980469 298.058594 201.710938 C 298.667969 199.695312 299.363281 197.621094 299.875 195.515625 C 301.6875 196.277344 304.222656 195.578125 304.992188 193.3125 C 308.542969 182.816406 307.191406 170.472656 304.351562 159.960938 C 302.601562 153.480469 300.011719 146.875 296.382812 141.011719 C 298.523438 141.328125 300.640625 141.5625 302.675781 141.726562 C 306.582031 142.042969 310.511719 142.066406 314.425781 141.792969 C 318.757812 141.496094 323.84375 141.261719 327.230469 138.234375 C 329.796875 135.941406 328.320312 131.714844 325.269531 130.816406 C 321.710938 129.761719 317.617188 131.128906 314.035156 131.625 C 310.414062 132.128906 306.71875 132.296875 303.066406 132.25 C 299.441406 132.203125 295.761719 132.023438 292.167969 131.535156 C 290.667969 131.332031 289.1875 131.03125 287.699219 130.722656 C 287.324219 130.550781 286.933594 130.46875 286.550781 130.492188 C 284.9375 130.152344 283.320312 129.816406 281.683594 129.589844 C 280.046875 129.363281 278.449219 129.84375 277.777344 131.507812 C 277.179688 133.007812 277.675781 134.804688 279.132812 135.640625 C 281.585938 137.050781 284.328125 138.148438 287.183594 139.015625 C 291.277344 146.328125 294.875 153.722656 296.8125 162.050781 C 297.710938 165.90625 298.15625 169.730469 298.335938 173.546875 C 298.464844 176.230469 298.464844 178.921875 298.394531 181.613281 C 298.375 182.394531 298.351562 183.175781 298.328125 183.957031 C 298.277344 185.394531 298.214844 186.835938 298.148438 188.285156 C 296.847656 187.957031 295.363281 188.339844 294.609375 189.691406 C 294.535156 189.828125 294.484375 189.984375 294.40625 190.128906 C 294.21875 190.496094 294.046875 190.878906 293.882812 191.261719 C 292.328125 190.578125 290.816406 189.722656 289.339844 188.84375 C 287.664062 188.371094 285.996094 187.859375 284.328125 187.339844 C 283.140625 186.964844 281.953125 186.59375 280.761719 186.210938 C 280.394531 186.09375 280.023438 185.980469 279.664062 185.859375 C 279.515625 185.015625 279.347656 184.175781 279.101562 183.3125 C 278.101562 179.777344 276.375 176.457031 274.015625 173.699219 C 271.6875 170.96875 268.757812 168.796875 265.320312 167.503906 C 260.753906 165.800781 255.808594 165.816406 251.191406 167.09375 C 250.875 167.183594 250.566406 167.28125 250.257812 167.386719 C 247.691406 168.195312 245.234375 169.371094 243.035156 170.910156 C 238.699219 165.3125 232.023438 161.515625 225.160156 160.710938 C 225.242188 160.230469 225.339844 159.757812 225.464844 159.277344 C 225.714844 158.359375 226.03125 157.449219 226.390625 156.554688 C 226.105469 156 225.953125 155.40625 225.917969 154.796875 C 226.136719 155.15625 226.421875 155.464844 226.75 155.714844 C 228.417969 156.960938 231.210938 156.628906 232.257812 153.992188 C 234 149.597656 235.417969 144.566406 236.246094 139.367188 C 238.671875 124.140625 235.929688 107.441406 220.578125 100.835938 C 206.59375 94.820312 196.332031 104.71875 189.925781 116.226562 C 188.632812 110.566406 186.824219 104.953125 184.058594 100.210938 C 182.257812 97.105469 179.425781 94.289062 175.691406 93.949219 C 171.660156 93.582031 168.398438 96.046875 165.777344 98.851562 C 155.5625 109.769531 148.542969 124.199219 146.363281 139.113281 C 145.972656 141.789062 145.71875 144.484375 145.648438 147.175781 C 145.589844 149.492188 148.097656 149.859375 149.398438 148.617188 C 149.4375 149.21875 149.457031 149.828125 149.398438 150.445312 C 149.285156 151.632812 148.925781 152.714844 148.429688 153.730469 C 148.375 153.84375 148.339844 153.957031 148.285156 154.066406 C 147.640625 155.269531 146.769531 156.359375 145.734375 157.34375 C 141.730469 161.140625 136.105469 161.386719 130.921875 161.996094 C 130.824219 162.003906 130.734375 162.019531 130.636719 162.027344 C 130.375 162.09375 130.109375 162.167969 129.847656 162.230469 C 127.105469 162.945312 124.335938 163.507812 121.546875 163.988281 C 119.859375 164.28125 118.152344 164.535156 116.457031 164.785156 C 115.839844 164.453125 115.222656 164.117188 114.570312 163.859375 C 110.777344 162.359375 106.453125 162.101562 102.402344 163.257812 C 100.992188 163.664062 99.683594 164.242188 98.460938 164.941406 C 97.3125 165.605469 96.238281 166.378906 95.261719 167.257812 C 93.921875 167.503906 92.585938 167.761719 91.242188 167.980469 C 90.640625 168.078125 90.070312 168.078125 89.515625 168 C 90.085938 165.828125 89.90625 163.605469 90.003906 161.371094 C 90.109375 158.992188 90.339844 156.625 90.753906 154.277344 C 90.972656 153.039062 91.226562 151.804688 91.511719 150.582031 C 92.292969 147.230469 93.324219 143.921875 94.621094 140.742188 C 96.644531 135.804688 99.363281 131.113281 102.582031 126.808594 C 109.726562 126.589844 116.863281 126.109375 123.9375 125.050781 C 128.683594 124.335938 127.332031 117.023438 122.832031 116.910156 C 118.972656 116.8125 115.113281 116.859375 111.242188 116.941406 C 112.183594 114.933594 109.375 112.761719 107.308594 114.363281 C 106.167969 115.25 105.070312 116.179688 104.003906 117.144531 C 97.429688 117.382812 90.859375 117.691406 84.289062 117.789062 C 78.070312 117.878906 71.84375 117.894531 65.625 117.925781 C 62.304688 117.941406 58.992188 117.960938 55.671875 117.984375 C 52.5625 118.007812 49.113281 117.566406 46.164062 118.660156 C 43.945312 119.480469 42.886719 122.96875 45.441406 124.199219 C 48.257812 125.570312 51.351562 125.574219 54.433594 125.824219 C 57.746094 126.09375 61.0625 126.328125 64.382812 126.492188 C 71.023438 126.824219 77.648438 126.964844 84.296875 126.972656 C 87.953125 126.980469 91.609375 126.980469 95.277344 126.945312 C 92.753906 130.46875 90.566406 134.25 88.785156 138.269531 C 86.765625 142.839844 85.179688 147.558594 84.21875 152.46875 C 83.730469 154.945312 83.101562 157.953125 82.859375 160.914062 C 82.679688 163.183594 82.753906 165.410156 83.304688 167.363281 C 81.050781 169.046875 77.714844 168.589844 75.042969 168.492188 C 73.515625 168.4375 71.992188 168.378906 70.46875 168.316406 C 70.429688 168.988281 70.519531 169.609375 70.714844 170.179688 C 70.683594 170.265625 70.648438 170.347656 70.617188 170.4375 C 70.542969 170.714844 70.503906 170.984375 70.46875 171.261719 C 69.128906 169.25 65.765625 170.339844 66.320312 173.050781 C 67.6875 179.710938 68.679688 186.460938 69.5 193.210938 C 69.890625 196.472656 70.191406 199.742188 70.429688 203.007812 C 70.691406 206.550781 70.296875 210.617188 71.886719 213.855469 C 71.933594 213.953125 72.007812 214.003906 72.058594 214.09375 C 63.242188 223.300781 63.796875 238.703125 70.054688 249.277344 C 73.351562 254.851562 77.976562 259.210938 83.25 262.75 C 82.328125 263.203125 81.597656 264.074219 81.554688 265.457031 C 80.984375 281.734375 64.308594 292.796875 49.039062 292.09375 C 43.976562 291.859375 39.246094 290.527344 34.84375 288.441406 C 33.148438 287.636719 31.496094 286.726562 29.902344 285.703125 C 23.457031 281.5625 17.898438 275.789062 13.332031 269.507812 C 12.738281 268.6875 12.160156 267.863281 11.597656 267.035156 C 12.640625 267.492188 13.6875 267.9375 14.730469 268.367188 C 17.480469 269.5 20.28125 270.507812 23.261719 271.070312 C 28.070312 271.988281 32.757812 271.695312 37.039062 270.140625 C 40.109375 269.019531 42.976562 267.269531 45.507812 264.742188 C 46.289062 263.960938 46.996094 263.140625 47.6875 262.316406 C 61.289062 246.195312 58.34375 222.550781 54.695312 203.273438 C 52.53125 191.832031 49.519531 180.417969 48.625 168.785156 C 48.519531 167.015625 46.765625 166.316406 45.449219 166.710938 Z M 253.390625 126.09375 C 253.390625 126.417969 253.472656 126.71875 253.632812 126.996094 C 253.773438 127.441406 254.023438 127.824219 254.367188 128.148438 C 254.527344 128.265625 254.675781 128.394531 254.832031 128.515625 C 254.910156 128.574219 254.976562 128.628906 255.042969 128.695312 C 255.335938 128.996094 255.660156 129.265625 256.027344 129.476562 C 256.375 129.671875 256.726562 129.867188 257.078125 130.054688 C 257.253906 130.152344 257.433594 130.234375 257.621094 130.324219 C 257.980469 130.507812 258.347656 130.65625 258.722656 130.785156 C 259.128906 130.84375 259.535156 130.898438 259.941406 130.949219 C 260.023438 130.957031 260.105469 130.972656 260.1875 130.980469 C 260.382812 131.003906 260.570312 131.03125 260.765625 131.039062 C 261.246094 131.054688 261.832031 130.898438 262.335938 130.800781 C 262.96875 130.617188 263.523438 130.304688 263.988281 129.835938 C 264.453125 129.371094 264.777344 128.816406 264.949219 128.183594 C 265.132812 127.523438 265.132812 126.855469 264.949219 126.191406 C 264.769531 125.5625 264.453125 125.003906 263.988281 124.539062 C 263.890625 124.417969 263.785156 124.289062 263.679688 124.179688 C 263.359375 123.816406 262.9375 123.546875 262.523438 123.292969 C 261.9375 122.929688 261.332031 122.613281 260.660156 122.449219 C 260.324219 122.367188 259.972656 122.320312 259.632812 122.261719 C 259.476562 122.230469 259.316406 122.210938 259.160156 122.179688 C 259.113281 122.171875 259.078125 122.164062 259.03125 122.15625 C 258.550781 122.007812 258.078125 121.992188 257.597656 122.074219 C 257.644531 122.066406 257.679688 122.058594 257.726562 122.058594 C 257.453125 122.058594 257.175781 122.058594 256.90625 122.058594 C 256.589844 122.105469 256.277344 122.140625 255.960938 122.1875 C 255.675781 122.308594 255.390625 122.425781 255.113281 122.546875 C 254.871094 122.734375 254.632812 122.914062 254.390625 123.101562 C 254.046875 123.425781 253.796875 123.808594 253.65625 124.253906 C 253.496094 124.53125 253.414062 124.832031 253.414062 125.15625 C 253.300781 125.464844 253.300781 125.777344 253.390625 126.09375 Z M 77.191406 248.164062 C 77.902344 249.125 78.65625 250.042969 79.449219 250.914062 C 79.292969 250.636719 79.15625 250.351562 79.023438 250.066406 C 78.382812 249.472656 77.769531 248.839844 77.191406 248.164062 Z M 293.230469 192.992188 C 293.425781 192.414062 293.640625 191.855469 293.875 191.300781 C 293.769531 191.308594 293.65625 191.335938 293.542969 191.34375 C 293.453125 191.894531 293.339844 192.441406 293.230469 192.992188 Z M 293.230469 192.992188 "/><g clip-rule="nonzero" clip-path="url(#a74d5dd0a9)"><path style=" stroke:none;fill-rule:nonzero;fill:#f7b9ac;fill-opacity:1;" d="M 284.34375 187.355469 C 283.15625 186.980469 281.96875 186.609375 280.777344 186.226562 C 280.40625 186.105469 280.039062 185.996094 279.679688 185.875 C 280.609375 191.164062 279.730469 196.042969 277.679688 200.484375 C 276.898438 202.167969 275.960938 203.792969 274.878906 205.347656 C 271.492188 210.230469 266.820312 214.476562 261.929688 218.039062 C 260.933594 218.761719 259.933594 219.476562 258.933594 220.136719 C 255.125 222.671875 251.183594 224.992188 247.261719 227.359375 C 245.332031 228.523438 243.117188 230.214844 240.78125 231.464844 C 239.65625 232.066406 238.503906 232.546875 237.347656 232.832031 C 236.425781 233.058594 235.5 233.175781 234.578125 233.066406 C 230.234375 232.546875 227.59375 227.953125 225.160156 224.8125 C 222.09375 220.851562 219.136719 216.800781 216.328125 212.652344 C 207.882812 200.183594 193.953125 178.871094 208.964844 165.605469 C 209.550781 165.085938 210.160156 164.640625 210.777344 164.207031 C 211.347656 163.808594 211.925781 163.460938 212.519531 163.132812 C 214.117188 162.238281 215.777344 161.589844 217.496094 161.171875 C 218.753906 160.863281 220.019531 160.675781 221.3125 160.605469 C 222.597656 160.539062 223.890625 160.582031 225.179688 160.734375 C 225.265625 160.253906 225.363281 159.78125 225.488281 159.296875 C 225.738281 158.382812 226.050781 157.472656 226.414062 156.578125 C 226.128906 156.023438 225.976562 155.429688 225.941406 154.820312 C 225.519531 154.121094 225.332031 153.226562 225.542969 152.160156 C 226.992188 144.792969 229.433594 137.742188 229.703125 130.304688 C 228.042969 130.980469 225.953125 130.617188 224.664062 128.792969 C 223.738281 128.433594 222.816406 128.070312 221.882812 127.75 C 218.339844 126.507812 214.75 125.53125 211.015625 124.863281 C 207.605469 124.253906 204.136719 124.035156 200.667969 124.011719 C 199.277344 124.003906 197.894531 124.011719 196.511719 124.058594 C 195.65625 124.082031 195.054688 123.652344 194.6875 123.058594 C 193.621094 125.296875 192.710938 127.46875 191.945312 129.347656 C 191.15625 131.3125 189.414062 132.09375 187.84375 131.835938 C 187.734375 132.21875 187.644531 132.597656 187.539062 132.972656 C 187.507812 132.558594 187.492188 132.136719 187.460938 131.722656 C 186.132812 131.355469 185 130.242188 184.820312 128.378906 C 184.625 126.261719 184.339844 124.140625 184 122.015625 C 183.390625 123 182.371094 123.710938 181.183594 123.5625 C 178.621094 123.238281 176.070312 122.984375 173.507812 122.839844 C 171.886719 122.75 170.253906 122.691406 168.609375 122.710938 C 164.59375 122.765625 160.648438 123.195312 156.675781 123.703125 C 153.386719 131.136719 151.222656 139.074219 150.15625 147.183594 C 150.074219 147.800781 149.789062 148.265625 149.414062 148.625 C 149.449219 149.226562 149.472656 149.835938 149.414062 150.453125 C 149.300781 151.640625 148.941406 152.722656 148.445312 153.738281 C 148.453125 153.835938 148.460938 153.933594 148.464844 154.03125 C 148.414062 154.046875 148.355469 154.058594 148.300781 154.074219 C 147.65625 155.277344 146.785156 156.367188 145.746094 157.351562 C 141.746094 161.148438 136.117188 161.394531 130.9375 162.003906 C 130.839844 162.011719 130.75 162.027344 130.652344 162.035156 C 130.386719 162.101562 130.125 162.175781 129.863281 162.238281 C 127.121094 162.953125 124.351562 163.515625 121.5625 163.996094 C 119.875 164.289062 118.167969 164.542969 116.472656 164.792969 C 118.90625 166.109375 121 167.988281 122.554688 170.382812 C 128.324219 164.109375 138.566406 160.386719 146.808594 160.222656 C 151.613281 160.125 155.542969 161.757812 158.636719 164.410156 C 159.433594 165.09375 160.183594 165.824219 160.867188 166.632812 C 164.3125 170.714844 166.320312 176.269531 166.882812 181.898438 C 167.273438 185.777344 166.988281 189.683594 166.003906 193.164062 C 163.910156 200.566406 158.1875 207.242188 152.628906 212.335938 C 145.265625 219.085938 136.824219 224.578125 129.230469 231.066406 C 128.300781 231.863281 126.910156 232.5 125.65625 232.011719 C 121.316406 230.304688 116.792969 227.992188 112.4375 225.179688 C 111.964844 227.171875 110.808594 228.96875 108.976562 229.878906 C 106.511719 231.09375 104.136719 231.410156 101.71875 231.441406 C 99.414062 231.472656 97.070312 231.246094 94.5625 231.277344 C 90.085938 231.335938 85.699219 232.441406 81.222656 232.246094 C 80.816406 232.230469 80.457031 232.125 80.097656 232.035156 C 75.964844 231.074219 74.425781 226.136719 77.300781 222.769531 C 77.746094 222.242188 78.25 221.738281 78.78125 221.257812 C 83.605469 216.859375 91.746094 214.011719 99.082031 214.15625 C 96.417969 211.300781 94.082031 208.203125 92.179688 204.925781 C 89.109375 199.636719 87.222656 193.855469 87.140625 187.722656 C 87.125 186.542969 87.148438 185.363281 87.269531 184.160156 C 87.796875 178.96875 89.753906 173.636719 93.082031 169.566406 C 93.757812 168.746094 94.480469 167.972656 95.269531 167.265625 C 93.929688 167.511719 92.59375 167.769531 91.25 167.988281 C 90.648438 168.085938 90.078125 168.085938 89.523438 168.007812 C 89.5 168.085938 89.5 168.167969 89.476562 168.242188 C 88.582031 171.332031 84.574219 170.984375 83.542969 168.242188 C 83.4375 167.964844 83.386719 167.664062 83.304688 167.378906 C 81.050781 169.0625 77.714844 168.601562 75.042969 168.503906 C 73.515625 168.453125 71.992188 168.394531 70.46875 168.332031 C 70.429688 169 70.519531 169.625 70.714844 170.195312 C 70.683594 170.277344 70.648438 170.363281 70.617188 170.453125 C 70.542969 170.730469 70.503906 171 70.46875 171.277344 C 70.585938 171.453125 70.714844 171.609375 70.789062 171.835938 C 71.398438 173.511719 71.984375 175.1875 72.539062 176.878906 C 72.636719 176.96875 72.722656 177.066406 72.824219 177.15625 C 72.863281 177.480469 72.886719 177.800781 72.929688 178.117188 C 74.375 182.632812 75.605469 187.210938 76.476562 191.894531 C 77.113281 195.335938 77.648438 198.792969 78.054688 202.265625 C 78.355469 204.8125 79.023438 207.96875 78.738281 210.734375 C 78.65625 211.546875 78.496094 212.320312 78.21875 213.042969 C 78.160156 213.199219 78.054688 213.335938 77.972656 213.480469 C 78.210938 214.183594 78.097656 214.980469 77.332031 215.664062 C 67.335938 224.488281 69.964844 238.429688 77.167969 248.15625 C 77.746094 248.832031 78.363281 249.464844 79.007812 250.058594 C 79.140625 250.34375 79.269531 250.628906 79.433594 250.90625 C 80.613281 252.199219 81.867188 253.386719 83.183594 254.425781 C 90.324219 260.054688 98.972656 263.628906 107.832031 266.375 C 113.089844 268.003906 118.429688 269.34375 123.5625 270.636719 C 124.238281 270.808594 124.914062 270.9375 125.589844 271.101562 C 126.234375 271.199219 126.875 271.273438 127.519531 271.347656 C 127.675781 271.453125 127.851562 271.550781 128.015625 271.65625 C 142.007812 274.925781 156.226562 277.113281 170.5625 278.179688 C 172.207031 278.300781 173.851562 278.398438 175.492188 278.488281 C 181.035156 278.796875 186.570312 278.933594 192.082031 278.894531 C 194.328125 278.878906 196.566406 278.835938 198.804688 278.765625 C 218.933594 278.152344 238.851562 275.339844 258.550781 270.777344 C 260.453125 270.335938 262.351562 269.882812 264.253906 269.410156 C 267.46875 268.613281 270.675781 267.777344 273.875 266.890625 C 274.660156 266.675781 275.351562 266.710938 275.929688 266.929688 C 281.566406 262.742188 287.527344 258.527344 289.984375 251.664062 C 290.832031 249.289062 291.140625 246.621094 290.847656 244.066406 C 290.523438 241.226562 289.429688 238.558594 287.414062 236.574219 C 287.4375 237.640625 287.265625 238.679688 286.890625 239.648438 C 286.09375 241.65625 284.410156 243.308594 281.667969 244 C 281.496094 244.042969 281.324219 244.058594 281.144531 244.097656 C 280.753906 244.179688 280.363281 244.261719 279.980469 244.316406 C 275.148438 245.03125 270.644531 243.632812 265.792969 242.757812 C 260.765625 241.851562 255.585938 241.480469 250.761719 239.738281 C 246.128906 238.070312 245.101562 233.320312 247.308594 230.027344 C 248.074219 228.878906 249.230469 227.902344 250.761719 227.300781 C 255.878906 225.285156 261.660156 225.121094 267.097656 225.332031 C 271.492188 225.503906 276.375 225.550781 280.496094 227.277344 C 281.59375 227.734375 282.652344 228.292969 283.613281 229.035156 C 283.800781 229.179688 283.976562 229.34375 284.148438 229.503906 C 285.800781 222.964844 287.257812 216.363281 288.871094 209.8125 C 289.722656 206.363281 290.59375 202.925781 291.464844 199.484375 C 292.003906 197.351562 292.492188 195.101562 293.207031 192.96875 C 293.320312 192.421875 293.429688 191.871094 293.527344 191.324219 C 293.632812 191.316406 293.746094 191.285156 293.859375 191.277344 C 293.859375 191.269531 293.867188 191.261719 293.875 191.253906 C 292.320312 190.570312 290.808594 189.714844 289.332031 188.835938 C 287.671875 188.382812 286.003906 187.875 284.34375 187.355469 Z M 204.25 231.320312 C 202.710938 237.519531 197.054688 241.867188 190.691406 242.03125 C 186.644531 242.136719 182.964844 240.496094 180.183594 237.835938 C 177.359375 242.152344 172.34375 244.9375 166.929688 244.074219 C 159.65625 242.917969 154.910156 235.613281 156.03125 228.53125 C 156.441406 225.933594 160.730469 226.578125 160.582031 229.148438 C 160.339844 233.273438 163.246094 237.597656 167.535156 238.144531 C 171.601562 238.664062 175.769531 235.25 176.121094 231.191406 C 176.445312 227.441406 181.035156 227.035156 182.398438 230.34375 C 183.753906 233.621094 187.476562 235.875 190.992188 235.597656 C 194.710938 235.304688 197.796875 232.507812 199.308594 229.238281 C 200.636719 226.351562 204.953125 228.472656 204.25 231.320312 Z M 191.488281 286.867188 C 186.351562 286.863281 181.214844 286.71875 176.070312 286.433594 C 177.832031 289.621094 181.363281 291.8125 184.917969 291.402344 C 187.148438 291.144531 189.09375 289.867188 190.601562 288.140625 C 190.871094 287.832031 191.203125 287.351562 191.488281 286.867188 Z M 187.726562 289.84375 C 187.710938 289.851562 187.703125 289.851562 187.6875 289.859375 C 187.71875 289.84375 187.746094 289.824219 187.777344 289.800781 C 187.761719 289.816406 187.742188 289.828125 187.726562 289.84375 Z M 227.253906 168.503906 C 227.425781 168.550781 227.601562 168.582031 227.765625 168.640625 C 227.914062 168.769531 228.082031 168.886719 228.238281 169.007812 C 227.628906 168.859375 226.78125 168.589844 226.359375 168.308594 C 226.707031 168.378906 227.007812 168.445312 227.253906 168.503906 Z M 237.800781 224.804688 C 238.113281 224.558594 238.4375 224.324219 238.828125 224.203125 C 238.484375 224.414062 238.144531 224.617188 237.800781 224.804688 Z M 219.855469 204.722656 C 219.886719 204.835938 219.925781 204.957031 219.953125 205.078125 C 219.757812 204.777344 219.554688 204.476562 219.359375 204.175781 C 219.527344 204.355469 219.691406 204.542969 219.855469 204.722656 Z M 234.699219 225.21875 C 234.871094 225.210938 235.132812 225.359375 235.402344 225.503906 C 235.140625 225.464844 234.90625 225.375 234.699219 225.21875 Z M 199.652344 330.203125 C 199.628906 330.300781 199.644531 330.40625 199.628906 330.503906 C 199.601562 330.707031 199.546875 330.902344 199.507812 331.105469 C 199.53125 331.398438 199.53125 331.691406 199.464844 331.984375 C 199.441406 332.488281 199.292969 332.960938 199.015625 333.398438 C 199 333.429688 198.984375 333.449219 198.976562 333.480469 C 198.863281 333.878906 198.730469 334.261719 198.601562 334.652344 C 198.554688 334.832031 198.480469 335.007812 198.441406 335.195312 C 198.351562 335.523438 198.21875 335.832031 198.046875 336.117188 C 196.210938 340.613281 193.109375 344.566406 188.933594 347.429688 C 188.339844 347.835938 187.6875 348.160156 187.050781 348.503906 C 185.277344 350.074219 183.332031 351.429688 181.144531 352.359375 C 177.007812 354.132812 172.402344 354.703125 168.054688 353.253906 C 167.214844 352.96875 166.304688 352.570312 165.402344 352.097656 C 165.1875 352.042969 164.96875 352 164.75 351.9375 C 164.75 351.878906 164.773438 351.8125 164.773438 351.75 C 164.734375 350.894531 164.214844 350.074219 163.066406 349.714844 C 162.542969 349.550781 162.015625 349.367188 161.496094 349.195312 C 159.882812 348.664062 158.289062 348.070312 156.726562 347.398438 C 153.996094 346.226562 151.417969 344.792969 149.164062 342.933594 C 147.371094 341.453125 145.769531 339.734375 144.507812 337.605469 C 140.203125 330.332031 140.226562 320.296875 142.113281 312.273438 C 143.074219 308.167969 144.808594 304.101562 148.015625 301.253906 C 148.070312 301.207031 148.121094 301.164062 148.167969 301.117188 C 149.976562 299.5625 152.070312 298.5625 154.300781 297.933594 C 154.324219 298.128906 154.347656 298.324219 154.378906 298.527344 C 154.394531 298.652344 154.429688 298.773438 154.445312 298.894531 C 154.566406 299.628906 154.707031 300.457031 154.84375 301.003906 C 155.976562 305.597656 158.492188 309.617188 162.082031 312.761719 C 161.160156 313.804688 160.25 314.871094 159.515625 316 C 158.417969 317.683594 158.832031 320.246094 159.425781 322.066406 C 159.859375 323.402344 160.5 324.613281 161.289062 325.6875 C 162.398438 327.199219 163.832031 328.414062 165.523438 329.285156 C 165.890625 333.683594 167.515625 337.960938 170.164062 341.46875 C 170.722656 342.207031 171.328125 342.898438 171.976562 343.558594 C 173.800781 345.429688 175.925781 347 178.382812 348.046875 C 181.617188 349.421875 184.511719 344.957031 181.230469 343.167969 C 180.078125 342.539062 179.027344 341.785156 178.035156 340.980469 C 177.8125 340.800781 177.578125 340.628906 177.367188 340.441406 C 173.648438 337.109375 171.34375 332.496094 171.367188 327.273438 C 171.375 325.925781 170.429688 324.777344 169.171875 324.386719 C 166.523438 323.566406 164.832031 321.320312 164.613281 318.667969 C 165.769531 317.230469 166.929688 315.789062 168.09375 314.355469 C 168.394531 313.984375 168.601562 313.585938 168.730469 313.171875 C 168.835938 312.84375 168.875 312.511719 168.859375 312.179688 C 168.820312 311.332031 168.398438 310.527344 167.527344 309.964844 C 163.660156 307.453125 160.988281 303.636719 159.558594 299.324219 C 159.5 299.132812 159.449219 298.9375 159.386719 298.742188 C 159.230469 298.179688 159.042969 297.464844 158.953125 297.113281 C 160.265625 297.007812 161.582031 296.984375 162.878906 297.023438 C 164.066406 297.050781 165.261719 297.136719 166.449219 297.242188 C 170.632812 297.59375 174.820312 298.300781 178.921875 299.082031 C 182.984375 299.855469 187.125 300.863281 190.910156 302.585938 C 191.511719 302.929688 192.164062 303.222656 192.816406 303.5 C 195.550781 305.011719 197.933594 306.964844 199.660156 309.429688 C 199.667969 309.445312 199.675781 309.460938 199.691406 309.46875 C 199.996094 309.902344 200.269531 310.371094 200.53125 310.835938 C 200.613281 310.980469 200.6875 311.113281 200.765625 311.257812 C 201.328125 312.339844 201.785156 313.488281 202.101562 314.730469 C 202.738281 317.238281 202.851562 319.90625 202.371094 322.457031 C 201.851562 325.207031 200.320312 327.484375 199.660156 330.175781 C 199.652344 330.195312 199.652344 330.195312 199.652344 330.203125 Z M 162.535156 112.972656 C 162.699219 112.722656 162.878906 112.476562 163.050781 112.226562 C 162.984375 112.484375 163.082031 112.792969 162.535156 112.972656 Z M 121.472656 175.8125 C 121.351562 175.660156 121.226562 175.511719 121.097656 175.359375 C 121.144531 175.359375 121.179688 175.359375 121.226562 175.359375 C 121.300781 175.515625 121.382812 175.667969 121.472656 175.8125 Z M 152.355469 169.46875 C 152.460938 169.527344 152.574219 169.566406 152.671875 169.625 C 152.6875 169.632812 152.703125 169.640625 152.710938 169.648438 C 152.679688 169.648438 152.65625 169.640625 152.628906 169.640625 C 152.53125 169.640625 152.441406 169.566406 152.355469 169.46875 Z M 122.800781 177.53125 C 122.578125 177.238281 122.359375 176.9375 122.125 176.652344 C 122.367188 176.894531 122.636719 177.089844 122.921875 177.253906 C 122.894531 177.351562 122.839844 177.433594 122.800781 177.53125 Z M 96.167969 198.320312 C 96.351562 198.832031 96.539062 199.34375 96.734375 199.839844 C 96.328125 199.027344 95.953125 198.207031 95.613281 197.371094 C 95.785156 197.6875 95.980469 198.003906 96.167969 198.320312 Z M 163.535156 111.859375 C 163.375 111.898438 163.277344 111.949219 163.203125 112.011719 C 163.472656 111.621094 163.734375 111.222656 164.019531 110.839844 C 164.035156 110.867188 164.042969 110.90625 164.058594 110.9375 C 164.308594 111.492188 163.046875 111.558594 163.535156 111.859375 Z M 163.535156 111.859375 "/></g><path style=" stroke:none;fill-rule:nonzero;fill:#f0816a;fill-opacity:1;" d="M 183.660156 120.253906 C 183.765625 120.847656 183.902344 121.433594 183.992188 122.027344 C 183.382812 123.011719 182.363281 123.726562 181.175781 123.578125 C 178.613281 123.253906 176.0625 123 173.5 122.855469 C 171.878906 122.765625 170.246094 122.707031 168.601562 122.726562 C 164.585938 122.78125 160.640625 123.207031 156.667969 123.71875 C 157.554688 121.714844 158.523438 119.742188 159.589844 117.820312 C 160.507812 116.167969 161.484375 114.550781 162.527344 112.964844 C 163.074219 112.785156 162.976562 112.476562 163.046875 112.222656 C 163.097656 112.144531 163.148438 112.070312 163.195312 112.003906 C 163.269531 111.941406 163.359375 111.890625 163.527344 111.851562 C 163.039062 111.542969 164.300781 111.484375 164.050781 110.929688 C 164.035156 110.898438 164.027344 110.859375 164.015625 110.832031 C 164.796875 109.75 165.570312 108.660156 166.417969 107.613281 C 168.289062 105.3125 170.675781 101.757812 173.515625 100.59375 C 175.707031 99.691406 177.269531 101.332031 178.34375 103.195312 C 178.800781 103.984375 179.179688 104.808594 179.472656 105.507812 C 181.445312 110.207031 182.753906 115.203125 183.660156 120.253906 Z M 280.519531 227.300781 C 276.398438 225.570312 271.515625 225.527344 267.121094 225.355469 C 261.683594 225.136719 255.894531 225.308594 250.785156 227.324219 C 249.246094 227.929688 248.097656 228.902344 247.332031 230.050781 C 245.128906 233.351562 246.160156 238.09375 250.785156 239.761719 C 255.605469 241.503906 260.789062 241.871094 265.816406 242.78125 C 270.667969 243.660156 275.171875 245.058594 280.003906 244.339844 C 280.386719 244.277344 280.777344 244.203125 281.167969 244.121094 C 281.339844 244.082031 281.511719 244.066406 281.691406 244.023438 C 284.433594 243.324219 286.125 241.675781 286.914062 239.671875 C 287.296875 238.707031 287.460938 237.664062 287.4375 236.597656 C 286.753906 235.921875 285.996094 235.304688 285.085938 234.816406 C 283.808594 234.132812 283.703125 232.882812 284.230469 231.921875 C 283.96875 231.441406 283.847656 230.855469 284.019531 230.171875 C 284.074219 229.960938 284.117188 229.742188 284.179688 229.53125 C 284.003906 229.375 283.832031 229.210938 283.644531 229.066406 C 282.675781 228.316406 281.617188 227.757812 280.519531 227.300781 Z M 229.566406 125.402344 C 229.035156 120.527344 226.960938 115.632812 223.597656 111.988281 C 222.117188 110.386719 220.410156 108.996094 218.4375 107.996094 C 214.613281 106.058594 211.210938 106.019531 208.199219 107.183594 C 202.207031 109.492188 197.765625 116.574219 194.671875 123.074219 C 195.039062 123.660156 195.640625 124.09375 196.496094 124.074219 C 197.878906 124.035156 199.261719 124.019531 200.652344 124.027344 C 204.121094 124.050781 207.589844 124.269531 211 124.878906 C 214.734375 125.546875 218.324219 126.515625 221.867188 127.761719 C 222.800781 128.085938 223.722656 128.445312 224.648438 128.808594 C 225.941406 130.632812 228.027344 130.988281 229.6875 130.320312 C 229.753906 128.6875 229.753906 127.0625 229.566406 125.402344 Z M 78.789062 221.273438 C 78.257812 221.761719 77.761719 222.265625 77.308594 222.78125 C 74.433594 226.148438 75.972656 231.089844 80.105469 232.050781 C 80.472656 232.132812 80.824219 232.238281 81.230469 232.261719 C 85.707031 232.457031 90.09375 231.34375 94.570312 231.289062 C 97.078125 231.261719 99.421875 231.484375 101.726562 231.457031 C 104.144531 231.425781 106.519531 231.109375 108.984375 229.894531 C 110.816406 228.992188 111.964844 227.1875 112.445312 225.195312 C 107.628906 222.097656 103.027344 218.386719 99.089844 214.171875 C 91.753906 214.027344 83.613281 216.875 78.789062 221.273438 Z M 78.789062 221.273438 "/><path style=" stroke:none;fill-rule:nonzero;fill:#f794c6;fill-opacity:1;" d="M 252.828125 316.734375 C 254.429688 318.019531 256.019531 319.335938 257.808594 320.328125 C 257.800781 322.027344 256.875 323.710938 254.722656 324.453125 C 248.195312 326.703125 240.8125 326.519531 233.96875 326.785156 C 229.851562 326.941406 225.746094 326.964844 221.636719 326.859375 C 221.011719 326.980469 220.382812 327.070312 219.765625 327.128906 C 216.785156 327.40625 213.71875 327.550781 210.722656 327.589844 C 209.949219 327.597656 209.242188 327.414062 208.605469 327.121094 C 209.632812 324.132812 209.957031 320.800781 209.777344 317.902344 C 209.589844 314.871094 208.859375 311.925781 207.636719 309.207031 C 206.472656 306.628906 204.863281 304.261719 202.820312 302.222656 C 200.960938 300.375 198.863281 298.878906 196.625 297.632812 C 195.039062 296.75 193.386719 295.984375 191.675781 295.347656 C 191.285156 295.195312 190.878906 295.070312 190.480469 294.925781 C 190.8125 294.753906 191.113281 294.535156 191.429688 294.332031 C 192.515625 293.65625 193.539062 292.882812 194.394531 291.910156 C 195.402344 290.785156 196.308594 289.425781 196.972656 287.964844 C 197.144531 287.574219 197.300781 287.183594 197.4375 286.785156 C 198.210938 286.769531 198.984375 286.761719 199.757812 286.742188 C 201.792969 286.679688 203.828125 286.613281 205.855469 286.515625 C 207.996094 286.410156 210.136719 286.28125 212.269531 286.132812 C 216.011719 285.871094 227.105469 284.695312 228.914062 284.464844 C 234.230469 283.773438 245.007812 281.824219 245.121094 281.804688 C 245.210938 282.117188 245.363281 282.410156 245.574219 282.675781 C 245.601562 282.710938 245.625 282.75 245.664062 282.789062 C 246.03125 283.179688 246.585938 283.433594 247.269531 283.523438 C 247.390625 283.539062 247.488281 283.59375 247.625 283.597656 C 250.949219 283.703125 254.269531 286.15625 254.390625 289.648438 C 254.535156 293.84375 251.046875 295.902344 247.359375 296.519531 C 242.410156 297.339844 237.222656 297.269531 232.21875 297.472656 C 229.019531 297.601562 225.820312 297.660156 222.621094 297.667969 C 220.96875 297.675781 219.316406 297.660156 217.664062 297.625 C 217.101562 297.617188 216.542969 297.625 215.980469 297.609375 C 215.09375 297.585938 214.507812 297.992188 214.164062 298.554688 C 213.683594 299.328125 213.703125 300.398438 214.238281 301.179688 C 214.597656 301.710938 215.160156 302.109375 215.980469 302.164062 C 217.445312 302.253906 218.917969 302.328125 220.390625 302.402344 C 220.675781 302.417969 220.96875 302.433594 221.253906 302.449219 C 225.496094 302.660156 229.742188 302.78125 233.984375 302.78125 C 234.710938 302.78125 235.449219 302.78125 236.175781 302.773438 C 236.273438 302.890625 236.328125 303.019531 236.453125 303.132812 C 237.746094 304.222656 239.046875 305.296875 240.339844 306.386719 C 242.660156 308.347656 244.972656 310.316406 247.332031 312.242188 C 248.703125 313.363281 250.078125 314.480469 251.453125 315.601562 C 251.90625 315.984375 252.363281 316.367188 252.828125 316.734375 Z M 142.097656 291.617188 C 142.082031 291.519531 142.074219 291.429688 142.058594 291.332031 C 142.046875 291.355469 142.066406 291.484375 142.097656 291.617188 Z M 314.429688 141.808594 C 318.765625 141.507812 323.851562 141.277344 327.238281 138.246094 C 329.804688 135.957031 328.328125 131.730469 325.277344 130.828125 C 321.71875 129.777344 317.625 131.144531 314.039062 131.640625 C 310.421875 132.144531 306.726562 132.308594 303.074219 132.265625 C 299.449219 132.21875 295.765625 132.039062 292.175781 131.550781 C 290.675781 131.347656 289.195312 131.046875 287.707031 130.738281 C 287.941406 130.84375 288.167969 130.964844 288.375 131.160156 C 291.484375 134.015625 294.128906 137.382812 296.390625 141.027344 C 298.53125 141.34375 300.648438 141.578125 302.683594 141.742188 C 306.589844 142.058594 310.519531 142.082031 314.429688 141.808594 Z M 254.367188 128.140625 C 254.527344 128.257812 254.675781 128.386719 254.832031 128.507812 C 254.910156 128.566406 254.976562 128.621094 255.042969 128.6875 C 255.335938 128.988281 255.660156 129.257812 256.027344 129.46875 C 256.375 129.664062 256.726562 129.859375 257.078125 130.046875 C 257.253906 130.144531 257.433594 130.226562 257.621094 130.320312 C 257.980469 130.5 258.347656 130.648438 258.722656 130.777344 C 259.128906 130.835938 259.535156 130.890625 259.941406 130.941406 C 260.023438 130.949219 260.105469 130.964844 260.1875 130.972656 C 260.382812 130.996094 260.570312 131.023438 260.765625 131.03125 C 261.246094 131.046875 261.832031 130.890625 262.335938 130.792969 C 262.96875 130.613281 263.523438 130.296875 263.988281 129.828125 C 264.453125 129.363281 264.777344 128.808594 264.949219 128.175781 C 265.132812 127.515625 265.132812 126.847656 264.949219 126.183594 C 264.769531 125.554688 264.453125 124.996094 263.988281 124.53125 C 263.890625 124.410156 263.785156 124.285156 263.679688 124.171875 C 263.359375 123.808594 262.9375 123.539062 262.523438 123.285156 C 261.9375 122.921875 261.332031 122.609375 260.660156 122.441406 C 260.324219 122.359375 259.972656 122.3125 259.632812 122.253906 C 259.476562 122.222656 259.316406 122.203125 259.160156 122.171875 C 259.113281 122.164062 259.078125 122.15625 259.03125 122.148438 C 258.550781 122 258.078125 121.984375 257.597656 122.066406 C 257.644531 122.058594 257.679688 122.050781 257.726562 122.050781 C 257.453125 122.050781 257.175781 122.050781 256.90625 122.050781 C 256.589844 122.097656 256.277344 122.132812 255.960938 122.179688 C 255.675781 122.300781 255.390625 122.417969 255.113281 122.539062 C 254.871094 122.726562 254.632812 122.90625 254.390625 123.097656 C 254.046875 123.417969 253.796875 123.800781 253.65625 124.246094 C 253.496094 124.523438 253.414062 124.824219 253.414062 125.148438 C 253.332031 125.464844 253.332031 125.777344 253.414062 126.09375 C 253.414062 126.417969 253.496094 126.71875 253.65625 126.996094 C 253.773438 127.441406 254.023438 127.816406 254.367188 128.140625 Z M 277.785156 131.519531 C 277.1875 133.023438 277.679688 134.820312 279.136719 135.65625 C 281.59375 137.066406 284.335938 138.164062 287.191406 139.027344 C 286.289062 137.421875 285.371094 135.820312 284.433594 134.210938 C 283.351562 132.355469 284.863281 130.597656 286.558594 130.507812 C 284.945312 130.167969 283.328125 129.828125 281.691406 129.605469 C 280.054688 129.378906 278.453125 129.851562 277.785156 131.519531 Z M 102.605469 126.832031 C 109.75 126.613281 116.882812 126.132812 123.960938 125.074219 C 128.707031 124.359375 127.355469 117.046875 122.855469 116.933594 C 118.996094 116.835938 115.132812 116.878906 111.265625 116.964844 C 111.136719 117.234375 110.957031 117.496094 110.6875 117.753906 C 107.757812 120.511719 105.046875 123.570312 102.605469 126.832031 Z M 171.328125 286.734375 C 171.269531 286.539062 171.230469 286.328125 171.179688 286.125 C 170.992188 286.109375 170.804688 286.09375 170.617188 286.078125 C 168.003906 285.882812 165.394531 285.660156 162.789062 285.386719 C 158.296875 284.929688 153.820312 284.359375 149.359375 283.683594 C 147.992188 283.472656 146.625 283.253906 145.257812 283.027344 C 145.132812 283.15625 145.027344 283.300781 144.882812 283.410156 C 145.3125 283.082031 144.449219 283.863281 144.464844 283.796875 C 144.269531 284.019531 144.082031 284.269531 143.886719 284.488281 C 143.855469 284.523438 143.773438 284.628906 143.710938 284.710938 C 143.328125 285.269531 143.007812 285.839844 142.714844 286.441406 C 142.675781 286.53125 142.636719 286.628906 142.625 286.664062 C 142.554688 286.863281 142.488281 287.0625 142.4375 287.257812 C 142.332031 287.628906 142.242188 288.003906 142.171875 288.386719 C 142.144531 288.558594 142.121094 288.734375 142.089844 288.914062 C 142.089844 288.921875 142.089844 288.921875 142.089844 288.929688 C 142.089844 288.941406 142.089844 288.949219 142.089844 288.964844 C 142.058594 289.355469 142.03125 289.738281 142.03125 290.125 C 142.03125 290.515625 142.046875 290.898438 142.082031 291.289062 C 142.089844 291.402344 142.105469 291.511719 142.121094 291.625 C 142.148438 291.769531 142.1875 291.910156 142.195312 291.941406 C 142.277344 292.316406 142.375 292.695312 142.496094 293.054688 C 142.554688 293.234375 142.636719 293.414062 142.683594 293.59375 C 143.050781 294.308594 143.417969 294.984375 143.878906 295.640625 C 143.976562 295.78125 144.074219 295.925781 144.171875 296.066406 C 144.222656 296.144531 144.269531 296.210938 144.304688 296.257812 C 144.277344 296.21875 144.253906 296.1875 144.207031 296.128906 C 144.328125 296.277344 144.449219 296.4375 144.570312 296.59375 C 146.28125 295.203125 148.171875 294.105469 150.203125 293.265625 C 150.214844 293.210938 153.054688 292.175781 153.324219 292.183594 C 156.699219 291.234375 160.320312 290.859375 163.96875 290.875 C 165.792969 290.882812 167.625 290.972656 169.4375 291.152344 C 170.878906 291.296875 172.34375 291.445312 173.832031 291.609375 C 173.851562 291.535156 173.859375 291.453125 173.875 291.371094 C 172.703125 290.019531 171.839844 288.433594 171.328125 286.734375 Z M 95.613281 197.371094 C 95.792969 197.695312 95.980469 198.003906 96.167969 198.320312 C 96.351562 198.832031 96.539062 199.34375 96.734375 199.839844 C 100.714844 207.773438 107.960938 214.28125 115.808594 219.078125 C 119.191406 221.144531 122.660156 222.875 126.023438 224.277344 C 132.859375 218.648438 140.191406 213.605469 146.785156 207.683594 C 147.085938 207.421875 147.371094 207.144531 147.664062 206.863281 C 151.652344 203.160156 155.285156 198.921875 157.53125 194.207031 C 159.996094 189.046875 160.800781 183.328125 158.570312 177.171875 C 157.398438 173.9375 155.347656 171.300781 152.71875 169.648438 C 152.6875 169.648438 152.664062 169.640625 152.636719 169.640625 C 152.539062 169.640625 152.449219 169.566406 152.355469 169.46875 C 151.238281 168.8125 150.042969 168.316406 148.746094 168.054688 C 147.460938 167.800781 146.109375 167.707031 144.6875 167.898438 C 138.484375 168.722656 131.167969 171.640625 127.015625 176.496094 C 125.753906 177.96875 124.175781 177.984375 122.9375 177.253906 C 122.898438 177.351562 122.847656 177.433594 122.816406 177.53125 C 122.59375 177.238281 122.375 176.9375 122.140625 176.652344 C 121.894531 176.402344 121.675781 176.117188 121.488281 175.8125 C 121.367188 175.660156 121.242188 175.511719 121.113281 175.359375 C 120.460938 175.316406 119.828125 174.992188 119.40625 174.226562 C 118.519531 172.625 117.289062 171.355469 115.863281 170.390625 C 115.417969 170.089844 114.945312 169.851562 114.464844 169.609375 C 110.597656 167.695312 105.707031 167.769531 101.847656 170.015625 C 95.5 173.714844 93.15625 181.777344 93.601562 188.714844 C 93.796875 191.757812 94.523438 194.636719 95.613281 197.371094 Z M 84.316406 117.820312 C 78.097656 117.910156 71.871094 117.925781 65.652344 117.957031 C 62.332031 117.96875 59.019531 117.992188 55.703125 118.015625 C 52.59375 118.039062 49.144531 117.59375 46.191406 118.691406 C 43.976562 119.511719 42.917969 123 45.472656 124.230469 C 48.289062 125.597656 51.382812 125.605469 54.460938 125.855469 C 57.773438 126.125 61.09375 126.359375 64.414062 126.523438 C 71.054688 126.855469 77.679688 126.996094 84.324219 127.003906 C 87.984375 127.011719 91.640625 127.011719 95.304688 126.972656 C 97.859375 123.410156 100.773438 120.121094 104.046875 117.171875 C 97.460938 117.421875 90.890625 117.730469 84.316406 117.820312 Z M 228.238281 169.007812 C 228.582031 169.097656 228.855469 169.144531 228.890625 169.128906 C 232.917969 170.902344 236.238281 174.179688 239.714844 177.058594 C 241.605469 178.628906 244.394531 177.613281 245.023438 175.699219 C 246.070312 175.113281 247.164062 174.601562 248.300781 174.140625 C 251.339844 172.917969 254.617188 172.253906 257.851562 172.429688 C 259.203125 172.496094 260.550781 172.675781 261.863281 173.058594 C 263.457031 173.527344 264.898438 174.316406 266.199219 175.308594 C 266.332031 175.554688 266.484375 175.796875 266.609375 176.050781 C 266.699219 175.984375 266.777344 175.902344 266.875 175.847656 C 269.082031 177.75 270.792969 180.28125 271.859375 182.972656 C 272.078125 183.527344 272.242188 184.078125 272.410156 184.625 C 273.484375 188.210938 273.378906 191.625 272.4375 194.808594 C 272.289062 195.328125 269.839844 200.679688 268.339844 202.65625 C 265.777344 206.015625 262.457031 208.976562 259.03125 211.464844 C 253.46875 215.507812 247.457031 218.914062 241.570312 222.4375 C 240.675781 222.972656 239.765625 223.609375 238.835938 224.195312 C 238.445312 224.316406 238.121094 224.550781 237.808594 224.796875 C 237.492188 224.96875 237.175781 225.128906 236.851562 225.261719 C 236.253906 225.511719 235.800781 225.5625 235.417969 225.503906 C 235.148438 225.355469 234.886719 225.210938 234.710938 225.21875 C 234.210938 224.84375 233.789062 224.1875 233.179688 223.429688 C 231.957031 221.910156 230.761719 220.371094 229.589844 218.808594 C 228.351562 217.160156 227.132812 215.492188 225.941406 213.816406 C 223.90625 210.953125 221.898438 208.039062 219.96875 205.078125 C 219.9375 204.957031 219.902344 204.835938 219.871094 204.722656 C 219.707031 204.542969 219.539062 204.355469 219.375 204.175781 C 217.324219 200.972656 215.386719 197.703125 213.652344 194.351562 C 210.664062 188.566406 208.296875 181.613281 210.980469 175.246094 C 212.992188 170.472656 217.8125 167.867188 222.851562 167.8125 C 223.109375 167.8125 223.347656 167.851562 223.597656 167.859375 C 224.414062 167.941406 225.496094 168.128906 226.367188 168.308594 C 226.773438 168.589844 227.628906 168.859375 228.238281 169.007812 Z M 228.238281 169.007812 "/><g clip-rule="nonzero" clip-path="url(#9fa2c50567)"><path style=" stroke:none;fill-rule:nonzero;fill:#020201;fill-opacity:1;" d="M 221.304688 160.605469 C 220.023438 160.675781 218.753906 160.871094 217.492188 161.171875 C 215.777344 161.582031 214.109375 162.238281 212.511719 163.132812 C 211.917969 163.460938 211.339844 163.808594 210.769531 164.207031 C 210.152344 164.640625 209.542969 165.085938 208.957031 165.605469 C 193.945312 178.875 207.875 200.183594 216.320312 212.652344 C 219.128906 216.800781 222.078125 220.84375 225.152344 224.8125 C 227.585938 227.953125 230.222656 232.546875 234.570312 233.066406 C 235.492188 233.175781 236.417969 233.058594 237.339844 232.832031 C 238.496094 232.554688 239.648438 232.074219 240.773438 231.464844 C 243.101562 230.207031 245.324219 228.523438 247.253906 227.359375 C 251.167969 225 255.121094 222.679688 258.925781 220.136719 C 259.933594 219.46875 260.933594 218.761719 261.925781 218.039062 C 266.820312 214.476562 271.492188 210.230469 274.871094 205.347656 C 275.953125 203.792969 276.894531 202.167969 277.675781 200.484375 C 279.722656 196.042969 280.609375 191.164062 279.671875 185.875 C 279.523438 185.03125 279.355469 184.191406 279.109375 183.328125 C 278.109375 179.792969 276.382812 176.472656 274.023438 173.714844 C 271.695312 170.984375 268.765625 168.8125 265.328125 167.519531 C 260.761719 165.816406 255.816406 165.828125 251.199219 167.109375 C 250.882812 167.199219 250.574219 167.296875 250.265625 167.402344 C 247.699219 168.210938 245.242188 169.382812 243.042969 170.925781 C 238.707031 165.328125 232.03125 161.53125 225.167969 160.726562 C 223.890625 160.582031 222.597656 160.539062 221.304688 160.605469 Z M 228.882812 169.128906 C 232.910156 170.902344 236.230469 174.179688 239.707031 177.058594 C 241.601562 178.628906 244.386719 177.613281 245.015625 175.699219 C 246.0625 175.113281 247.15625 174.601562 248.292969 174.140625 C 251.332031 172.917969 254.609375 172.253906 257.84375 172.429688 C 259.199219 172.496094 260.542969 172.675781 261.855469 173.058594 C 263.449219 173.527344 264.890625 174.316406 266.191406 175.308594 C 266.421875 175.480469 266.648438 175.660156 266.867188 175.847656 C 269.074219 177.75 270.785156 180.28125 271.851562 182.972656 C 272.070312 183.527344 272.234375 184.078125 272.402344 184.625 C 273.476562 188.210938 273.371094 191.625 272.429688 194.808594 C 272.28125 195.328125 269.832031 200.679688 268.332031 202.65625 C 265.769531 206.015625 262.449219 208.976562 259.023438 211.464844 C 253.460938 215.507812 247.449219 218.914062 241.5625 222.4375 C 240.667969 222.972656 239.757812 223.609375 238.828125 224.195312 C 238.492188 224.40625 238.144531 224.609375 237.800781 224.796875 C 237.484375 224.96875 237.167969 225.128906 236.84375 225.261719 C 236.246094 225.511719 235.792969 225.5625 235.410156 225.503906 C 235.148438 225.457031 234.914062 225.367188 234.703125 225.21875 C 234.203125 224.84375 233.78125 224.1875 233.171875 223.429688 C 231.949219 221.910156 230.753906 220.371094 229.582031 218.808594 C 228.34375 217.160156 227.125 215.492188 225.933594 213.816406 C 223.898438 210.953125 221.890625 208.039062 219.960938 205.078125 C 219.765625 204.777344 219.5625 204.476562 219.367188 204.175781 C 217.316406 200.972656 215.378906 197.703125 213.644531 194.351562 C 210.65625 188.566406 208.289062 181.613281 210.972656 175.246094 C 212.984375 170.472656 217.804688 167.867188 222.84375 167.8125 C 223.039062 167.8125 223.304688 167.828125 223.589844 167.859375 C 224.40625 167.941406 227.015625 168.445312 227.261719 168.503906 C 227.496094 168.558594 227.691406 168.609375 227.773438 168.640625 C 228.148438 168.777344 228.507812 168.964844 228.882812 169.128906 Z M 83.558594 168.265625 C 83.453125 167.988281 83.402344 167.6875 83.320312 167.402344 C 82.769531 165.445312 82.695312 163.222656 82.875 160.953125 C 83.117188 157.992188 83.746094 154.984375 84.234375 152.503906 C 85.195312 147.597656 86.78125 142.878906 88.800781 138.308594 C 90.582031 134.292969 92.765625 130.507812 95.289062 126.980469 C 97.84375 123.417969 100.757812 120.128906 104.03125 117.179688 C 105.101562 116.21875 106.195312 115.289062 107.335938 114.402344 C 109.402344 112.792969 112.21875 114.964844 111.273438 116.976562 C 111.144531 117.25 110.964844 117.511719 110.695312 117.765625 C 107.75 120.519531 105.039062 123.578125 102.597656 126.839844 C 99.382812 131.152344 96.65625 135.835938 94.636719 140.773438 C 93.335938 143.953125 92.300781 147.257812 91.527344 150.609375 C 91.242188 151.835938 90.988281 153.066406 90.769531 154.308594 C 90.363281 156.652344 90.125 159.019531 90.019531 161.402344 C 89.921875 163.636719 90.101562 165.859375 89.53125 168.03125 C 89.507812 168.105469 89.507812 168.191406 89.484375 168.265625 C 88.589844 171.355469 84.585938 171.007812 83.558594 168.265625 Z M 150.15625 147.199219 C 150.074219 147.816406 149.789062 148.28125 149.414062 148.640625 C 148.113281 149.882812 145.613281 149.511719 145.664062 147.199219 C 145.734375 144.507812 145.988281 141.816406 146.378906 139.132812 C 148.550781 124.230469 155.578125 109.792969 165.792969 98.875 C 168.414062 96.078125 171.667969 93.605469 175.707031 93.972656 C 179.449219 94.3125 182.273438 97.128906 184.074219 100.234375 C 186.832031 104.976562 188.648438 110.589844 189.941406 116.25 C 196.339844 104.75 206.605469 94.84375 220.59375 100.855469 C 235.945312 107.464844 238.6875 124.164062 236.257812 139.390625 C 235.433594 144.589844 234.007812 149.617188 232.273438 154.015625 C 231.226562 156.652344 228.441406 156.984375 226.765625 155.738281 C 226.4375 155.488281 226.15625 155.179688 225.933594 154.820312 C 225.511719 154.121094 225.324219 153.226562 225.535156 152.160156 C 226.984375 144.792969 229.425781 137.742188 229.695312 130.304688 C 229.753906 128.6875 229.746094 127.0625 229.566406 125.402344 C 229.035156 120.527344 226.960938 115.632812 223.597656 111.988281 C 222.117188 110.386719 220.410156 108.996094 218.4375 107.996094 C 214.613281 106.058594 211.210938 106.019531 208.199219 107.183594 C 202.207031 109.492188 197.765625 116.574219 194.671875 123.074219 C 193.605469 125.3125 192.699219 127.484375 191.929688 129.363281 C 191.144531 131.324219 189.398438 132.105469 187.832031 131.851562 C 187.695312 131.828125 187.574219 131.777344 187.449219 131.738281 C 186.117188 131.371094 184.984375 130.257812 184.804688 128.394531 C 184.609375 126.273438 184.324219 124.15625 183.984375 122.027344 C 183.886719 121.433594 183.757812 120.847656 183.65625 120.253906 C 182.746094 115.203125 181.4375 110.207031 179.480469 105.515625 C 179.1875 104.816406 178.800781 103.992188 178.351562 103.203125 C 177.269531 101.339844 175.714844 99.699219 173.523438 100.601562 C 170.683594 101.765625 168.296875 105.3125 166.425781 107.621094 C 165.574219 108.664062 164.800781 109.75 164.019531 110.839844 C 163.742188 111.230469 163.480469 111.621094 163.203125 112.011719 C 163.148438 112.085938 163.097656 112.152344 163.050781 112.226562 C 162.878906 112.476562 162.707031 112.71875 162.535156 112.972656 C 161.492188 114.550781 160.515625 116.175781 159.597656 117.828125 C 158.53125 119.75 157.570312 121.71875 156.675781 123.726562 C 153.386719 131.152344 151.230469 139.089844 150.15625 147.199219 Z M 19.296875 157.261719 C 14.707031 153.269531 21.894531 142.945312 24.261719 139.246094 C 28.195312 133.089844 33.058594 127.613281 38.644531 122.90625 C 49.851562 113.484375 63.503906 108.15625 77.867188 105.894531 C 79.921875 105.570312 79.984375 103.007812 78.722656 101.820312 C 91.550781 87.621094 106.496094 75.613281 124.335938 68.292969 C 142.234375 60.949219 162.773438 57.445312 182.054688 59.882812 C 182.386719 59.925781 182.6875 59.890625 182.949219 59.792969 C 183.152344 61.394531 184.9375 62.867188 186.570312 61.753906 C 202.132812 51.148438 222.132812 52.621094 239.226562 58.378906 C 255.78125 63.964844 270.636719 74.410156 281.917969 87.703125 C 288.460938 95.410156 292.832031 104.238281 297.929688 112.867188 C 299.84375 116.113281 304.855469 113.957031 303.960938 110.328125 C 301.648438 100.925781 295.917969 92.433594 289.976562 84.933594 C 284.019531 77.417969 276.984375 70.847656 269.222656 65.226562 C 263.90625 61.378906 258.101562 57.988281 251.996094 55.191406 C 252.964844 47.496094 259.210938 41.695312 266.722656 39.875 C 276.042969 37.621094 285.574219 42.46875 293.035156 47.609375 C 307.5 57.582031 321.035156 72.613281 324.902344 90.171875 C 326.9375 99.40625 325.375 108.605469 320.34375 116.519531 C 318.132812 114.933594 315.84375 113.445312 313.476562 112.070312 C 310.609375 110.402344 308.054688 114.796875 310.886719 116.511719 C 319.765625 121.894531 327.070312 129.613281 332.449219 138.472656 C 335.035156 142.734375 337.375 147.125 339.097656 151.804688 C 339.992188 154.234375 340.75 156.714844 341.386719 159.222656 C 342.0625 161.839844 342.320312 164.851562 343.671875 167.210938 C 343.777344 167.402344 343.933594 167.535156 344.070312 167.695312 C 345.828125 169.722656 349.746094 169.25 350.355469 166.339844 C 351.46875 160.988281 348.597656 154.234375 346.59375 149.339844 C 344.460938 144.117188 341.867188 139.027344 338.535156 134.46875 C 334.882812 129.460938 330.664062 124.984375 326.011719 120.992188 C 333.394531 113.875 334.996094 102.722656 333.726562 92.875 C 332.320312 81.964844 327.351562 71.785156 320.734375 63.097656 C 313.957031 54.199219 305.410156 46.421875 296.03125 40.339844 C 286.882812 34.410156 274.894531 29.992188 264.027344 33.488281 C 255.382812 36.269531 247.34375 43.792969 246.863281 52.996094 C 236.515625 48.945312 225.464844 46.675781 214.515625 46.894531 C 203.574219 47.113281 192.789062 50.125 184.398438 57.304688 C 184.375 56.28125 183.863281 55.3125 182.707031 55.125 C 168.625 52.816406 154.867188 52.800781 141.0625 55.636719 C 138.363281 48.609375 131.449219 42.695312 124.972656 39.824219 C 114.683594 35.253906 103.101562 36.808594 92.960938 40.996094 C 83.273438 44.992188 74.449219 51.082031 67.296875 58.753906 C 60.464844 66.082031 53.777344 75.460938 53.148438 85.796875 C 52.734375 92.574219 56.390625 99.976562 62.152344 103.261719 C 50.640625 106.292969 39.890625 112.492188 31.132812 120.421875 C 24.871094 126.09375 19.484375 132.851562 15.519531 140.320312 C 12.085938 146.800781 8.015625 156.78125 15.730469 161.90625 C 17.269531 162.929688 18.957031 162.042969 19.746094 160.6875 C 20.363281 159.613281 20.429688 158.246094 19.296875 157.261719 Z M 60.472656 91.777344 C 58.628906 86.683594 60.433594 80.859375 62.828125 76.28125 C 67.605469 67.140625 75.28125 59.273438 83.835938 53.597656 C 92.789062 47.660156 103.933594 42.828125 114.894531 44.167969 C 119.730469 44.753906 124.351562 46.773438 128.058594 49.925781 C 130.644531 52.117188 132.296875 54.679688 133.894531 57.371094 C 118.574219 61.617188 104.039062 69.089844 91.671875 79.0625 C 84.398438 84.917969 78.023438 91.710938 72.917969 99.542969 C 72.78125 99.746094 72.742188 99.949219 72.675781 100.160156 C 72.351562 99.96875 71.984375 99.84375 71.519531 99.859375 C 66.472656 100.039062 62.152344 96.429688 60.472656 91.777344 Z M 204.25 231.320312 C 202.710938 237.519531 197.054688 241.867188 190.691406 242.03125 C 186.644531 242.136719 182.964844 240.496094 180.183594 237.835938 C 177.359375 242.152344 172.34375 244.9375 166.929688 244.074219 C 159.65625 242.917969 154.910156 235.613281 156.03125 228.53125 C 156.441406 225.933594 160.730469 226.578125 160.582031 229.148438 C 160.339844 233.273438 163.246094 237.597656 167.535156 238.144531 C 171.601562 238.664062 175.769531 235.25 176.121094 231.191406 C 176.445312 227.441406 181.035156 227.035156 182.398438 230.34375 C 183.753906 233.621094 187.476562 235.875 190.992188 235.597656 C 194.710938 235.304688 197.796875 232.507812 199.308594 229.238281 C 200.636719 226.351562 204.953125 228.472656 204.25 231.320312 Z M 367.878906 250.800781 C 363.453125 253.980469 358.714844 257.289062 353.148438 257.875 C 347.996094 258.421875 343.015625 256.558594 338.625 254.019531 C 331.375 249.824219 326.628906 245.113281 324.429688 236.972656 C 322.355469 229.300781 322.226562 221.152344 322.378906 213.253906 C 322.535156 204.828125 323.152344 196.386719 323.746094 187.984375 C 324.210938 181.433594 324.832031 174.644531 323.917969 168.085938 C 323.835938 167.476562 323.753906 166.859375 323.640625 166.25 C 323.078125 163.265625 318.691406 164.574219 319.140625 167.492188 C 320.207031 174.390625 319.066406 181.832031 318.316406 188.699219 C 318.074219 190.910156 317.820312 193.113281 317.5625 195.320312 C 317.472656 196.109375 317.398438 196.898438 317.308594 197.679688 C 317.023438 200.238281 316.738281 202.800781 316.488281 205.363281 C 316.136719 209.023438 315.828125 212.683594 315.679688 216.363281 C 315.339844 224.78125 315.566406 233.621094 318.15625 241.707031 C 321.117188 250.960938 327.636719 256.941406 336.015625 261.601562 C 341.484375 264.644531 347.726562 266.636719 354.035156 265.976562 C 354.492188 265.929688 354.9375 265.839844 355.378906 265.765625 C 346.832031 273.378906 336.902344 279.488281 325.449219 280.441406 C 311.878906 281.570312 296.625 275.054688 291.464844 261.894531 C 293.710938 258.902344 295.398438 255.597656 296.136719 252.070312 C 297.707031 244.632812 295.421875 235.761719 288.707031 231.621094 C 288.730469 231.5625 288.773438 231.523438 288.789062 231.464844 C 290.789062 224.796875 293.019531 218.175781 295.070312 211.515625 C 296.074219 208.246094 297.066406 204.980469 298.050781 201.710938 C 298.660156 199.695312 299.359375 197.621094 299.867188 195.515625 C 301.679688 196.277344 304.21875 195.578125 304.984375 193.3125 C 308.535156 182.816406 307.183594 170.472656 304.34375 159.960938 C 302.59375 153.480469 300.003906 146.875 296.375 141.011719 C 294.121094 137.367188 291.472656 134 288.363281 131.144531 C 288.152344 130.949219 287.917969 130.828125 287.691406 130.722656 C 287.316406 130.550781 286.925781 130.46875 286.542969 130.492188 C 284.855469 130.574219 283.335938 132.339844 284.417969 134.195312 C 285.355469 135.804688 286.273438 137.40625 287.175781 139.015625 C 291.269531 146.328125 294.867188 153.722656 296.804688 162.050781 C 297.707031 165.90625 298.148438 169.730469 298.328125 173.546875 C 298.457031 176.230469 298.457031 178.921875 298.386719 181.613281 C 298.367188 182.394531 298.34375 183.175781 298.320312 183.957031 C 298.269531 185.394531 298.207031 186.835938 298.140625 188.285156 C 296.839844 187.957031 295.355469 188.339844 294.601562 189.691406 C 294.527344 189.828125 294.476562 189.984375 294.398438 190.128906 C 294.210938 190.496094 294.039062 190.878906 293.875 191.261719 C 293.875 191.269531 293.867188 191.277344 293.859375 191.285156 C 293.625 191.839844 293.402344 192.398438 293.214844 192.976562 C 292.5 195.109375 292.011719 197.359375 291.472656 199.492188 C 290.601562 202.933594 289.730469 206.375 288.878906 209.820312 C 287.265625 216.371094 285.808594 222.972656 284.15625 229.507812 C 284.101562 229.71875 284.058594 229.9375 283.996094 230.148438 C 283.824219 230.839844 283.945312 231.417969 284.207031 231.898438 C 283.691406 232.863281 283.789062 234.109375 285.066406 234.792969 C 285.972656 235.28125 286.722656 235.898438 287.414062 236.574219 C 289.429688 238.550781 290.523438 241.226562 290.847656 244.066406 C 291.140625 246.621094 290.832031 249.289062 289.984375 251.664062 C 287.527344 258.527344 281.566406 262.75 275.929688 266.929688 C 275.351562 266.710938 274.664062 266.675781 273.875 266.890625 C 270.675781 267.777344 267.46875 268.605469 264.253906 269.410156 C 262.351562 269.882812 260.453125 270.335938 258.550781 270.777344 C 238.851562 275.332031 218.933594 278.144531 198.804688 278.765625 C 196.566406 278.835938 194.328125 278.878906 192.082031 278.894531 C 186.570312 278.933594 181.035156 278.796875 175.492188 278.488281 C 173.84375 278.398438 172.207031 278.308594 170.5625 278.179688 C 156.234375 277.105469 142.007812 274.925781 128.015625 271.65625 C 127.210938 271.46875 126.398438 271.304688 125.597656 271.101562 C 124.921875 270.9375 124.238281 270.808594 123.570312 270.636719 C 118.429688 269.34375 113.097656 268.003906 107.839844 266.375 C 98.976562 263.628906 90.332031 260.054688 83.191406 254.425781 C 81.875 253.386719 80.621094 252.199219 79.441406 250.90625 C 78.648438 250.035156 77.894531 249.117188 77.183594 248.15625 C 69.972656 238.429688 67.351562 224.488281 77.347656 215.664062 C 78.113281 214.988281 78.21875 214.183594 77.984375 213.480469 C 78.070312 213.335938 78.171875 213.199219 78.234375 213.042969 C 78.519531 212.328125 78.667969 211.546875 78.753906 210.734375 C 79.039062 207.96875 78.363281 204.8125 78.070312 202.265625 C 77.664062 198.792969 77.128906 195.335938 76.492188 191.894531 C 75.621094 187.210938 74.378906 182.632812 72.945312 178.117188 C 72.8125 177.703125 72.699219 177.285156 72.5625 176.878906 C 72.007812 175.1875 71.421875 173.511719 70.8125 171.835938 C 70.730469 171.609375 70.601562 171.453125 70.492188 171.277344 C 69.152344 169.265625 65.789062 170.355469 66.34375 173.066406 C 67.710938 179.726562 68.703125 186.476562 69.519531 193.222656 C 69.910156 196.484375 70.210938 199.753906 70.453125 203.023438 C 70.714844 206.566406 70.316406 210.628906 71.910156 213.871094 C 71.953125 213.96875 72.03125 214.019531 72.082031 214.109375 C 63.265625 223.316406 63.820312 238.714844 70.078125 249.289062 C 73.375 254.867188 78 259.226562 83.273438 262.765625 C 82.351562 263.21875 81.621094 264.089844 81.574219 265.472656 C 81.003906 281.75 64.332031 292.8125 49.0625 292.105469 C 44 291.875 39.269531 290.542969 34.867188 288.453125 C 33.167969 287.652344 31.515625 286.742188 29.925781 285.71875 C 23.480469 281.578125 17.921875 275.804688 13.355469 269.523438 C 12.761719 268.703125 12.183594 267.875 11.621094 267.050781 C 12.664062 267.507812 13.710938 267.953125 14.753906 268.378906 C 17.503906 269.515625 20.304688 270.523438 23.285156 271.085938 C 28.09375 272.003906 32.777344 271.710938 37.058594 270.152344 C 40.132812 269.035156 43 267.28125 45.53125 264.757812 C 46.3125 263.976562 47.019531 263.15625 47.710938 262.332031 C 61.3125 246.210938 58.367188 222.566406 54.71875 203.289062 C 52.554688 191.847656 49.542969 180.433594 48.648438 168.796875 C 48.515625 167.003906 46.75 166.296875 45.441406 166.6875 C 44.601562 166.933594 43.941406 167.625 44.015625 168.796875 C 45.335938 188.445312 51.675781 207.398438 51.757812 227.203125 C 51.804688 237.109375 50.242188 246.714844 44.691406 255.109375 C 40.355469 261.652344 34.078125 265.675781 26.09375 264.308594 C 19.0625 263.105469 12.816406 259.292969 5.90625 257.632812 C 1.789062 256.640625 0.210938 262.472656 4.035156 263.945312 C 11.695312 277.496094 22.925781 289.835938 37.691406 295.472656 C 51.75 300.839844 68.132812 297.714844 79 287.140625 C 84.875 281.425781 88.417969 273.859375 87.929688 265.605469 C 94.675781 269.328125 102.117188 272.019531 109.164062 274.289062 C 118.949219 277.445312 128.96875 279.96875 139.117188 281.917969 C 137.253906 284.15625 136.203125 287.058594 136.050781 290.011719 C 135.855469 293.867188 137.289062 298.546875 140.699219 300.710938 C 139.925781 301.800781 139.222656 302.980469 138.613281 304.296875 C 134.300781 313.632812 133.722656 326.558594 137.433594 336.179688 C 141.4375 346.550781 151.042969 352.707031 161.777344 354.328125 C 163.535156 354.59375 164.675781 353.269531 164.726562 351.9375 C 164.726562 351.878906 164.75 351.8125 164.75 351.75 C 164.710938 350.894531 164.195312 350.074219 163.046875 349.714844 C 162.519531 349.550781 161.992188 349.367188 161.476562 349.195312 C 159.859375 348.664062 158.269531 348.070312 156.707031 347.398438 C 153.972656 346.226562 151.394531 344.792969 149.144531 342.933594 C 147.347656 341.453125 145.746094 339.734375 144.484375 337.605469 C 140.183594 330.332031 140.203125 320.296875 142.089844 312.273438 C 143.050781 308.167969 144.785156 304.101562 147.992188 301.253906 C 148.007812 301.238281 148.023438 301.214844 148.046875 301.199219 C 148.078125 301.171875 148.113281 301.148438 148.152344 301.125 C 149.960938 299.570312 152.058594 298.570312 154.289062 297.9375 C 154.308594 298.136719 154.332031 298.332031 154.363281 298.53125 C 154.378906 298.660156 154.414062 298.78125 154.429688 298.902344 C 154.535156 299.617188 154.65625 300.320312 154.828125 301.011719 C 155.960938 305.605469 158.480469 309.625 162.070312 312.769531 C 161.144531 313.8125 160.234375 314.878906 159.5 316.007812 C 158.402344 317.691406 158.816406 320.253906 159.410156 322.070312 C 159.84375 323.410156 160.484375 324.621094 161.273438 325.695312 C 162.382812 327.207031 163.820312 328.421875 165.507812 329.292969 C 165.875 333.691406 167.5 337.96875 170.148438 341.476562 C 170.707031 342.214844 171.3125 342.90625 171.960938 343.566406 C 173.785156 345.4375 175.910156 347.007812 178.367188 348.054688 C 181.605469 349.429688 184.496094 344.964844 181.214844 343.175781 C 180.0625 342.542969 179.011719 341.792969 178.023438 340.988281 C 177.796875 340.808594 177.5625 340.636719 177.351562 340.449219 C 173.636719 337.117188 171.328125 332.503906 171.351562 327.28125 C 171.359375 325.933594 170.414062 324.785156 169.160156 324.394531 C 166.507812 323.574219 164.816406 321.328125 164.601562 318.675781 C 165.757812 317.238281 166.914062 315.796875 168.078125 314.359375 C 168.378906 313.992188 168.589844 313.59375 168.714844 313.179688 C 168.820312 312.851562 168.859375 312.519531 168.84375 312.1875 C 168.804688 311.339844 168.386719 310.535156 167.515625 309.972656 C 163.644531 307.460938 160.972656 303.644531 159.546875 299.328125 C 159.484375 299.140625 159.433594 298.945312 159.371094 298.75 C 159.28125 298.457031 159.183594 298.15625 159.109375 297.855469 C 159.050781 297.609375 158.988281 297.359375 158.9375 297.113281 C 160.25 297.007812 161.566406 296.984375 162.863281 297.023438 C 164.050781 297.050781 165.246094 297.136719 166.433594 297.242188 C 170.617188 297.59375 174.808594 298.300781 178.90625 299.082031 C 182.972656 299.855469 187.109375 300.863281 190.894531 302.585938 C 191.375 302.800781 191.878906 302.988281 192.34375 303.238281 C 192.503906 303.320312 192.644531 303.417969 192.800781 303.5 C 195.535156 305.011719 197.917969 306.964844 199.644531 309.429688 C 199.652344 309.445312 199.660156 309.460938 199.675781 309.46875 C 199.984375 309.902344 200.253906 310.371094 200.515625 310.835938 C 200.589844 310.980469 200.675781 311.113281 200.75 311.257812 C 201.3125 312.339844 201.769531 313.488281 202.085938 314.730469 C 202.722656 317.238281 202.835938 319.90625 202.355469 322.457031 C 201.839844 325.207031 200.304688 327.484375 199.644531 330.175781 C 199.644531 330.175781 199.644531 330.179688 199.644531 330.179688 C 199.621094 330.277344 199.636719 330.382812 199.621094 330.480469 C 199.5625 330.949219 199.601562 331.421875 199.757812 331.863281 C 199.148438 333.332031 199.855469 335.398438 201.921875 335.398438 C 203.25 335.398438 203.992188 334.53125 204.21875 333.527344 C 206.3125 331.976562 207.710938 329.664062 208.589844 327.109375 C 209.621094 324.117188 209.941406 320.785156 209.761719 317.886719 C 209.574219 314.855469 208.84375 311.910156 207.621094 309.191406 C 206.457031 306.613281 204.851562 304.246094 202.808594 302.207031 C 200.945312 300.359375 198.847656 298.863281 196.609375 297.617188 C 195.027344 296.738281 193.375 295.96875 191.660156 295.332031 C 191.269531 295.179688 190.863281 295.054688 190.464844 294.910156 C 190.796875 294.738281 191.097656 294.519531 191.414062 294.316406 C 192.503906 293.640625 193.523438 292.867188 194.378906 291.898438 C 195.386719 290.769531 196.296875 289.410156 196.957031 287.949219 C 197.128906 287.558594 197.285156 287.167969 197.421875 286.769531 C 198.195312 286.757812 198.96875 286.75 199.742188 286.726562 C 201.777344 286.664062 203.8125 286.597656 205.839844 286.5 C 207.980469 286.394531 210.121094 286.269531 212.253906 286.117188 C 215.996094 285.855469 227.089844 284.683594 228.898438 284.449219 C 234.21875 283.757812 244.996094 281.8125 245.105469 281.789062 C 245.199219 282.105469 245.347656 282.398438 245.558594 282.660156 C 245.589844 282.699219 245.609375 282.734375 245.648438 282.773438 C 246.015625 283.164062 246.570312 283.417969 247.253906 283.507812 C 247.375 283.523438 247.472656 283.578125 247.609375 283.585938 C 250.9375 283.691406 254.253906 286.140625 254.375 289.632812 C 254.519531 293.828125 251.035156 295.886719 247.34375 296.503906 C 242.394531 297.324219 237.207031 297.253906 232.203125 297.457031 C 229.003906 297.585938 225.804688 297.644531 222.605469 297.652344 C 220.953125 297.660156 219.300781 297.644531 217.648438 297.609375 C 217.085938 297.601562 216.527344 297.609375 215.964844 297.59375 C 215.078125 297.570312 214.492188 297.976562 214.148438 298.539062 C 213.667969 299.316406 213.691406 300.382812 214.222656 301.164062 C 214.582031 301.695312 215.148438 302.09375 215.964844 302.148438 C 217.429688 302.238281 218.902344 302.3125 220.375 302.390625 C 220.660156 302.402344 220.953125 302.417969 221.238281 302.433594 C 225.480469 302.644531 229.726562 302.765625 233.96875 302.765625 C 234.699219 302.765625 235.433594 302.765625 236.164062 302.757812 C 236.261719 302.878906 236.3125 303.003906 236.441406 303.117188 C 237.730469 304.207031 239.03125 305.28125 240.324219 306.371094 C 242.644531 308.332031 244.957031 310.300781 247.316406 312.226562 C 248.691406 313.347656 250.066406 314.464844 251.4375 315.585938 C 251.898438 315.960938 252.355469 316.335938 252.820312 316.714844 C 254.421875 318 256.011719 319.3125 257.800781 320.304688 C 258.199219 320.523438 258.589844 320.75 259.003906 320.929688 C 262.042969 322.246094 264.589844 319.027344 262.496094 316.398438 C 260.933594 314.429688 258.835938 313 256.816406 311.519531 C 254.902344 310.121094 252.980469 308.746094 251.054688 307.363281 C 248.832031 305.769531 246.585938 304.230469 244.339844 302.667969 C 248.238281 302.5 252.152344 301.914062 255.1875 299.773438 C 259.398438 296.796875 261.480469 291.015625 259.785156 286.066406 C 258.851562 283.34375 256.929688 281.089844 254.527344 279.667969 C 261.144531 278.046875 267.667969 276.105469 274.082031 273.800781 C 274.957031 274.25 276 274.363281 276.976562 273.851562 C 280.714844 271.898438 284.578125 269.191406 287.867188 265.945312 C 294.011719 279.5625 309.371094 287.644531 324.164062 287.515625 C 344.152344 287.34375 361.734375 273.753906 372.640625 257.964844 C 373.121094 257.265625 373.25 256.535156 373.15625 255.84375 C 374.742188 252.851562 371.136719 248.457031 367.878906 250.800781 Z M 142.058594 291.332031 C 142.074219 291.429688 142.082031 291.519531 142.097656 291.617188 C 142.066406 291.484375 142.046875 291.355469 142.058594 291.332031 Z M 173.808594 291.625 C 172.320312 291.460938 170.855469 291.316406 169.414062 291.167969 C 167.605469 290.988281 165.769531 290.898438 163.945312 290.890625 C 160.296875 290.875 156.675781 291.25 153.304688 292.199219 C 152.238281 292.5 151.191406 292.859375 150.179688 293.28125 C 148.152344 294.121094 146.25 295.21875 144.546875 296.609375 C 144.425781 296.453125 144.304688 296.292969 144.1875 296.144531 C 144.238281 296.203125 144.261719 296.234375 144.28125 296.269531 C 144.246094 296.226562 144.199219 296.15625 144.148438 296.082031 C 144.050781 295.941406 143.953125 295.796875 143.855469 295.65625 C 143.398438 295 143.019531 294.324219 142.660156 293.609375 C 142.609375 293.429688 142.527344 293.25 142.472656 293.070312 C 142.351562 292.699219 142.253906 292.332031 142.171875 291.957031 C 142.164062 291.925781 142.128906 291.785156 142.097656 291.640625 C 142.082031 291.527344 142.066406 291.414062 142.058594 291.304688 C 142.023438 290.917969 142.007812 290.527344 142.007812 290.136719 C 142.007812 289.746094 142.039062 289.363281 142.066406 288.980469 C 142.066406 288.957031 142.066406 288.957031 142.066406 288.941406 C 142.066406 288.9375 142.066406 288.9375 142.066406 288.929688 C 142.097656 288.753906 142.121094 288.582031 142.148438 288.402344 C 142.21875 288.027344 142.308594 287.644531 142.414062 287.273438 C 142.472656 287.070312 142.535156 286.875 142.601562 286.679688 C 142.617188 286.636719 142.652344 286.546875 142.691406 286.457031 C 142.984375 285.847656 143.308594 285.277344 143.691406 284.726562 C 143.757812 284.644531 143.832031 284.539062 143.863281 284.5 C 144.058594 284.285156 144.246094 284.027344 144.441406 283.808594 C 144.417969 283.878906 145.289062 283.097656 144.863281 283.425781 C 145.003906 283.3125 145.117188 283.179688 145.238281 283.042969 C 146.605469 283.277344 147.972656 283.496094 149.339844 283.699219 C 153.800781 284.375 158.277344 284.945312 162.765625 285.402344 C 165.375 285.667969 167.980469 285.898438 170.59375 286.09375 C 170.78125 286.109375 170.96875 286.125 171.15625 286.140625 C 171.210938 286.34375 171.246094 286.546875 171.308594 286.75 C 171.824219 288.453125 172.679688 290.03125 173.832031 291.410156 C 173.898438 291.492188 173.949219 291.589844 174.027344 291.671875 C 173.964844 291.648438 173.890625 291.640625 173.808594 291.625 Z M 176.074219 286.433594 C 181.214844 286.710938 186.359375 286.863281 191.496094 286.867188 C 191.203125 287.355469 190.878906 287.832031 190.609375 288.140625 C 189.101562 289.867188 187.15625 291.144531 184.921875 291.402344 C 181.371094 291.8125 177.839844 289.621094 176.074219 286.433594 Z M 87.277344 184.175781 C 87.15625 185.378906 87.132812 186.558594 87.148438 187.738281 C 87.222656 193.871094 89.117188 199.648438 92.1875 204.941406 C 94.089844 208.21875 96.425781 211.3125 99.089844 214.171875 C 103.027344 218.386719 107.628906 222.089844 112.445312 225.195312 C 116.800781 228 121.324219 230.320312 125.664062 232.027344 C 126.917969 232.515625 128.300781 231.878906 129.238281 231.082031 C 136.832031 224.59375 145.273438 219.101562 152.636719 212.351562 C 158.191406 207.257812 163.917969 200.582031 166.011719 193.179688 C 166.996094 189.699219 167.28125 185.792969 166.890625 181.914062 C 166.328125 176.285156 164.320312 170.730469 160.875 166.648438 C 160.191406 165.835938 159.441406 165.109375 158.644531 164.425781 C 155.550781 161.777344 151.621094 160.140625 146.8125 160.238281 C 138.574219 160.402344 128.339844 164.125 122.5625 170.398438 C 121.007812 168 118.910156 166.117188 116.476562 164.808594 C 115.863281 164.476562 115.246094 164.140625 114.59375 163.882812 C 110.800781 162.378906 106.472656 162.125 102.425781 163.28125 C 101.015625 163.6875 99.707031 164.265625 98.484375 164.964844 C 97.332031 165.625 96.257812 166.402344 95.28125 167.28125 C 94.503906 167.988281 93.773438 168.761719 93.097656 169.582031 C 89.761719 173.652344 87.808594 178.988281 87.277344 184.175781 Z M 101.847656 170.023438 C 105.707031 167.777344 110.589844 167.703125 114.464844 169.617188 C 114.945312 169.859375 115.417969 170.097656 115.863281 170.398438 C 117.289062 171.359375 118.519531 172.632812 119.40625 174.230469 C 119.828125 175 120.464844 175.320312 121.113281 175.367188 C 121.15625 175.367188 121.195312 175.367188 121.242188 175.367188 C 121.316406 175.523438 121.398438 175.675781 121.488281 175.816406 C 121.675781 176.125 121.894531 176.410156 122.140625 176.660156 C 122.382812 176.898438 122.652344 177.097656 122.9375 177.261719 C 124.183594 177.988281 125.753906 177.976562 127.015625 176.503906 C 131.167969 171.65625 138.484375 168.730469 144.6875 167.902344 C 146.117188 167.714844 147.460938 167.800781 148.746094 168.0625 C 150.042969 168.324219 151.246094 168.820312 152.355469 169.476562 C 152.460938 169.535156 152.574219 169.574219 152.671875 169.632812 C 152.6875 169.640625 152.703125 169.648438 152.710938 169.65625 C 155.339844 171.316406 157.390625 173.953125 158.5625 177.179688 C 160.792969 183.332031 159.988281 189.054688 157.523438 194.214844 C 155.277344 198.921875 151.644531 203.167969 147.65625 206.871094 C 147.363281 207.144531 147.070312 207.421875 146.777344 207.691406 C 140.191406 213.605469 132.851562 218.648438 126.015625 224.285156 C 122.652344 222.882812 119.183594 221.144531 115.800781 219.085938 C 107.960938 214.289062 100.707031 207.78125 96.726562 199.84375 C 96.320312 199.035156 95.945312 198.214844 95.605469 197.378906 C 94.515625 194.644531 93.796875 191.765625 93.59375 188.730469 C 93.15625 181.777344 95.5 173.714844 101.847656 170.023438 Z M 101.847656 170.023438 "/></g></g></svg>