<svg xmlns="http://www.w3.org/2000/svg" xmlns:xlink="http://www.w3.org/1999/xlink" width="500" zoomAndPan="magnify" viewBox="0 0 375 374.999991" height="500" preserveAspectRatio="xMidYMid meet" version="1.2"><g id="b701fa8187"><path style=" stroke:none;fill-rule:nonzero;fill:#f0816a;fill-opacity:1;" d="M 355.683594 314.753906 C 353.390625 317.558594 348.78125 313.875 350.71875 310.921875 C 352.144531 308.738281 353.488281 306.5 354.746094 304.214844 C 354.519531 303.882812 354.339844 303.515625 354.285156 303.039062 C 351.167969 272.4375 330.703125 240.710938 301.148438 229.828125 C 301.375 232.28125 301.652344 234.738281 301.976562 237.199219 C 304.078125 238.507812 305.699219 241.039062 306.863281 243.011719 C 308.148438 245.191406 309.171875 247.597656 309.824219 250.046875 C 311.152344 255.027344 311.039062 260.371094 309.628906 265.320312 C 308.117188 270.605469 305.226562 275.378906 301.398438 279.304688 C 300.148438 280.574219 298.789062 281.730469 297.378906 282.828125 C 297.117188 283.535156 296.613281 284.199219 295.800781 284.710938 C 282.394531 293.128906 268.003906 299.761719 253.027344 304.84375 C 253.140625 308.46875 251.421875 312.664062 250.199219 315.71875 C 249.320312 317.914062 248.304688 320.03125 247.164062 322.078125 C 248.597656 324.019531 249.972656 326.003906 251.25 328.0625 C 253.441406 331.605469 257.347656 336.746094 256.640625 341.117188 C 255.859375 345.949219 250.707031 346.339844 246.832031 347.085938 C 241.832031 348.039062 236.835938 348.996094 231.835938 349.949219 C 218.382812 352.523438 203.105469 356.152344 189.226562 353.460938 C 188.625 353.425781 188.027344 353.339844 187.425781 353.28125 C 187.214844 354.328125 186.457031 355.25 185.253906 355.136719 C 176.25 354.28125 167.957031 350.957031 161.144531 345.289062 C 160.71875 345.09375 160.273438 344.898438 159.847656 344.703125 C 157.390625 343.558594 154.964844 342.371094 152.539062 341.167969 C 150.203125 340.011719 147.980469 338.484375 147.222656 335.824219 C 146.46875 333.191406 147.566406 330.242188 148.324219 327.71875 C 146.515625 323.230469 145.472656 318.453125 145.480469 313.613281 C 126.320312 310.136719 107.828125 302.957031 95.03125 287.605469 C 94.347656 286.785156 94.332031 285.835938 94.664062 285.054688 C 94.265625 284.875 93.890625 284.605469 93.605469 284.117188 C 88.21875 274.824219 89.457031 262.941406 95.902344 254.597656 C 95.179688 252.941406 94.851562 251.125 94.390625 249.378906 C 93.867188 247.386719 93.3125 245.394531 92.710938 243.425781 C 92.695312 243.378906 92.679688 243.332031 92.664062 243.289062 C 81.453125 257.144531 73.6875 273.542969 69.585938 290.890625 C 67.648438 299.078125 66.574219 307.460938 66.664062 315.882812 C 66.730469 322.515625 66.5 333.214844 73.203125 336.84375 C 76.449219 338.605469 74.046875 342.957031 70.863281 342.410156 C 67.503906 341.828125 65.175781 339.875 63.53125 337.28125 C 63.109375 337.785156 62.523438 338.175781 61.742188 338.332031 C 49.34375 340.84375 40.722656 330.566406 37.011719 319.933594 C 29.929688 299.613281 29.972656 276.175781 34.742188 255.371094 C 39.03125 236.679688 47.285156 215.109375 65.898438 206.640625 C 66.730469 206.257812 67.519531 206.394531 68.15625 206.753906 C 69.683594 205.394531 71.261719 204.101562 72.925781 202.949219 C 73.796875 202.117188 74.691406 201.296875 75.59375 200.492188 C 68.78125 200.898438 61.8125 201.6875 55.050781 200.914062 C 51.574219 201.417969 48.121094 201.921875 44.761719 202.4375 C 43.230469 202.671875 41.960938 202.320312 41.015625 201.632812 C 40.367188 204.71875 35.53125 204.386719 35.210938 200.914062 C 33.804688 185.808594 38.65625 170.542969 46.859375 157.941406 C 52.394531 149.4375 59.785156 141.453125 68.511719 135.835938 C 68.535156 135.746094 68.511719 135.664062 68.539062 135.574219 C 69.441406 132.875 70.441406 130.289062 71.523438 127.738281 C 71.148438 127.722656 70.773438 127.640625 70.402344 127.363281 C 60.585938 119.800781 56.5625 107.492188 57.734375 95.332031 C 59.753906 74.339844 75.527344 56.28125 96.539062 53.136719 C 113.027344 50.671875 135.476562 55.046875 140.84375 73.5 C 140.851562 73.519531 140.851562 73.542969 140.859375 73.574219 C 143.734375 72.996094 146.628906 72.515625 149.550781 72.191406 C 153.34375 71.769531 157.179688 71.785156 160.964844 71.324219 C 165.261719 70.816406 168.695312 69.085938 172.488281 67.160156 C 187.019531 59.777344 203.632812 59.03125 219.367188 62.507812 C 223.226562 63.355469 227.019531 64.5 230.746094 65.816406 C 232.03125 59.28125 236.707031 53.332031 241.726562 49.128906 C 244.398438 46.890625 247.179688 44.941406 250.46875 43.730469 C 255.847656 41.761719 261.847656 41.882812 267.464844 42.5 C 277.988281 43.648438 288.449219 46.722656 297.378906 52.542969 C 306.277344 58.347656 313.152344 66.589844 316.589844 76.703125 C 319.339844 84.792969 319.957031 95.152344 316.253906 103.226562 C 324.648438 108.582031 332.199219 115.519531 337.125 123.746094 C 341.421875 130.914062 343.855469 139.101562 345.222656 147.296875 C 345.910156 151.417969 346.371094 155.574219 346.664062 159.738281 C 346.941406 163.730469 347.699219 168.523438 346.476562 172.394531 C 346.097656 173.582031 345.191406 174.214844 344.214844 174.371094 C 343.921875 176.296875 343.492188 178.160156 342.898438 179.914062 C 342.027344 182.484375 338.589844 183.792969 336.269531 182.851562 C 335.703125 183.152344 335.082031 183.355469 334.40625 183.410156 C 326.59375 184.0625 318.949219 184.121094 311.28125 183.710938 C 312.273438 184.222656 313.257812 184.808594 314.234375 185.386719 C 324.515625 188.460938 333.789062 193.183594 342.210938 200.011719 C 358.417969 213.152344 369.351562 232.214844 372.101562 252.941406 C 374.96875 274.582031 369.59375 297.730469 355.683594 314.753906 Z M 324.550781 46.648438 C 326.167969 48.160156 327.730469 49.738281 329.222656 51.371094 C 329.253906 51.410156 329.285156 51.4375 329.3125 51.476562 C 329.097656 51.738281 328.847656 51.972656 328.636719 52.242188 C 327.136719 54.144531 325.257812 56.234375 324.523438 58.589844 C 323.671875 61.28125 327.269531 63.25 329.179688 61.304688 C 330.710938 59.746094 331.710938 57.566406 332.972656 55.792969 C 332.992188 55.753906 333.023438 55.730469 333.046875 55.695312 C 334.570312 57.46875 336.042969 59.289062 337.417969 61.175781 C 339.632812 64.234375 341.53125 67.4375 343.296875 70.710938 C 342.089844 71.492188 340.878906 72.265625 339.671875 73.046875 C 338.304688 73.925781 337.742188 75.722656 338.589844 77.175781 C 339.355469 78.484375 341.375 79.207031 342.710938 78.257812 C 343.808594 77.476562 344.90625 76.703125 345.996094 75.921875 C 347.355469 78.640625 348.675781 81.394531 350.058594 84.128906 C 351.824219 87.625 357.042969 85.136719 356.1875 81.542969 C 355.34375 78.019531 354.015625 74.625 352.378906 71.371094 C 355.519531 69.121094 358.640625 66.859375 361.804688 64.648438 C 362.902344 63.875 363.417969 62.46875 362.699219 61.242188 C 362.042969 60.128906 360.421875 59.605469 359.296875 60.347656 C 356.109375 62.453125 352.902344 64.527344 349.695312 66.605469 C 347.625 63.226562 345.304688 60.011719 342.890625 56.964844 C 341.128906 54.730469 339.257812 52.597656 337.265625 50.574219 C 339.851562 47.746094 342.5625 45.191406 345.738281 43.003906 C 346.761719 42.304688 347.21875 40.988281 346.566406 39.859375 C 345.964844 38.835938 344.460938 38.347656 343.425781 39.03125 C 341.546875 40.28125 339.796875 41.671875 338.019531 43.039062 C 336.425781 44.265625 334.878906 45.566406 333.429688 46.964844 C 330.019531 44.054688 326.273438 40.828125 322.292969 38.777344 C 320.0625 37.625 317.53125 40.519531 319.511719 42.386719 C 321.113281 43.882812 322.9375 45.136719 324.550781 46.648438 Z M 33.566406 147.003906 C 33.566406 145.25 32.347656 143.671875 30.554688 143.410156 C 26.722656 142.84375 22.871094 142.347656 19.089844 141.5 C 19.488281 137.304688 20.171875 133.117188 21.398438 128.914062 C 22.335938 125.71875 23.546875 122.621094 24.972656 119.621094 C 25.078125 119.671875 25.167969 119.730469 25.273438 119.777344 C 28.082031 121.128906 31.035156 122.226562 34.023438 123.128906 C 37.363281 124.136719 40.660156 125.054688 44.175781 124.867188 C 47.195312 124.710938 48.023438 119.792969 45.054688 118.851562 C 42.113281 117.921875 39.085938 117.558594 36.082031 116.859375 C 33.265625 116.207031 30.539062 115.289062 27.839844 114.25 C 30.90625 109.136719 34.675781 104.445312 39.101562 100.402344 C 41.351562 98.339844 38.542969 94.515625 36.199219 96.574219 C 30.988281 101.144531 26.375 106.242188 22.578125 111.890625 C 18.941406 110.0625 15.5 107.90625 12.289062 105.355469 C 9.855469 103.429688 7.074219 107.078125 9.34375 109.109375 C 12.511719 111.949219 15.980469 114.460938 19.632812 116.664062 C 18.003906 119.589844 16.574219 122.640625 15.410156 125.851562 C 13.878906 130.109375 12.671875 134.679688 11.867188 139.355469 C 11.820312 139.339844 11.777344 139.324219 11.730469 139.3125 C 9.847656 138.605469 7.773438 137.746094 5.714844 137.589844 C 5.414062 137.453125 5.113281 137.320312 4.8125 137.183594 C 2.34375 136.046875 -0.0234375 139.800781 2.328125 141.355469 C 3.296875 141.996094 4.019531 142.890625 4.957031 143.566406 C 6.0625 144.355469 7.285156 145.0625 8.515625 145.625 C 9.328125 145.996094 10.152344 146.332031 10.980469 146.664062 C 10.597656 151.761719 10.71875 156.859375 11.511719 161.695312 C 12.121094 165.363281 18.386719 165.941406 18.453125 161.800781 C 18.527344 157.527344 18.511719 153.320312 18.640625 149.136719 C 22.507812 150.101562 26.40625 150.6875 30.449219 150.515625 C 32.207031 150.429688 33.566406 148.65625 33.566406 147.003906 Z M 33.566406 147.003906 "/><path style=" stroke:none;fill-rule:nonzero;fill:#6699cc;fill-opacity:1;" d="M 130.007812 69.933594 C 130.78125 70.90625 131.539062 71.925781 132.273438 72.980469 C 132.726562 73.738281 133.152344 74.519531 133.574219 75.3125 C 132.085938 75.738281 130.601562 76.183594 129.136719 76.6875 C 116.074219 81.152344 103.96875 88.273438 93.714844 97.519531 C 87.976562 102.695312 82.871094 108.558594 78.453125 114.898438 C 76.472656 117.738281 74.835938 120.671875 73.363281 123.679688 C 73.339844 123.65625 73.332031 123.621094 73.300781 123.597656 C 58.589844 110.242188 62.253906 85.792969 74.648438 72.242188 C 84.9375 61.003906 101.339844 57.453125 115.894531 61.144531 C 119.664062 62.101562 123.34375 63.625 126.445312 66.019531 C 126.753906 66.25 127.003906 66.527344 127.289062 66.777344 C 128.128906 67.695312 128.949219 68.648438 129.738281 69.613281 C 129.8125 69.703125 129.894531 69.777344 129.96875 69.867188 C 129.984375 69.890625 129.992188 69.921875 130.007812 69.933594 Z M 68.171875 206.746094 C 69.699219 205.386719 71.273438 204.09375 72.941406 202.941406 C 73.8125 202.109375 74.707031 201.289062 75.609375 200.484375 C 68.796875 200.890625 61.828125 201.679688 55.066406 200.90625 C 51.589844 201.410156 48.136719 201.914062 44.777344 202.429688 C 43.246094 202.664062 41.976562 202.3125 41.03125 201.625 C 41.082031 201.394531 41.164062 201.183594 41.15625 200.90625 C 40.953125 186.925781 44.28125 173.199219 51.636719 161.25 C 59.160156 149.019531 70.042969 140.65625 82.644531 134.183594 C 84.980469 132.988281 83.367188 129.121094 80.851562 129.925781 C 79.304688 130.421875 77.777344 131.019531 76.292969 131.664062 C 87.488281 110.808594 105.980469 93.625 128.175781 85.3125 C 134.226562 83.039062 140.535156 81.355469 146.941406 80.421875 C 154.046875 79.386719 161.625 80.175781 168.484375 77.808594 C 172.003906 76.597656 175.160156 74.621094 178.53125 73.078125 C 182.167969 71.417969 186.058594 70.28125 189.976562 69.519531 C 197.472656 68.070312 205.398438 68.226562 212.90625 69.515625 C 219.261719 70.605469 225.472656 72.445312 231.480469 74.792969 C 231.992188 75.535156 232.78125 75.777344 233.554688 75.65625 C 234.945312 76.226562 236.332031 76.800781 237.699219 77.417969 C 246.082031 81.25 253.832031 86.339844 262.238281 90.0625 C 266.546875 91.972656 269.589844 86.640625 265.894531 83.800781 C 258.960938 78.476562 250.828125 74.417969 242.90625 70.761719 C 240.621094 69.710938 238.308594 68.722656 235.972656 67.777344 C 237.265625 62.605469 241.464844 58.109375 245.367188 54.769531 C 251.429688 49.605469 258.152344 48.625 265.992188 49.402344 C 283.070312 51.085938 301.328125 59.363281 308.488281 75.949219 C 310.304688 80.152344 311.332031 84.746094 311.378906 89.332031 C 311.417969 92.925781 310.664062 96.152344 309.613281 99.402344 C 306.863281 97.980469 304.070312 96.71875 301.292969 95.640625 C 293.578125 92.648438 285.714844 91.363281 277.511719 92.6875 C 274.691406 93.136719 275.929688 97.320312 278.683594 96.949219 C 286.917969 95.84375 296.027344 99.574219 303.230469 103.167969 C 304.996094 104.046875 306.714844 105.019531 308.417969 106.019531 C 308.488281 106.128906 308.585938 106.21875 308.667969 106.324219 C 308.621094 106.355469 308.585938 106.394531 308.539062 106.417969 C 308.652344 106.46875 308.773438 106.542969 308.886719 106.597656 C 309.378906 107.085938 310.042969 107.410156 310.761719 107.574219 C 310.996094 107.703125 311.222656 107.808594 311.453125 107.933594 C 316.441406 111.144531 321.128906 114.835938 325.234375 119.117188 C 326.25 120.167969 327.171875 121.273438 328.050781 122.402344 C 325.980469 122.355469 323.980469 122.964844 321.878906 123.429688 C 319.105469 124.039062 316.328125 124.589844 313.542969 125.117188 C 308.351562 126.085938 303.140625 126.875 297.898438 127.527344 C 290.851562 128.402344 283.753906 128.898438 276.648438 129.09375 C 276.101562 125.949219 275.296875 122.867188 274.035156 119.90625 C 272.269531 115.769531 269.523438 112.371094 266.269531 109.296875 C 263.746094 106.914062 260.351562 110.460938 262.515625 113.054688 C 266.1875 117.453125 268.101562 123.355469 268.898438 129.183594 C 267.628906 129.175781 266.359375 129.191406 265.089844 129.167969 C 261.164062 129.078125 261.320312 134.800781 265.089844 135.175781 C 266.503906 135.320312 267.921875 135.410156 269.335938 135.523438 C 269.386719 139.355469 269.140625 143.207031 268.703125 147.019531 C 268.222656 151.28125 267.214844 155.484375 267.148438 159.777344 C 267.074219 164.484375 273.667969 165.070312 275.085938 160.851562 C 276.566406 156.445312 276.90625 151.632812 277.28125 147.019531 C 277.582031 143.363281 277.671875 139.695312 277.453125 136.03125 C 284.664062 136.355469 291.882812 136.371094 299.105469 135.949219 C 304.761719 135.625 310.417969 134.957031 316.019531 134.136719 C 321.082031 133.394531 328.074219 133.175781 332.03125 129.703125 C 332.207031 129.550781 332.308594 129.378906 332.445312 129.207031 C 334.75 133.558594 336.425781 138.25 337.574219 143.183594 C 338.695312 147.972656 339.363281 152.84375 339.753906 157.746094 C 340.128906 162.410156 339.421875 167.980469 340.941406 172.417969 C 341.464844 173.949219 342.914062 174.613281 344.230469 174.394531 C 343.9375 176.320312 343.507812 178.183594 342.914062 179.933594 C 342.042969 182.507812 338.605469 183.816406 336.285156 182.875 C 335.71875 183.175781 335.097656 183.378906 334.421875 183.429688 C 326.609375 184.085938 318.964844 184.144531 311.296875 183.730469 C 312.289062 184.242188 313.269531 184.828125 314.246094 185.410156 C 313.472656 185.175781 312.707031 184.933594 311.917969 184.71875 C 308.9375 183.914062 307.742188 188.378906 310.648438 189.320312 C 320.871094 192.625 330.460938 198.296875 338.640625 205.507812 C 340.113281 206.964844 341.554688 208.410156 342.929688 209.785156 C 343.785156 210.640625 344.703125 211.523438 345.632812 212.425781 C 348.691406 215.828125 351.460938 219.460938 353.871094 223.273438 C 364.417969 239.914062 367.960938 260.257812 364.035156 279.550781 C 362.804688 285.605469 360.835938 291.445312 358.328125 297.054688 C 353.347656 265.371094 332.453125 234.703125 301.375 224.226562 C 301.140625 224.152344 300.921875 224.109375 300.714844 224.09375 C 299.925781 210.070312 301.097656 196.191406 305.875 182.605469 C 306.25 181.527344 305.84375 180.695312 305.144531 180.222656 C 305.046875 179.09375 304.582031 178.03125 303.738281 177.207031 C 303.042969 176.515625 301.914062 175.730469 300.945312 175.515625 C 300.242188 175.347656 299.488281 175.324219 298.761719 175.242188 C 298.40625 175.207031 298.054688 175.160156 297.703125 175.125 C 297.222656 175.046875 296.742188 174.980469 296.265625 174.882812 C 295.214844 174.664062 294.164062 174.507812 293.097656 174.363281 C 293.546875 174.421875 294 174.484375 294.441406 174.542969 C 294.277344 174.523438 294.105469 174.5 293.9375 174.46875 C 293.828125 174.453125 293.714844 174.429688 293.609375 174.417969 C 293.136719 174.265625 292.667969 174.242188 292.195312 174.28125 C 288.890625 173.949219 285.550781 173.867188 282.269531 173.421875 C 279.347656 173.03125 276.214844 172.078125 273.1875 171.527344 C 267.40625 170.476562 261.929688 171.117188 256.597656 172.949219 C 255.996094 172.640625 255.304688 172.421875 254.5 172.347656 C 250.109375 171.949219 245.855469 172.386719 241.464844 172.515625 C 237.386719 172.632812 233.328125 172.445312 229.257812 172.144531 C 227.785156 172.039062 226.285156 171.761719 224.789062 171.4375 C 227.335938 168.925781 230.488281 167.003906 233.78125 166.09375 C 236.941406 165.214844 240.285156 165.257812 243.445312 166.117188 C 245.136719 166.574219 246.699219 167.226562 248.199219 168.121094 C 249.949219 169.167969 251.390625 170.574219 253.320312 171.289062 C 256.730469 172.550781 258.804688 168.421875 257.582031 165.738281 C 256.558594 163.5 253.90625 161.925781 251.8125 160.816406 C 249.851562 159.777344 247.726562 158.933594 245.5625 158.417969 C 240.976562 157.304688 236.003906 157.324219 231.480469 158.777344 C 227.304688 160.121094 223.46875 162.695312 220.554688 165.972656 C 219.480469 167.183594 218.625 168.476562 217.863281 169.808594 C 217.738281 169.777344 217.609375 169.746094 217.488281 169.71875 C 215.851562 169.371094 213.953125 170.011719 212.464844 169.183594 C 212.179688 169.023438 211.902344 168.695312 211.738281 168.566406 C 211.699219 168.46875 211.675781 168.417969 211.644531 168.347656 C 212.546875 167.039062 213.382812 165.679688 214.199219 164.332031 C 216.136719 161.128906 217.820312 157.816406 219.21875 154.332031 C 221.816406 147.859375 222.695312 140.769531 221.214844 133.914062 C 219.839844 127.542969 215.917969 121.6875 210.203125 118.453125 C 204.367188 115.144531 197.121094 114.648438 190.683594 116.257812 C 186.882812 117.214844 183.1875 118.933594 179.996094 121.207031 C 177.878906 122.710938 175.785156 124.320312 174.117188 126.25 C 170.804688 121.003906 165.652344 116.214844 159.125 116.65625 C 151.578125 117.167969 146.808594 124.980469 144.734375 131.5 C 141.136719 142.828125 144.21875 155.679688 149.855469 166.199219 C 148.339844 165.777344 146.769531 165.515625 145.171875 165.4375 C 140.792969 165.234375 136.1875 166.542969 132.53125 168.941406 C 130.757812 170.109375 129.074219 171.492188 127.695312 173.109375 C 126.207031 174.84375 124.402344 177.160156 124.011719 179.476562 C 123.726562 181.191406 124.203125 182.898438 125.777344 183.824219 C 127.121094 184.613281 129.414062 184.550781 130.441406 183.222656 C 131.449219 181.914062 132.304688 180.144531 133.222656 178.980469 C 134.199219 177.753906 135.371094 176.671875 136.578125 175.875 C 139.164062 174.167969 141.949219 173.207031 144.921875 173.234375 C 148.199219 173.265625 151.472656 174.648438 154.242188 176.746094 C 153.117188 177.492188 151.992188 178.242188 150.824219 178.914062 C 144.765625 182.421875 138.359375 185.4375 131.75 187.753906 C 125.214844 190.046875 118.359375 191.175781 111.539062 192.226562 C 107.867188 192.792969 104.230469 193.523438 100.707031 194.703125 C 97.292969 195.851562 94.070312 197.582031 90.585938 198.535156 C 90.261719 198.625 89.992188 198.777344 89.765625 198.964844 C 88.617188 199.054688 87.460938 199.183594 86.339844 199.394531 C 84.832031 199.671875 83.726562 200.273438 82.433594 201.054688 C 81.242188 201.777344 81.054688 203.117188 81.535156 204.167969 C 79.710938 201.785156 75.960938 203.949219 77.402344 206.730469 C 81.472656 214.597656 85.347656 222.589844 88.472656 230.882812 C 89.328125 233.152344 90.140625 235.453125 90.914062 237.761719 C 90.855469 237.808594 90.792969 237.824219 90.742188 237.882812 C 69.277344 259.257812 57.085938 292.933594 59.722656 323.167969 C 59.941406 325.628906 60.308594 328.476562 61.039062 331.222656 C 60.960938 331.222656 60.886719 331.207031 60.804688 331.214844 C 51.117188 331.859375 45.996094 322.929688 43.570312 314.84375 C 40.871094 305.859375 39.429688 296.5 39.046875 287.136719 C 38.296875 268.453125 41.59375 249.039062 49.816406 232.144531 C 50.183594 231.394531 50.582031 230.640625 50.972656 229.890625 C 51.109375 229.828125 51.246094 229.753906 51.386719 229.710938 C 52.511719 227.445312 53.746094 225.222656 55.050781 223.046875 C 58.53125 217.996094 62.832031 213.542969 68.339844 210.808594 C 70.285156 209.816406 69.660156 207.589844 68.171875 206.746094 Z M 283.371094 150.589844 C 283.394531 150.589844 283.410156 150.589844 283.433594 150.589844 C 283.425781 150.582031 283.410156 150.582031 283.394531 150.574219 C 283.394531 150.574219 283.378906 150.582031 283.371094 150.589844 Z M 233.765625 124.011719 C 233.914062 124.371094 234.074219 124.730469 234.222656 125.09375 C 234.628906 125.777344 235.167969 126.320312 235.84375 126.71875 C 236.222656 126.875 236.605469 127.039062 236.980469 127.199219 C 237.167969 127.28125 237.355469 127.355469 237.550781 127.4375 C 238.082031 127.664062 238.609375 127.949219 239.164062 128.109375 C 239.5625 128.222656 239.976562 128.304688 240.382812 128.394531 C 240.832031 128.5 241.328125 128.597656 241.769531 128.597656 C 242.257812 128.597656 242.730469 128.492188 243.207031 128.386719 C 243.378906 128.347656 243.542969 128.3125 243.714844 128.28125 C 245.097656 127.988281 246.226562 126.722656 246.59375 125.402344 C 246.789062 124.671875 246.789062 123.941406 246.59375 123.214844 C 246.398438 122.515625 246.042969 121.914062 245.535156 121.394531 C 245.414062 121.25 245.285156 121.109375 245.164062 120.972656 C 244.964844 120.738281 244.835938 120.65625 244.550781 120.429688 C 244.242188 120.191406 244.144531 120.09375 243.851562 119.964844 C 243.492188 119.808594 243.128906 119.648438 242.769531 119.484375 C 242.191406 119.226562 241.742188 119.023438 241.171875 118.882812 C 240.96875 118.828125 240.765625 118.785156 240.570312 118.730469 C 240.164062 118.632812 239.765625 118.527344 239.359375 118.429688 C 238.757812 118.242188 238.160156 118.214844 237.550781 118.347656 C 236.949219 118.378906 236.386719 118.550781 235.867188 118.890625 C 235.558594 119.121094 235.257812 119.363281 234.953125 119.597656 C 234.507812 120.011719 234.199219 120.492188 234.011719 121.054688 C 233.808594 121.410156 233.703125 121.792969 233.703125 122.199219 C 233.554688 122.800781 233.578125 123.402344 233.765625 124.011719 Z M 147.898438 100.746094 C 147.898438 100.769531 147.90625 100.785156 147.90625 100.808594 C 147.90625 100.792969 147.910156 100.785156 147.910156 100.769531 C 147.90625 100.761719 147.898438 100.753906 147.898438 100.746094 Z M 52.410156 189.785156 C 52.363281 189.71875 52.332031 189.648438 52.296875 189.574219 C 52.257812 189.671875 52.21875 189.769531 52.183594 189.867188 C 52.257812 189.835938 52.332031 189.808594 52.410156 189.785156 Z M 88.796875 155.921875 C 88.105469 160.535156 87.878906 165.226562 88.257812 169.835938 C 88.765625 176.222656 89.945312 187.703125 97.832031 189.289062 C 100.503906 189.828125 102.136719 186.339844 99.71875 184.816406 C 96.609375 182.859375 96.351562 179.222656 96.074219 175.828125 C 95.78125 172.28125 95.730469 168.761719 95.925781 165.214844 C 96.113281 161.84375 96.59375 158.476562 97.320312 155.167969 C 104.996094 154.078125 112.441406 151.828125 119.101562 148.046875 C 122.789062 145.957031 120.324219 139.988281 116.210938 141.175781 C 110.855469 142.71875 105.546875 144.386719 100.136719 145.671875 C 100.207031 145.476562 100.265625 145.28125 100.332031 145.085938 C 105.460938 131.558594 115.007812 121.957031 125.839844 112.828125 C 129.210938 109.988281 124.90625 105.65625 121.484375 107.183594 C 106.445312 113.867188 96.023438 130.257812 91.207031 145.453125 C 91.003906 146.09375 90.824219 146.746094 90.636719 147.394531 C 82.414062 148.394531 73.8125 148.460938 65.640625 147.183594 C 61.59375 146.550781 59.738281 152.535156 63.90625 153.476562 C 71.824219 155.25 80.339844 156.207031 88.796875 155.921875 Z M 88.796875 155.921875 "/><path style=" stroke:none;fill-rule:nonzero;fill:#f7b9ac;fill-opacity:1;" d="M 180.078125 275.605469 C 180.101562 275.613281 180.125 275.621094 180.148438 275.632812 C 180.140625 275.632812 180.140625 275.640625 180.132812 275.640625 C 180.101562 275.628906 180.085938 275.621094 180.058594 275.605469 C 180.066406 275.605469 180.078125 275.605469 180.078125 275.605469 Z M 238.554688 264.875 C 238.59375 264.882812 238.632812 264.90625 238.667969 264.914062 C 238.632812 264.777344 238.609375 264.640625 238.5625 264.507812 C 238.511719 264.71875 238.488281 264.867188 238.554688 264.875 Z M 193.183594 292.273438 C 193.199219 292.273438 193.214844 292.28125 193.230469 292.28125 C 193.246094 292.28125 193.261719 292.28125 193.277344 292.28125 C 193.207031 292.273438 193.132812 292.257812 193.066406 292.25 C 193.066406 292.257812 193.125 292.265625 193.183594 292.273438 Z M 230.8125 285.769531 C 231.054688 285.492188 231.316406 285.242188 231.550781 284.957031 C 231.496094 284.964844 231.4375 284.980469 231.382812 284.988281 C 231.203125 285.257812 231 285.507812 230.8125 285.769531 Z M 179.898438 275.613281 C 179.800781 275.613281 179.703125 275.621094 179.605469 275.621094 C 179.703125 275.695312 179.929688 275.679688 180.070312 275.648438 C 180.027344 275.632812 179.988281 275.621094 179.953125 275.605469 C 179.929688 275.613281 179.921875 275.613281 179.898438 275.613281 Z M 223.625 257.738281 C 223.273438 257.828125 222.917969 257.929688 222.566406 258.03125 C 222.730469 258.046875 222.898438 258.019531 223.0625 258.039062 C 223.25 257.921875 223.445312 257.84375 223.625 257.738281 Z M 303.742188 177.183594 C 304.582031 178.019531 305.046875 179.078125 305.144531 180.199219 C 303.988281 179.417969 302.027344 179.613281 301.390625 181.339844 C 294.734375 199.394531 291.476562 219.828125 295.675781 238.84375 C 295.441406 239.460938 295.375 240.144531 295.449219 240.867188 C 294.21875 240.613281 292.933594 240.523438 291.664062 240.507812 C 288.773438 240.460938 285.902344 240.738281 283.042969 241.144531 C 277.453125 241.941406 272.054688 243.695312 266.992188 246.191406 C 263.515625 247.898438 260.253906 251.191406 259.78125 254.90625 C 258.375 256.03125 257.332031 257.46875 257.355469 259.492188 C 257.414062 265.386719 265.382812 266.542969 269.824219 267.03125 C 279.152344 268.054688 289.042969 264.492188 295.9375 258.214844 C 297.882812 256.445312 300.03125 253.980469 301.15625 251.347656 C 301.214844 251.527344 301.269531 251.71875 301.320312 251.90625 C 301.605469 253.738281 301.839844 255.574219 301.996094 257.429688 C 302.050781 257.453125 302.089844 257.492188 302.140625 257.523438 C 302.15625 259.535156 301.898438 261.574219 301.328125 263.558594 C 300.210938 267.484375 297.996094 271.222656 295.1875 274.3125 C 293.5625 276.101562 291.761719 277.710938 289.808594 279.125 C 289.492188 279.347656 289.175781 279.566406 288.871094 279.792969 C 265.757812 292.566406 240.855469 301.761719 214.785156 306.222656 C 213.207031 306.492188 211.617188 306.71875 210.023438 306.949219 C 209.679688 306.996094 209.332031 307.046875 208.980469 307.09375 C 208.980469 307.101562 208.988281 307.101562 208.988281 307.109375 C 189.910156 309.890625 169.917969 310.429688 150.699219 307.621094 C 149.949219 307.125 149.015625 306.996094 148.128906 307.230469 C 144.285156 306.605469 140.476562 305.816406 136.707031 304.914062 C 135.925781 304.671875 135.144531 304.445312 134.371094 304.199219 C 134.183594 304.199219 134.019531 304.214844 133.835938 304.222656 C 123.105469 301.386719 112.539062 296.808594 104.011719 289.632812 C 103.921875 289.402344 103.796875 289.199219 103.71875 288.964844 C 101.511719 287.347656 99.535156 285.453125 97.996094 283.167969 C 98.074219 282.710938 98.027344 282.214844 97.75 281.695312 C 95.316406 277.085938 94.476562 271.621094 95.25 266.417969 C 95.25 266.386719 95.253906 266.355469 95.261719 266.332031 C 95.738281 263.214844 96.796875 260.191406 98.449219 257.515625 C 100.460938 258.289062 102.847656 256.898438 103.125 254.347656 C 103.382812 251.964844 102.503906 249.589844 101.828125 247.332031 C 101.152344 245.070312 100.429688 242.824219 99.664062 240.597656 C 98.222656 236.402344 96.585938 232.28125 94.804688 228.214844 C 91.148438 219.84375 86.84375 211.761719 81.617188 204.265625 C 81.585938 204.226562 81.550781 204.214844 81.519531 204.175781 C 81.046875 203.125 81.226562 201.785156 82.421875 201.0625 C 83.710938 200.28125 84.816406 199.679688 86.324219 199.402344 C 87.453125 199.191406 88.601562 199.0625 89.75 198.972656 C 89.976562 198.785156 90.246094 198.632812 90.570312 198.542969 C 94.054688 197.589844 97.269531 195.859375 100.695312 194.710938 C 104.222656 193.523438 107.859375 192.800781 111.523438 192.234375 C 118.34375 191.183594 125.199219 190.054688 131.734375 187.761719 C 138.34375 185.4375 144.757812 182.429688 150.8125 178.921875 C 151.976562 178.242188 153.101562 177.5 154.226562 176.753906 C 156.464844 178.445312 158.390625 180.605469 159.652344 182.972656 C 161.011719 185.515625 164.546875 183.679688 164.066406 181.109375 C 163.4375 177.753906 161.910156 174.792969 159.777344 172.371094 C 160.320312 171.46875 160.417969 170.296875 159.6875 169.039062 C 154.222656 159.625 149.054688 148.347656 150.722656 137.160156 C 150.820312 136.5 150.96875 135.777344 151.132812 135.03125 C 151.871094 135.453125 152.769531 135.574219 153.648438 135.0625 C 153.972656 134.875 154.3125 134.695312 154.632812 134.515625 C 154.722656 134.46875 154.746094 134.460938 154.785156 134.4375 C 154.933594 134.386719 155.09375 134.332031 155.25 134.289062 C 155.957031 134.0625 156.648438 133.800781 157.351562 133.589844 C 158.695312 133.183594 160.078125 132.835938 161.46875 132.597656 C 161.828125 132.535156 162.21875 132.429688 162.582031 132.417969 C 162.730469 132.410156 162.878906 132.402344 162.949219 132.394531 C 163.601562 132.339844 164.261719 132.3125 164.914062 132.296875 C 166.621094 132.25 168.605469 132.753906 170.242188 132.160156 C 170.738281 131.980469 171.171875 131.722656 171.5625 131.421875 C 171.789062 132.867188 173.230469 133.851562 174.875 133.078125 C 177.324219 131.925781 179.425781 130.242188 181.640625 128.695312 C 181.746094 130.167969 183.015625 131.597656 184.714844 131.003906 C 185.585938 130.703125 186.507812 130.785156 187.476562 130.621094 C 188.332031 130.46875 189.160156 130.304688 189.707031 130.25 C 191.617188 130.078125 193.507812 129.925781 195.429688 129.996094 C 195.898438 130.011719 196.363281 130.039062 196.820312 130.078125 C 197.082031 130.101562 197.355469 130.128906 197.617188 130.152344 C 198.058594 130.207031 198.140625 130.214844 197.871094 130.183594 C 197.601562 130.152344 197.683594 130.167969 198.121094 130.226562 C 198.382812 130.273438 198.636719 130.320312 198.902344 130.371094 C 199.351562 130.460938 199.800781 130.558594 200.253906 130.671875 C 202.128906 131.136719 203.867188 131.988281 205.71875 132.484375 C 207.679688 133.011719 209.707031 132.054688 210.617188 130.296875 C 212.34375 133.175781 213.132812 136.445312 213.230469 139.769531 C 213.214844 139.941406 213.214844 140.109375 213.199219 140.28125 C 213.222656 140.589844 213.230469 140.90625 213.253906 141.214844 C 213.179688 143.476562 212.808594 145.730469 212.195312 147.875 C 211.121094 151.589844 209.421875 155.023438 207.476562 158.347656 C 205.433594 161.835938 202.445312 165.191406 201.46875 169.183594 C 200.757812 172.117188 204.144531 175.355469 206.945312 173.394531 C 208.859375 172.054688 210.332031 170.257812 211.652344 168.332031 C 211.683594 168.402344 211.707031 168.453125 211.742188 168.550781 C 211.910156 168.6875 212.1875 169.011719 212.472656 169.167969 C 213.960938 169.996094 215.859375 169.347656 217.496094 169.703125 C 217.617188 169.730469 217.746094 169.761719 217.871094 169.792969 C 216.484375 172.234375 215.527344 174.867188 214.972656 177.753906 C 214.363281 180.941406 218.832031 182.234375 219.863281 179.101562 C 220.800781 176.234375 222.574219 173.597656 224.789062 171.410156 C 226.285156 171.730469 227.785156 172.011719 229.257812 172.117188 C 233.320312 172.410156 237.386719 172.597656 241.464844 172.484375 C 245.855469 172.355469 250.113281 171.921875 254.5 172.320312 C 255.304688 172.394531 255.996094 172.613281 256.597656 172.921875 C 261.921875 171.085938 267.40625 170.453125 273.1875 171.5 C 276.214844 172.046875 279.347656 172.996094 282.269531 173.394531 C 285.550781 173.835938 288.898438 173.921875 292.195312 174.25 C 292.667969 174.214844 293.136719 174.242188 293.609375 174.386719 C 293.722656 174.402344 293.832031 174.425781 293.9375 174.4375 C 294.105469 174.460938 294.277344 174.492188 294.441406 174.515625 C 293.992188 174.453125 293.539062 174.394531 293.097656 174.332031 C 294.164062 174.476562 295.214844 174.632812 296.265625 174.851562 C 296.742188 174.949219 297.222656 175.019531 297.703125 175.09375 C 298.054688 175.128906 298.40625 175.175781 298.761719 175.214844 C 299.480469 175.296875 300.242188 175.320312 300.945312 175.484375 C 301.921875 175.710938 303.042969 176.492188 303.742188 177.183594 Z M 142.851562 269.507812 C 141.394531 268.175781 139.484375 267.484375 137.699219 266.710938 C 135.664062 265.824219 133.621094 264.957031 131.539062 264.175781 C 123.960938 261.304688 115.625 259.542969 107.59375 261.527344 C 103.824219 262.460938 99.433594 264.515625 99.230469 268.980469 C 99.0625 272.492188 101.84375 276.03125 104.238281 278.347656 C 108.753906 282.730469 114.984375 285.128906 121.242188 285.296875 C 122.105469 285.320312 123.023438 285.273438 123.953125 285.199219 C 126.808594 285.425781 129.652344 285.328125 132.515625 284.859375 C 136.136719 284.265625 140.347656 283.183594 142.859375 280.304688 C 145.492188 277.304688 145.980469 272.378906 142.851562 269.507812 Z M 168.402344 245.0625 C 170.496094 247.222656 173.359375 244.492188 172.285156 242.0625 C 167.628906 231.46875 155.039062 224.777344 144.007812 223.425781 C 133.257812 222.101562 122.292969 225.6875 114.023438 232.542969 C 112.761719 230.972656 111.480469 229.410156 110.125 227.898438 C 107.265625 224.695312 101.625 228.933594 104.109375 232.542969 C 106.199219 235.574219 108.445312 238.445312 110.726562 241.332031 C 112.0625 243.027344 115.074219 242.777344 116.449219 241.332031 C 123.480469 233.925781 133.335938 230.070312 143.527344 230.90625 C 154.011719 231.769531 161.386719 237.84375 168.402344 245.0625 Z M 244.894531 268.386719 C 245.097656 261.710938 241.066406 254.933594 234.777344 252.574219 C 225.894531 249.234375 217.59375 254.167969 209.144531 256.417969 C 199.351562 259.027344 189.265625 260.183594 179.320312 262.03125 C 171.382812 263.507812 162.511719 265.03125 160.257812 274.109375 C 158.230469 282.289062 163.015625 290.453125 168.207031 296.429688 C 171.816406 300.589844 177.765625 303.167969 182.875 304.828125 C 191.074219 307.5 199.808594 307.628906 207.832031 304.605469 C 208.402344 304.941406 209.109375 305.09375 209.925781 304.890625 C 223.046875 301.679688 234.589844 293.128906 240.945312 281.109375 C 243.003906 277.234375 244.769531 272.824219 244.894531 268.386719 Z M 280.457031 217.785156 C 279.152344 219.460938 277.910156 221.167969 276.6875 222.890625 C 267.855469 216.542969 256.753906 213.808594 245.917969 215.824219 C 234.816406 217.890625 222.972656 225.824219 219.042969 236.738281 C 218.21875 239.027344 221.605469 241.011719 223.183594 239.152344 C 229.738281 231.402344 236.609375 225.039062 247 223.242188 C 256.914062 221.535156 267.3125 224.828125 274.675781 231.621094 C 276.695312 233.484375 279.519531 232.996094 281.027344 230.800781 C 282.921875 228.046875 284.769531 225.304688 286.472656 222.429688 C 288.621094 218.808594 283.191406 214.265625 280.457031 217.785156 Z M 280.457031 217.785156 "/><path style=" stroke:none;fill-rule:nonzero;fill:#f0816a;fill-opacity:1;" d="M 206.410156 315.230469 C 205.871094 315.882812 205.335938 316.542969 204.738281 317.136719 C 203.828125 318.039062 203.421875 318.328125 202.296875 318.972656 C 200.425781 320.046875 198.527344 320.53125 196.257812 320.410156 C 195.417969 320.363281 194.5 320.136719 193.367188 319.769531 C 192.417969 319.460938 191.628906 319.078125 190.648438 318.445312 C 189.875 317.941406 189.085938 317.28125 188.363281 316.542969 C 194.386719 316.347656 200.410156 315.90625 206.410156 315.230469 Z M 238.554688 264.875 C 238.59375 264.882812 238.632812 264.90625 238.667969 264.914062 C 238.984375 266.039062 239.1875 267.152344 239.1875 268.03125 C 239.1875 271.152344 237.925781 274.378906 236.574219 277.136719 C 235.183594 279.964844 233.496094 282.582031 231.558594 284.957031 C 231.503906 284.964844 231.445312 284.980469 231.390625 284.988281 C 231.210938 285.25 231.007812 285.507812 230.820312 285.769531 C 225.03125 292.484375 217.203125 297.230469 208.425781 299.378906 C 207.484375 299.613281 206.90625 300.160156 206.613281 300.835938 C 195.402344 303.046875 182.753906 301.664062 173.679688 294.160156 C 169.675781 290.851562 165.832031 284.363281 165.417969 279.175781 C 165.179688 276.160156 166.058594 272.859375 168.535156 270.957031 C 171.464844 268.695312 176.167969 268.371094 179.679688 267.703125 C 187.710938 266.175781 195.828125 265.160156 203.835938 263.507812 C 207.851562 262.679688 211.835938 261.695312 215.730469 260.425781 C 218.039062 259.671875 220.269531 258.71875 222.566406 258.027344 C 222.730469 258.039062 222.898438 258.011719 223.0625 258.03125 C 223.242188 257.914062 223.4375 257.84375 223.617188 257.730469 C 224.878906 257.410156 226.164062 257.175781 227.507812 257.136719 C 230.777344 257.046875 234.417969 257.859375 236.566406 260.535156 C 237.445312 261.632812 238.113281 263.070312 238.554688 264.5 C 238.511719 264.71875 238.488281 264.867188 238.554688 264.875 Z M 180.070312 275.65625 C 180.027344 275.640625 179.988281 275.628906 179.953125 275.613281 C 179.929688 275.613281 179.929688 275.613281 179.90625 275.613281 C 179.808594 275.613281 179.710938 275.621094 179.613281 275.621094 C 179.703125 275.695312 179.9375 275.6875 180.070312 275.65625 Z M 180.15625 275.632812 C 180.132812 275.628906 180.109375 275.621094 180.085938 275.605469 C 180.078125 275.605469 180.070312 275.605469 180.066406 275.605469 C 180.09375 275.621094 180.109375 275.628906 180.140625 275.640625 C 180.148438 275.640625 180.148438 275.632812 180.15625 275.632812 Z M 193.277344 292.28125 C 193.207031 292.273438 193.132812 292.257812 193.066406 292.25 C 193.066406 292.257812 193.125 292.265625 193.183594 292.273438 C 193.199219 292.273438 193.214844 292.28125 193.230469 292.28125 C 193.246094 292.28125 193.269531 292.28125 193.277344 292.28125 Z M 142.851562 269.507812 C 145.988281 272.378906 145.492188 277.304688 142.863281 280.3125 C 140.347656 283.191406 136.144531 284.28125 132.523438 284.867188 C 129.652344 285.332031 126.808594 285.425781 123.960938 285.207031 C 123.03125 285.289062 122.113281 285.328125 121.25 285.304688 C 114.992188 285.136719 108.761719 282.738281 104.246094 278.355469 C 101.851562 276.03125 99.078125 272.492188 99.238281 268.988281 C 99.445312 264.523438 103.832031 262.46875 107.601562 261.535156 C 115.632812 259.550781 123.96875 261.3125 131.546875 264.183594 C 133.621094 264.972656 135.671875 265.828125 137.707031 266.71875 C 139.476562 267.492188 141.386719 268.175781 142.851562 269.507812 Z M 121.550781 262.3125 C 119.589844 264.574219 117.96875 267.0625 116.8125 269.828125 C 116.292969 271.0625 115.851562 272.328125 115.527344 273.628906 C 115.363281 274.289062 115.203125 274.964844 115.105469 275.640625 C 114.941406 276.695312 115.082031 277.648438 115.234375 278.695312 C 115.375 279.6875 116.601562 280.507812 117.554688 280.460938 C 118.636719 280.417969 119.550781 279.746094 119.875 278.695312 C 120.109375 277.914062 120.347656 277.183594 120.445312 276.363281 C 120.453125 276.273438 120.542969 275.628906 120.527344 275.695312 C 120.566406 275.4375 120.613281 275.175781 120.65625 274.921875 C 120.882812 273.6875 121.191406 272.460938 121.574219 271.273438 C 121.957031 270.09375 122.367188 268.964844 122.773438 268.101562 C 123.316406 266.925781 123.945312 265.792969 124.652344 264.703125 C 125.839844 262.835938 123.03125 260.605469 121.550781 262.3125 Z M 135.339844 267.085938 C 134.648438 266.550781 133.507812 266.527344 132.890625 267.226562 C 132.289062 267.914062 131.660156 268.582031 131.089844 269.304688 C 130.425781 270.136719 129.855469 271.039062 129.347656 271.972656 C 128.828125 272.921875 128.382812 273.90625 128.070312 274.933594 C 127.875 275.566406 127.671875 276.25 127.714844 276.921875 C 127.777344 277.679688 127.859375 278.550781 128.339844 279.175781 C 128.789062 279.769531 129.242188 280.160156 130 280.257812 C 130.757812 280.363281 131.320312 280.109375 131.90625 279.632812 C 132.335938 279.289062 132.597656 278.792969 132.832031 278.304688 C 133.132812 277.679688 133.242188 277.136719 133.363281 276.484375 C 133.53125 275.628906 133.695312 274.753906 133.921875 273.90625 C 134.023438 273.5 134.144531 273.09375 134.289062 272.695312 C 134.355469 272.5 134.4375 272.304688 134.511719 272.109375 C 134.617188 271.84375 134.519531 272.085938 134.46875 272.207031 C 134.566406 271.980469 134.65625 271.753906 134.753906 271.523438 C 134.792969 271.429688 134.820312 271.339844 134.859375 271.25 C 134.925781 271.046875 135.039062 270.84375 135.136719 270.648438 C 135.332031 270.234375 135.574219 269.867188 135.835938 269.492188 C 136.351562 268.738281 136.023438 267.613281 135.339844 267.085938 Z M 266.03125 250.882812 C 266.050781 250.890625 266.074219 250.90625 266.105469 250.921875 C 266.089844 250.914062 266.082031 250.90625 266.066406 250.890625 C 266.050781 250.890625 266.046875 250.890625 266.03125 250.882812 Z M 291.664062 240.507812 C 292.933594 240.527344 294.21875 240.613281 295.449219 240.867188 C 295.464844 240.996094 295.441406 241.109375 295.464844 241.234375 C 295.945312 243.695312 298.101562 245.347656 299.339844 247.417969 C 300.210938 248.882812 300.707031 249.957031 301.15625 251.347656 C 300.039062 253.988281 297.882812 256.445312 295.9375 258.214844 C 289.042969 264.492188 279.160156 268.046875 269.824219 267.03125 C 265.382812 266.542969 257.414062 265.386719 257.355469 259.492188 C 257.332031 257.46875 258.375 256.03125 259.78125 254.90625 C 260.253906 251.183594 263.515625 247.898438 266.992188 246.191406 C 272.054688 243.703125 277.453125 241.941406 283.042969 241.144531 C 285.910156 240.738281 288.773438 240.46875 291.664062 240.507812 Z M 273.929688 257.777344 C 273.601562 257.226562 273.253906 256.6875 272.78125 256.25 C 272.480469 255.972656 272.171875 255.6875 271.867188 255.417969 C 271.210938 254.835938 270.550781 254.265625 269.890625 253.6875 C 269.148438 253.039062 268.394531 252.234375 267.523438 251.769531 C 267.171875 251.582031 266.847656 251.355469 266.511719 251.144531 C 266.464844 251.117188 266.285156 251.019531 266.113281 250.929688 C 266.066406 250.890625 266.023438 250.84375 265.976562 250.808594 C 265.886719 250.726562 265.796875 250.640625 265.714844 250.558594 C 264.976562 249.867188 263.703125 249.769531 262.980469 250.558594 C 262.238281 251.371094 262.265625 252.484375 262.980469 253.296875 C 263.046875 253.371094 263.109375 253.4375 263.175781 253.515625 C 263.191406 253.527344 263.429688 253.824219 263.320312 253.664062 C 263.320312 253.648438 263.304688 253.621094 263.273438 253.550781 C 263.207031 253.109375 263.410156 253.875 263.507812 254.054688 C 263.703125 254.402344 263.925781 254.738281 264.105469 255.09375 C 264.574219 255.996094 265.363281 256.785156 266.007812 257.566406 C 266.546875 258.222656 267.089844 258.882812 267.636719 259.535156 C 267.898438 259.851562 268.179688 260.160156 268.449219 260.476562 C 268.882812 260.980469 269.445312 261.339844 270.003906 261.703125 C 271.023438 262.371094 272.660156 262.152344 273.488281 261.25 C 274.335938 260.332031 274.621094 258.898438 273.929688 257.777344 Z M 288.207031 253.671875 C 287.789062 253.226562 287.382812 252.824219 286.871094 252.476562 C 286.503906 252.226562 286.128906 251.996094 285.769531 251.738281 C 285.0625 251.242188 284.363281 250.738281 283.664062 250.234375 C 282.988281 249.753906 282.320312 249.226562 281.570312 248.875 C 281.375 248.785156 281.171875 248.710938 280.976562 248.632812 C 280.976562 248.632812 280.984375 248.632812 280.992188 248.632812 C 280.878906 248.664062 280.480469 248.363281 280.375 248.296875 C 280.007812 248.046875 279.660156 247.753906 279.308594 247.492188 C 278.964844 247.226562 278.273438 247.175781 277.882812 247.304688 C 277.492188 247.429688 277.167969 247.640625 276.921875 247.972656 C 276.394531 248.65625 276.363281 249.808594 277.0625 250.410156 C 277.378906 250.679688 277.707031 250.949219 278.015625 251.226562 C 278.183594 251.371094 278.308594 251.542969 278.453125 251.703125 C 278.496094 251.785156 278.558594 251.867188 278.609375 251.941406 C 279.1875 252.761719 279.953125 253.425781 280.691406 254.101562 C 281.3125 254.664062 281.9375 255.222656 282.554688 255.792969 C 282.882812 256.09375 283.191406 256.410156 283.515625 256.71875 C 283.972656 257.160156 284.5 257.476562 285.039062 257.800781 C 286.164062 258.484375 287.644531 258.136719 288.425781 257.125 C 289.214844 256.078125 289.117188 254.628906 288.207031 253.671875 Z M 165.1875 125.492188 C 163.1875 124.109375 160.769531 122.753906 158.328125 123.785156 C 154.410156 125.429688 152.148438 130.710938 151.15625 135.019531 C 151.894531 135.4375 152.792969 135.558594 153.671875 135.046875 C 153.996094 134.859375 154.332031 134.679688 154.65625 134.5 C 154.746094 134.453125 154.769531 134.445312 154.808594 134.421875 C 154.957031 134.371094 155.113281 134.320312 155.273438 134.273438 C 155.976562 134.046875 156.667969 133.785156 157.375 133.574219 C 158.71875 133.167969 160.101562 132.824219 161.492188 132.582031 C 161.851562 132.523438 162.242188 132.417969 162.601562 132.402344 C 162.753906 132.394531 162.902344 132.386719 162.96875 132.378906 C 163.625 132.324219 164.285156 132.296875 164.9375 132.28125 C 166.644531 132.234375 168.625 132.738281 170.261719 132.144531 C 170.757812 131.964844 171.195312 131.710938 171.585938 131.410156 C 171.570312 131.296875 171.539062 131.191406 171.539062 131.070312 C 169.558594 129.101562 167.453125 127.070312 165.1875 125.492188 Z M 193.832031 123.402344 C 190.453125 123.914062 187.257812 125.289062 184.308594 126.964844 C 183.390625 127.492188 182.511719 128.070312 181.65625 128.671875 C 181.761719 130.144531 183.03125 131.574219 184.730469 130.980469 C 185.601562 130.679688 186.523438 130.761719 187.492188 130.597656 C 188.347656 130.445312 189.175781 130.28125 189.722656 130.226562 C 191.628906 130.054688 193.523438 129.90625 195.445312 129.972656 C 195.910156 129.988281 196.378906 130.019531 196.835938 130.054688 C 197.097656 130.078125 197.367188 130.109375 197.632812 130.128906 C 198.074219 130.183594 198.15625 130.191406 197.886719 130.160156 C 197.617188 130.128906 197.699219 130.144531 198.136719 130.207031 C 198.398438 130.25 198.652344 130.296875 198.914062 130.347656 C 199.367188 130.4375 199.816406 130.535156 200.269531 130.648438 C 202.144531 131.117188 203.878906 131.964844 205.734375 132.460938 C 207.695312 132.988281 209.722656 132.03125 210.632812 130.273438 C 210.566406 130.160156 210.511719 130.03125 210.4375 129.921875 C 206.996094 124.5 199.9375 122.476562 193.832031 123.402344 Z M 193.832031 123.402344 "/><path style=" stroke:none;fill-rule:nonzero;fill:#f794c6;fill-opacity:1;" d="M 161.136719 345.289062 C 160.710938 345.09375 160.265625 344.898438 159.839844 344.703125 C 157.382812 343.558594 154.957031 342.371094 152.53125 341.167969 C 150.195312 340.011719 147.972656 338.484375 147.214844 335.824219 C 146.460938 333.191406 147.558594 330.242188 148.316406 327.71875 C 150.253906 332.523438 153.070312 337.003906 156.503906 340.875 C 157.953125 342.492188 159.515625 343.933594 161.136719 345.289062 Z M 243.679688 327.460938 C 244.96875 325.738281 246.121094 323.941406 247.164062 322.085938 C 248.597656 324.027344 249.972656 326.011719 251.25 328.070312 C 253.441406 331.613281 257.347656 336.753906 256.640625 341.125 C 255.859375 345.957031 250.707031 346.347656 246.832031 347.09375 C 241.832031 348.046875 236.835938 349.003906 231.835938 349.957031 C 218.382812 352.53125 203.105469 356.160156 189.226562 353.46875 C 188.625 353.433594 188.027344 353.347656 187.425781 353.289062 C 187.664062 352.125 187.214844 350.816406 185.863281 350.628906 C 168.152344 348.175781 154.808594 331.933594 152.425781 314.703125 C 156.757812 315.296875 161.101562 315.746094 165.390625 316.0625 C 171.015625 316.484375 176.664062 316.621094 182.316406 316.597656 C 183.300781 319.191406 184.707031 321.429688 186.945312 323.242188 C 189.625 325.417969 192.636719 326.679688 196.078125 327.03125 C 202.4375 327.695312 210.574219 323.898438 212.667969 317.507812 C 213.050781 316.347656 212.683594 315.28125 211.96875 314.515625 C 211.96875 314.515625 211.96875 314.515625 211.96875 314.507812 C 223.101562 312.972656 234.09375 310.589844 244.835938 307.402344 C 244.8125 307.515625 244.789062 307.628906 244.769531 307.738281 C 244.355469 309.589844 243.828125 311.410156 243.199219 313.191406 C 241.890625 316.90625 240.089844 320.460938 237.972656 323.777344 C 236.125 326.65625 233.988281 329.3125 231.625 331.726562 C 231.617188 331.710938 231.601562 331.695312 231.59375 331.679688 C 231.121094 332.152344 230.625 332.605469 230.136719 333.0625 C 230.175781 333.070312 230.199219 333.101562 230.234375 333.109375 C 227.425781 335.746094 224.308594 338.046875 220.90625 339.929688 C 218.234375 341.402344 220.582031 345.152344 223.257812 343.949219 C 231.339844 340.304688 238.347656 334.574219 243.679688 327.460938 Z M 243.777344 332.328125 C 243.917969 332.28125 244.070312 332.230469 244.210938 332.191406 C 244.167969 332.125 244.128906 332.046875 244.089844 331.980469 C 243.992188 332.101562 243.890625 332.214844 243.777344 332.328125 Z M 119.101562 148.046875 C 122.789062 145.957031 120.324219 139.988281 116.210938 141.175781 C 110.855469 142.71875 105.546875 144.386719 100.136719 145.671875 C 98.996094 148.761719 98.035156 151.933594 97.328125 155.167969 C 105.003906 154.078125 112.441406 151.828125 119.101562 148.046875 Z M 88.796875 155.921875 C 89.234375 153.03125 89.847656 150.183594 90.644531 147.394531 C 82.421875 148.394531 73.820312 148.460938 65.648438 147.183594 C 61.601562 146.550781 59.746094 152.535156 63.914062 153.476562 C 71.824219 155.25 80.339844 156.207031 88.796875 155.921875 Z M 234.222656 125.09375 C 234.628906 125.777344 235.167969 126.320312 235.84375 126.71875 C 236.222656 126.875 236.605469 127.039062 236.980469 127.199219 C 237.167969 127.28125 237.355469 127.355469 237.550781 127.4375 C 238.082031 127.664062 238.609375 127.949219 239.164062 128.109375 C 239.5625 128.222656 239.976562 128.304688 240.382812 128.394531 C 240.832031 128.5 241.328125 128.597656 241.769531 128.597656 C 242.257812 128.597656 242.730469 128.492188 243.207031 128.386719 C 243.378906 128.347656 243.542969 128.3125 243.714844 128.28125 C 245.097656 127.988281 246.226562 126.722656 246.59375 125.402344 C 246.789062 124.671875 246.789062 123.941406 246.59375 123.214844 C 246.398438 122.515625 246.042969 121.914062 245.535156 121.394531 C 245.414062 121.25 245.285156 121.109375 245.164062 120.972656 C 244.964844 120.738281 244.835938 120.65625 244.550781 120.429688 C 244.242188 120.191406 244.144531 120.09375 243.851562 119.964844 C 243.492188 119.808594 243.128906 119.648438 242.769531 119.484375 C 242.191406 119.226562 241.742188 119.023438 241.171875 118.882812 C 240.96875 118.828125 240.765625 118.785156 240.570312 118.730469 C 240.164062 118.632812 239.765625 118.527344 239.359375 118.429688 C 238.757812 118.242188 238.160156 118.214844 237.550781 118.347656 C 236.949219 118.378906 236.386719 118.550781 235.867188 118.890625 C 235.558594 119.121094 235.257812 119.363281 234.953125 119.597656 C 234.507812 120.011719 234.199219 120.492188 234.011719 121.054688 C 233.808594 121.410156 233.703125 121.792969 233.703125 122.199219 C 233.570312 122.800781 233.597656 123.402344 233.789062 124.011719 C 233.921875 124.371094 234.074219 124.730469 234.222656 125.09375 Z M 321.871094 123.417969 C 319.097656 124.023438 316.320312 124.574219 313.535156 125.101562 C 308.34375 126.070312 303.132812 126.859375 297.890625 127.515625 C 290.84375 128.386719 283.746094 128.882812 276.640625 129.078125 C 276.867188 130.386719 277.0625 131.710938 277.214844 133.039062 C 277.316406 134.023438 277.394531 135.019531 277.445312 136.011719 C 284.65625 136.332031 291.875 136.347656 299.097656 135.925781 C 304.753906 135.605469 310.410156 134.933594 316.011719 134.117188 C 321.074219 133.371094 328.066406 133.152344 332.023438 129.679688 C 332.199219 129.527344 332.300781 129.355469 332.4375 129.183594 C 331.175781 126.808594 329.726562 124.535156 328.042969 122.394531 C 325.972656 122.347656 323.972656 122.949219 321.871094 123.417969 Z M 268.898438 129.152344 C 267.628906 129.144531 266.359375 129.160156 265.089844 129.136719 C 261.164062 129.046875 261.320312 134.769531 265.089844 135.144531 C 266.503906 135.289062 267.921875 135.378906 269.335938 135.492188 C 269.335938 135.273438 269.347656 135.054688 269.347656 134.835938 C 269.304688 132.988281 269.160156 131.070312 268.898438 129.152344 Z M 268.898438 129.152344 "/><path style=" stroke:none;fill-rule:nonzero;fill:#020201;fill-opacity:1;" d="M 234.785156 252.574219 C 225.902344 249.234375 217.601562 254.167969 209.152344 256.417969 C 199.359375 259.027344 189.273438 260.183594 179.328125 262.03125 C 171.390625 263.507812 162.519531 265.03125 160.265625 274.109375 C 158.238281 282.289062 163.023438 290.453125 168.214844 296.429688 C 171.824219 300.589844 177.773438 303.167969 182.882812 304.828125 C 191.082031 307.5 199.816406 307.628906 207.839844 304.605469 C 208.410156 304.941406 209.117188 305.09375 209.933594 304.890625 C 223.054688 301.679688 234.597656 293.128906 240.953125 281.109375 C 242.996094 277.234375 244.761719 272.824219 244.894531 268.386719 C 245.097656 261.710938 241.066406 254.933594 234.785156 252.574219 Z M 239.1875 268.03125 C 239.1875 271.152344 237.925781 274.378906 236.574219 277.136719 C 235.183594 279.964844 233.496094 282.582031 231.558594 284.957031 C 231.324219 285.242188 231.0625 285.492188 230.820312 285.769531 C 225.03125 292.484375 217.203125 297.230469 208.425781 299.378906 C 207.484375 299.613281 206.90625 300.160156 206.613281 300.835938 C 195.402344 303.046875 182.753906 301.664062 173.679688 294.160156 C 169.675781 290.851562 165.832031 284.363281 165.417969 279.175781 C 165.179688 276.160156 166.058594 272.859375 168.535156 270.957031 C 171.464844 268.695312 176.167969 268.371094 179.679688 267.703125 C 187.710938 266.175781 195.828125 265.160156 203.835938 263.507812 C 207.851562 262.679688 211.835938 261.695312 215.730469 260.425781 C 218.039062 259.671875 220.269531 258.71875 222.566406 258.027344 C 222.917969 257.921875 223.273438 257.828125 223.625 257.730469 C 224.886719 257.410156 226.171875 257.175781 227.515625 257.136719 C 230.78125 257.046875 234.425781 257.859375 236.574219 260.535156 C 237.453125 261.632812 238.121094 263.070312 238.5625 264.5 C 238.609375 264.632812 238.632812 264.769531 238.667969 264.90625 C 238.984375 266.039062 239.1875 267.152344 239.1875 268.03125 Z M 124.644531 264.695312 C 123.9375 265.785156 123.316406 266.914062 122.765625 268.09375 C 122.367188 268.957031 121.949219 270.085938 121.566406 271.265625 C 121.183594 272.460938 120.882812 273.679688 120.648438 274.914062 C 120.605469 275.167969 120.558594 275.429688 120.519531 275.6875 C 120.535156 275.621094 120.445312 276.273438 120.4375 276.355469 C 120.339844 277.175781 120.101562 277.90625 119.867188 278.6875 C 119.550781 279.738281 118.628906 280.410156 117.546875 280.453125 C 116.59375 280.5 115.367188 279.679688 115.226562 278.6875 C 115.074219 277.640625 114.941406 276.6875 115.097656 275.632812 C 115.203125 274.957031 115.355469 274.28125 115.519531 273.621094 C 115.851562 272.320312 116.285156 271.054688 116.804688 269.824219 C 117.960938 267.054688 119.582031 264.566406 121.542969 262.304688 C 123.03125 260.605469 125.839844 262.835938 124.644531 264.695312 Z M 135.339844 267.085938 C 136.023438 267.613281 136.351562 268.730469 135.820312 269.5 C 135.558594 269.875 135.324219 270.242188 135.121094 270.65625 C 135.03125 270.851562 134.917969 271.054688 134.84375 271.257812 C 134.804688 271.347656 134.777344 271.4375 134.738281 271.527344 C 134.648438 271.753906 134.558594 271.988281 134.453125 272.214844 C 134.503906 272.085938 134.601562 271.84375 134.5 272.117188 C 134.421875 272.3125 134.347656 272.507812 134.273438 272.703125 C 134.128906 273.101562 134.011719 273.507812 133.90625 273.914062 C 133.6875 274.761719 133.515625 275.628906 133.347656 276.492188 C 133.222656 277.144531 133.109375 277.695312 132.816406 278.3125 C 132.582031 278.800781 132.320312 279.296875 131.890625 279.640625 C 131.3125 280.117188 130.742188 280.371094 129.984375 280.265625 C 129.226562 280.160156 128.773438 279.769531 128.324219 279.183594 C 127.84375 278.558594 127.761719 277.6875 127.703125 276.925781 C 127.648438 276.265625 127.859375 275.582031 128.054688 274.941406 C 128.371094 273.914062 128.804688 272.925781 129.332031 271.980469 C 129.839844 271.046875 130.414062 270.144531 131.074219 269.3125 C 131.636719 268.589844 132.269531 267.925781 132.875 267.234375 C 133.507812 266.527344 134.648438 266.550781 135.339844 267.085938 Z M 272.789062 256.25 C 272.488281 255.972656 272.179688 255.6875 271.875 255.417969 C 271.21875 254.835938 270.558594 254.265625 269.898438 253.6875 C 269.15625 253.039062 268.402344 252.234375 267.53125 251.769531 C 267.179688 251.582031 266.855469 251.355469 266.519531 251.144531 C 266.472656 251.117188 266.292969 251.019531 266.121094 250.929688 C 266.074219 250.890625 266.03125 250.84375 265.984375 250.808594 C 265.894531 250.726562 265.804688 250.640625 265.722656 250.558594 C 264.984375 249.867188 263.710938 249.769531 262.988281 250.558594 C 262.246094 251.371094 262.273438 252.484375 262.988281 253.296875 C 263.054688 253.371094 263.117188 253.4375 263.183594 253.515625 C 263.199219 253.527344 263.4375 253.824219 263.324219 253.664062 C 263.324219 253.648438 263.3125 253.621094 263.28125 253.550781 C 263.214844 253.109375 263.417969 253.875 263.515625 254.054688 C 263.710938 254.402344 263.933594 254.738281 264.113281 255.09375 C 264.582031 255.996094 265.367188 256.785156 266.015625 257.566406 C 266.554688 258.222656 267.097656 258.882812 267.644531 259.535156 C 267.90625 259.851562 268.183594 260.160156 268.457031 260.476562 C 268.890625 260.980469 269.453125 261.339844 270.011719 261.703125 C 271.03125 262.371094 272.667969 262.152344 273.496094 261.25 C 274.351562 260.320312 274.628906 258.882812 273.945312 257.761719 C 273.601562 257.226562 273.261719 256.679688 272.789062 256.25 Z M 266.03125 250.882812 C 266.050781 250.890625 266.050781 250.890625 266.066406 250.890625 C 266.082031 250.898438 266.089844 250.90625 266.105469 250.921875 C 266.074219 250.90625 266.050781 250.890625 266.03125 250.882812 Z M 288.207031 253.671875 C 289.117188 254.632812 289.222656 256.078125 288.410156 257.125 C 287.628906 258.136719 286.144531 258.484375 285.023438 257.800781 C 284.484375 257.476562 283.957031 257.160156 283.5 256.71875 C 283.183594 256.410156 282.867188 256.09375 282.539062 255.792969 C 281.921875 255.226562 281.296875 254.664062 280.675781 254.101562 C 279.9375 253.429688 279.171875 252.769531 278.59375 251.941406 C 278.542969 251.867188 278.476562 251.785156 278.4375 251.703125 C 278.292969 251.535156 278.167969 251.371094 278 251.226562 C 277.695312 250.949219 277.363281 250.679688 277.046875 250.410156 C 276.34375 249.808594 276.371094 248.648438 276.90625 247.972656 C 277.160156 247.640625 277.476562 247.429688 277.867188 247.304688 C 278.265625 247.175781 278.957031 247.226562 279.292969 247.492188 C 279.648438 247.761719 279.992188 248.046875 280.359375 248.296875 C 280.464844 248.371094 280.863281 248.664062 280.976562 248.632812 C 280.976562 248.632812 280.96875 248.632812 280.960938 248.632812 C 281.164062 248.710938 281.359375 248.785156 281.554688 248.875 C 282.304688 249.226562 282.980469 249.753906 283.648438 250.234375 C 284.347656 250.738281 285.046875 251.242188 285.753906 251.738281 C 286.113281 251.996094 286.496094 252.226562 286.855469 252.476562 C 287.382812 252.824219 287.78125 253.222656 288.207031 253.671875 Z M 168.402344 245.0625 C 161.386719 237.835938 154.003906 231.761719 143.535156 230.898438 C 133.339844 230.054688 123.488281 233.921875 116.457031 241.328125 C 115.082031 242.769531 112.070312 243.019531 110.734375 241.328125 C 108.453125 238.4375 106.199219 235.566406 104.117188 232.535156 C 101.632812 228.925781 107.273438 224.679688 110.132812 227.890625 C 111.484375 229.402344 112.769531 230.964844 114.03125 232.535156 C 122.300781 225.679688 133.265625 222.09375 144.015625 223.417969 C 155.054688 224.777344 167.640625 231.460938 172.292969 242.054688 C 173.359375 244.492188 170.496094 247.222656 168.402344 245.0625 Z M 51.628906 161.25 C 59.152344 149.019531 70.035156 140.65625 82.636719 134.183594 C 84.972656 132.988281 83.359375 129.121094 80.84375 129.925781 C 79.296875 130.421875 77.769531 131.019531 76.285156 131.664062 C 87.484375 110.808594 105.972656 93.625 128.167969 85.3125 C 134.21875 83.039062 140.527344 81.355469 146.9375 80.421875 C 154.039062 79.386719 161.617188 80.175781 168.476562 77.808594 C 172 76.597656 175.152344 74.621094 178.523438 73.078125 C 182.160156 71.417969 186.050781 70.28125 189.972656 69.519531 C 197.464844 68.070312 205.390625 68.226562 212.902344 69.515625 C 219.253906 70.605469 225.464844 72.445312 231.472656 74.792969 C 231.984375 75.535156 232.773438 75.777344 233.546875 75.65625 C 234.9375 76.226562 236.324219 76.800781 237.691406 77.417969 C 246.074219 81.25 253.824219 86.339844 262.230469 90.0625 C 266.539062 91.972656 269.582031 86.640625 265.886719 83.800781 C 258.953125 78.476562 250.820312 74.417969 242.898438 70.761719 C 240.613281 69.710938 238.300781 68.722656 235.964844 67.777344 C 237.257812 62.605469 241.457031 58.109375 245.359375 54.769531 C 251.421875 49.605469 258.144531 48.625 265.984375 49.402344 C 283.0625 51.085938 301.320312 59.363281 308.480469 75.949219 C 310.296875 80.152344 311.324219 84.746094 311.371094 89.332031 C 311.410156 92.925781 310.65625 96.152344 309.605469 99.402344 C 306.855469 97.980469 304.0625 96.71875 301.285156 95.640625 C 293.570312 92.648438 285.707031 91.363281 277.507812 92.6875 C 274.683594 93.136719 275.921875 97.320312 278.675781 96.949219 C 286.910156 95.84375 296.019531 99.574219 303.222656 103.167969 C 304.988281 104.046875 306.707031 105.019531 308.410156 106.019531 C 308.480469 106.128906 308.578125 106.222656 308.660156 106.324219 C 308.734375 106.417969 308.792969 106.515625 308.878906 106.597656 C 309.375 107.085938 310.035156 107.410156 310.753906 107.574219 C 310.835938 107.597656 310.921875 107.625 311.011719 107.640625 C 311.160156 107.738281 311.304688 107.84375 311.445312 107.933594 C 316.433594 111.144531 321.121094 114.835938 325.226562 119.117188 C 326.242188 120.167969 327.164062 121.273438 328.042969 122.402344 C 329.726562 124.542969 331.183594 126.816406 332.4375 129.191406 C 334.742188 133.542969 336.417969 138.234375 337.566406 143.167969 C 338.6875 147.957031 339.355469 152.828125 339.746094 157.730469 C 340.121094 162.394531 339.414062 167.964844 340.933594 172.402344 C 341.457031 173.933594 342.90625 174.597656 344.222656 174.378906 C 345.207031 174.222656 346.105469 173.589844 346.484375 172.402344 C 347.707031 168.527344 346.949219 163.738281 346.671875 159.746094 C 346.378906 155.582031 345.910156 151.421875 345.226562 147.304688 C 343.863281 139.109375 341.429688 130.914062 337.132812 123.753906 C 332.199219 115.527344 324.65625 108.589844 316.261719 103.234375 C 319.964844 95.167969 319.347656 84.800781 316.597656 76.710938 C 313.160156 66.597656 306.285156 58.355469 297.386719 52.550781 C 288.457031 46.730469 278 43.65625 267.472656 42.507812 C 261.863281 41.890625 255.859375 41.769531 250.476562 43.738281 C 247.1875 44.941406 244.40625 46.898438 241.734375 49.136719 C 236.714844 53.339844 232.039062 59.289062 230.753906 65.820312 C 227.027344 64.507812 223.234375 63.363281 219.375 62.515625 C 203.640625 59.039062 187.027344 59.785156 172.492188 67.167969 C 168.703125 69.09375 165.269531 70.820312 160.972656 71.332031 C 157.179688 71.785156 153.351562 71.769531 149.558594 72.199219 C 146.636719 72.519531 143.742188 73.003906 140.867188 73.582031 C 140.859375 73.558594 140.859375 73.535156 140.851562 73.507812 C 135.480469 55.054688 113.035156 50.679688 96.546875 53.144531 C 75.535156 56.289062 59.761719 74.347656 57.742188 95.339844 C 56.570312 107.492188 60.59375 119.808594 70.410156 127.371094 C 70.777344 127.648438 71.15625 127.738281 71.53125 127.746094 C 70.457031 130.296875 69.449219 132.890625 68.546875 135.582031 C 68.519531 135.671875 68.539062 135.753906 68.519531 135.84375 C 59.792969 141.460938 52.402344 149.445312 46.867188 157.949219 C 38.664062 170.550781 33.8125 185.816406 35.21875 200.921875 C 35.539062 204.394531 40.375 204.726562 41.023438 201.640625 C 41.074219 201.410156 41.15625 201.199219 41.148438 200.921875 C 40.953125 186.921875 44.28125 173.199219 51.628906 161.25 Z M 132.273438 72.980469 C 132.726562 73.738281 133.152344 74.519531 133.574219 75.3125 C 132.085938 75.738281 130.601562 76.183594 129.136719 76.6875 C 116.074219 81.152344 103.96875 88.273438 93.714844 97.519531 C 87.976562 102.695312 82.871094 108.558594 78.453125 114.898438 C 76.472656 117.738281 74.835938 120.671875 73.363281 123.679688 C 73.339844 123.65625 73.332031 123.621094 73.300781 123.597656 C 58.589844 110.242188 62.253906 85.792969 74.648438 72.242188 C 84.9375 61.003906 101.339844 57.453125 115.894531 61.144531 C 119.664062 62.101562 123.34375 63.625 126.445312 66.019531 C 126.753906 66.25 127.003906 66.527344 127.289062 66.777344 C 129.347656 68.574219 130.921875 70.679688 132.273438 72.980469 Z M 286.472656 222.429688 C 284.769531 225.304688 282.921875 228.046875 281.027344 230.800781 C 279.519531 232.996094 276.695312 233.484375 274.675781 231.621094 C 267.3125 224.835938 256.914062 221.535156 247 223.242188 C 236.609375 225.03125 229.746094 231.402344 223.183594 239.152344 C 221.605469 241.019531 218.226562 239.03125 219.042969 236.738281 C 222.972656 225.824219 234.816406 217.890625 245.917969 215.824219 C 256.753906 213.808594 267.855469 216.542969 276.6875 222.890625 C 277.902344 221.167969 279.152344 219.460938 280.457031 217.785156 C 283.191406 214.265625 288.621094 218.808594 286.472656 222.429688 Z M 217.871094 169.792969 C 218.632812 168.460938 219.488281 167.167969 220.5625 165.957031 C 223.476562 162.679688 227.3125 160.109375 231.488281 158.761719 C 236.003906 157.3125 240.976562 157.289062 245.570312 158.402344 C 247.726562 158.925781 249.851562 159.769531 251.820312 160.800781 C 253.921875 161.90625 256.566406 163.484375 257.589844 165.722656 C 258.8125 168.410156 256.738281 172.527344 253.328125 171.273438 C 251.398438 170.558594 249.957031 169.152344 248.207031 168.109375 C 246.707031 167.214844 245.144531 166.550781 243.453125 166.101562 C 240.292969 165.242188 236.949219 165.191406 233.789062 166.078125 C 230.496094 166.996094 227.351562 168.914062 224.796875 171.425781 C 222.574219 173.613281 220.808594 176.242188 219.871094 179.117188 C 218.839844 182.242188 214.371094 180.957031 214.980469 177.769531 C 215.527344 174.867188 216.484375 172.234375 217.871094 169.792969 Z M 342.210938 200.011719 C 333.796875 193.183594 324.515625 188.46875 314.234375 185.386719 C 313.457031 185.152344 312.691406 184.914062 311.902344 184.695312 C 308.921875 183.890625 307.726562 188.355469 310.636719 189.296875 C 320.855469 192.605469 330.449219 198.273438 338.625 205.484375 C 341.089844 207.65625 343.433594 209.964844 345.617188 212.402344 C 348.675781 215.808594 351.445312 219.4375 353.859375 223.25 C 364.402344 239.890625 367.949219 260.234375 364.019531 279.527344 C 362.789062 285.582031 360.820312 291.425781 358.3125 297.03125 C 353.332031 265.347656 332.4375 234.679688 301.359375 224.207031 C 301.125 224.128906 300.910156 224.085938 300.699219 224.070312 C 299.910156 210.046875 301.082031 196.167969 305.859375 182.582031 C 306.234375 181.507812 305.828125 180.671875 305.128906 180.199219 C 303.972656 179.417969 302.011719 179.613281 301.375 181.339844 C 294.71875 199.394531 291.460938 219.828125 295.660156 238.84375 C 295.425781 239.460938 295.359375 240.144531 295.433594 240.867188 C 295.449219 240.996094 295.425781 241.109375 295.449219 241.234375 C 295.929688 243.695312 298.085938 245.347656 299.324219 247.417969 C 300.195312 248.882812 300.691406 249.957031 301.140625 251.347656 C 301.203125 251.527344 301.253906 251.71875 301.308594 251.90625 C 301.351562 252.0625 301.398438 252.191406 301.441406 252.355469 C 301.898438 254.03125 302.109375 255.761719 302.125 257.515625 C 302.140625 259.527344 301.886719 261.566406 301.3125 263.550781 C 300.195312 267.476562 297.980469 271.214844 295.171875 274.304688 C 293.546875 276.09375 291.746094 277.703125 289.792969 279.117188 C 289.476562 279.339844 289.164062 279.558594 288.855469 279.785156 C 265.746094 292.558594 240.839844 301.753906 214.769531 306.214844 C 213.195312 306.484375 211.601562 306.710938 210.007812 306.941406 C 209.664062 306.996094 209.316406 307.054688 208.972656 307.101562 C 189.894531 309.882812 169.902344 310.425781 150.683594 307.613281 C 149.933594 307.117188 149 306.988281 148.113281 307.222656 C 144.269531 306.597656 140.460938 305.808594 136.691406 304.90625 C 135.925781 304.71875 135.144531 304.566406 134.378906 304.371094 C 134.191406 304.328125 134.003906 304.257812 133.816406 304.214844 C 123.082031 301.378906 112.515625 296.800781 103.992188 289.628906 C 102.007812 287.957031 100.109375 286.199219 98.371094 284.242188 C 98.183594 284.03125 97.988281 283.921875 97.785156 283.800781 C 97.882812 283.605469 97.9375 283.386719 97.976562 283.167969 C 98.050781 282.710938 98.003906 282.214844 97.726562 281.695312 C 95.292969 277.085938 94.453125 271.621094 95.226562 266.417969 C 95.234375 266.386719 95.234375 266.355469 95.242188 266.332031 C 95.714844 263.214844 96.773438 260.191406 98.425781 257.515625 C 100.4375 258.289062 102.828125 256.898438 103.105469 254.347656 C 103.359375 251.964844 102.480469 249.589844 101.804688 247.332031 C 101.128906 245.070312 100.40625 242.824219 99.640625 240.597656 C 98.199219 236.402344 96.5625 232.28125 94.78125 228.214844 C 91.125 219.84375 86.820312 211.761719 81.59375 204.265625 C 81.5625 204.226562 81.527344 204.214844 81.496094 204.175781 C 79.671875 201.792969 75.921875 203.957031 77.367188 206.738281 C 81.4375 214.605469 85.3125 222.597656 88.4375 230.890625 C 89.292969 233.160156 90.105469 235.460938 90.878906 237.769531 C 90.816406 237.816406 90.757812 237.828125 90.703125 237.890625 C 69.238281 259.265625 57.050781 292.941406 59.6875 323.175781 C 59.902344 325.632812 60.273438 328.484375 61 331.230469 C 60.925781 331.230469 60.851562 331.214844 60.765625 331.222656 C 51.078125 331.867188 45.957031 322.933594 43.53125 314.851562 C 40.835938 305.867188 39.394531 296.507812 39.007812 287.144531 C 38.257812 268.460938 41.554688 249.046875 49.78125 232.152344 C 50.148438 231.402344 50.546875 230.648438 50.9375 229.898438 C 52.160156 227.558594 53.503906 225.25 55.015625 223.054688 C 58.492188 218.003906 62.796875 213.550781 68.300781 210.816406 C 70.253906 209.84375 69.621094 207.621094 68.144531 206.777344 C 67.503906 206.417969 66.714844 206.28125 65.882812 206.664062 C 47.269531 215.128906 39.007812 236.703125 34.730469 255.394531 C 29.960938 276.191406 29.914062 299.632812 36.996094 319.957031 C 40.699219 330.589844 49.328125 340.875 61.730469 338.355469 C 62.511719 338.199219 63.097656 337.816406 63.515625 337.304688 C 65.160156 339.890625 67.488281 341.851562 70.847656 342.433594 C 74.03125 342.980469 76.433594 338.628906 73.191406 336.867188 C 66.484375 333.234375 66.714844 322.535156 66.648438 315.90625 C 66.558594 307.484375 67.632812 299.101562 69.570312 290.914062 C 73.671875 273.574219 81.429688 257.167969 92.648438 243.3125 C 92.664062 243.355469 92.679688 243.402344 92.695312 243.445312 C 93.289062 245.425781 93.851562 247.410156 94.378906 249.402344 C 94.835938 251.136719 95.164062 252.964844 95.886719 254.621094 C 89.441406 262.964844 88.203125 274.84375 93.589844 284.136719 C 93.875 284.628906 94.25 284.898438 94.648438 285.078125 C 94.316406 285.859375 94.332031 286.808594 95.015625 287.628906 C 107.8125 302.972656 126.304688 310.160156 145.464844 313.632812 C 145.457031 318.484375 146.507812 323.25 148.308594 327.738281 C 150.246094 332.542969 153.0625 337.027344 156.496094 340.898438 C 157.9375 342.523438 159.5 343.964844 161.125 345.320312 C 167.933594 350.988281 176.226562 354.3125 185.230469 355.167969 C 186.433594 355.28125 187.191406 354.355469 187.402344 353.3125 C 187.644531 352.144531 187.191406 350.835938 185.839844 350.648438 C 168.128906 348.199219 154.785156 331.957031 152.402344 314.726562 C 156.738281 315.320312 161.078125 315.769531 165.367188 316.085938 C 170.992188 316.507812 176.640625 316.640625 182.296875 316.621094 C 183.277344 319.214844 184.683594 321.453125 186.921875 323.265625 C 189.601562 325.4375 192.613281 326.703125 196.054688 327.054688 C 202.414062 327.71875 210.550781 323.921875 212.644531 317.53125 C 213.027344 316.371094 212.660156 315.304688 211.945312 314.535156 C 223.078125 313.003906 234.074219 310.621094 244.8125 307.429688 C 244.789062 307.542969 244.769531 307.65625 244.746094 307.769531 C 244.332031 309.621094 243.804688 311.4375 243.175781 313.222656 C 241.867188 316.933594 240.066406 320.492188 237.949219 323.808594 C 236.101562 326.6875 233.96875 329.339844 231.601562 331.753906 C 231.144531 332.222656 230.683594 332.695312 230.203125 333.136719 C 227.394531 335.777344 224.277344 338.078125 220.875 339.957031 C 218.203125 341.433594 220.554688 345.183594 223.226562 343.980469 C 231.339844 340.3125 238.339844 334.582031 243.671875 327.476562 C 244.964844 325.753906 246.113281 323.957031 247.15625 322.101562 C 248.296875 320.054688 249.3125 317.933594 250.191406 315.738281 C 251.414062 312.6875 253.140625 308.492188 253.023438 304.867188 C 267.996094 299.777344 282.386719 293.152344 295.792969 284.730469 C 296.605469 284.222656 297.109375 283.566406 297.371094 282.851562 C 298.785156 281.753906 300.148438 280.605469 301.390625 279.328125 C 305.21875 275.402344 308.113281 270.628906 309.621094 265.339844 C 311.03125 260.394531 311.144531 255.046875 309.816406 250.070312 C 309.164062 247.621094 308.140625 245.214844 306.855469 243.03125 C 305.691406 241.0625 304.078125 238.53125 301.96875 237.222656 C 301.644531 234.761719 301.367188 232.304688 301.140625 229.851562 C 330.703125 240.730469 351.167969 272.460938 354.277344 303.0625 C 354.324219 303.535156 354.503906 303.914062 354.738281 304.234375 C 353.476562 306.515625 352.136719 308.753906 350.710938 310.941406 C 348.773438 313.898438 353.382812 317.582031 355.675781 314.777344 C 369.585938 297.753906 374.960938 274.605469 372.09375 252.964844 C 369.351562 232.214844 358.417969 213.152344 342.210938 200.011719 Z M 206.410156 315.230469 C 205.871094 315.882812 205.335938 316.542969 204.738281 317.136719 C 203.828125 318.039062 203.421875 318.328125 202.296875 318.972656 C 200.425781 320.046875 198.527344 320.53125 196.257812 320.410156 C 195.417969 320.363281 194.5 320.136719 193.367188 319.769531 C 192.417969 319.460938 191.628906 319.078125 190.648438 318.445312 C 189.875 317.941406 189.085938 317.28125 188.363281 316.542969 C 194.386719 316.347656 200.410156 315.90625 206.410156 315.230469 Z M 361.804688 64.632812 C 358.640625 66.851562 355.519531 69.109375 352.378906 71.355469 C 354.015625 74.613281 355.34375 78.003906 356.1875 81.527344 C 357.042969 85.121094 351.816406 87.613281 350.058594 84.117188 C 348.675781 81.378906 347.355469 78.625 345.996094 75.90625 C 344.90625 76.6875 343.808594 77.460938 342.710938 78.242188 C 341.382812 79.199219 339.355469 78.46875 338.589844 77.160156 C 337.742188 75.710938 338.304688 73.921875 339.671875 73.03125 C 340.878906 72.25 342.089844 71.476562 343.296875 70.695312 C 341.53125 67.417969 339.632812 64.214844 337.417969 61.160156 C 336.042969 59.273438 334.5625 57.453125 333.046875 55.679688 C 333.023438 55.71875 332.992188 55.738281 332.972656 55.777344 C 331.703125 57.558594 330.710938 59.730469 329.179688 61.289062 C 327.261719 63.234375 323.671875 61.257812 324.523438 58.574219 C 325.257812 56.226562 327.136719 54.128906 328.636719 52.226562 C 328.847656 51.957031 329.101562 51.722656 329.3125 51.460938 C 329.285156 51.421875 329.253906 51.394531 329.222656 51.355469 C 327.730469 49.722656 326.167969 48.144531 324.550781 46.632812 C 322.9375 45.121094 321.113281 43.867188 319.511719 42.347656 C 317.535156 40.484375 320.0625 37.589844 322.292969 38.738281 C 326.273438 40.792969 330.019531 44.023438 333.429688 46.925781 C 334.878906 45.527344 336.425781 44.234375 338.019531 43.003906 C 339.796875 41.625 341.546875 40.242188 343.425781 38.996094 C 344.460938 38.304688 345.964844 38.792969 346.566406 39.820312 C 347.226562 40.949219 346.761719 42.265625 345.738281 42.964844 C 342.5625 45.152344 339.851562 47.710938 337.265625 50.535156 C 339.257812 52.558594 341.136719 54.695312 342.890625 56.925781 C 345.296875 59.972656 347.625 63.199219 349.695312 66.566406 C 352.902344 64.5 356.105469 62.417969 359.296875 60.3125 C 360.421875 59.566406 362.050781 60.09375 362.699219 61.207031 C 363.417969 62.453125 362.90625 63.859375 361.804688 64.632812 Z M 88.796875 155.921875 C 89.234375 153.03125 89.847656 150.183594 90.644531 147.394531 C 90.832031 146.746094 91.011719 146.09375 91.214844 145.453125 C 96.03125 130.257812 106.453125 113.867188 121.488281 107.183594 C 124.914062 105.664062 129.210938 109.988281 125.847656 112.828125 C 115.015625 121.964844 105.46875 131.558594 100.339844 145.085938 C 100.265625 145.28125 100.210938 145.476562 100.144531 145.671875 C 99.003906 148.761719 98.042969 151.933594 97.335938 155.167969 C 96.609375 158.484375 96.121094 161.84375 95.9375 165.214844 C 95.742188 168.769531 95.796875 172.289062 96.089844 175.828125 C 96.367188 179.222656 96.621094 182.859375 99.730469 184.816406 C 102.152344 186.332031 100.527344 189.828125 97.847656 189.289062 C 89.960938 187.695312 88.78125 176.222656 88.269531 169.835938 C 87.878906 165.226562 88.105469 160.535156 88.796875 155.921875 Z M 277.214844 133.03125 C 277.316406 134.019531 277.394531 135.011719 277.445312 136.003906 C 277.664062 139.664062 277.566406 143.332031 277.273438 146.988281 C 276.898438 151.605469 276.558594 156.417969 275.082031 160.824219 C 273.660156 165.039062 267.066406 164.453125 267.140625 159.746094 C 267.210938 155.453125 268.214844 151.25 268.695312 146.988281 C 269.132812 143.175781 269.378906 139.324219 269.328125 135.492188 C 269.328125 135.273438 269.34375 135.054688 269.34375 134.835938 C 269.296875 132.988281 269.152344 131.078125 268.890625 129.152344 C 268.09375 123.332031 266.179688 117.421875 262.507812 113.023438 C 260.34375 110.429688 263.738281 106.882812 266.261719 109.265625 C 269.515625 112.339844 272.257812 115.738281 274.027344 119.875 C 275.296875 122.835938 276.101562 125.921875 276.640625 129.0625 C 276.867188 130.378906 277.0625 131.703125 277.214844 133.03125 Z M 154.234375 176.730469 C 151.464844 174.632812 148.191406 173.257812 144.914062 173.222656 C 141.941406 173.191406 139.15625 174.152344 136.570312 175.859375 C 135.363281 176.65625 134.191406 177.738281 133.214844 178.964844 C 132.296875 180.125 131.441406 181.898438 130.433594 183.207031 C 129.40625 184.535156 127.117188 184.597656 125.769531 183.808594 C 124.195312 182.882812 123.722656 181.167969 124.007812 179.460938 C 124.390625 177.136719 126.191406 174.828125 127.6875 173.09375 C 129.066406 171.476562 130.75 170.09375 132.523438 168.925781 C 136.179688 166.527344 140.785156 165.222656 145.164062 165.425781 C 146.761719 165.5 148.332031 165.761719 149.851562 166.183594 C 144.210938 155.664062 141.128906 142.816406 144.726562 131.484375 C 146.800781 124.964844 151.570312 117.160156 159.117188 116.640625 C 165.652344 116.199219 170.796875 120.988281 174.109375 126.234375 C 175.777344 124.296875 177.871094 122.695312 179.988281 121.191406 C 183.179688 118.921875 186.875 117.191406 190.675781 116.242188 C 197.113281 114.632812 204.359375 115.128906 210.195312 118.4375 C 215.914062 121.671875 219.832031 127.527344 221.207031 133.898438 C 222.6875 140.746094 221.808594 147.84375 219.210938 154.320312 C 217.8125 157.792969 216.128906 161.117188 214.191406 164.320312 C 213.382812 165.664062 212.539062 167.019531 211.640625 168.332031 C 210.316406 170.25 208.84375 172.046875 206.929688 173.394531 C 204.128906 175.355469 200.742188 172.109375 201.453125 169.183594 C 202.429688 165.199219 205.414062 161.835938 207.464844 158.347656 C 209.414062 155.023438 211.113281 151.589844 212.179688 147.875 C 212.796875 145.730469 213.171875 143.46875 213.238281 141.214844 C 213.253906 140.730469 213.238281 140.25 213.222656 139.769531 C 213.132812 136.445312 212.335938 133.175781 210.609375 130.296875 C 210.542969 130.183594 210.488281 130.054688 210.414062 129.941406 C 206.976562 124.507812 199.914062 122.476562 193.808594 123.410156 C 190.429688 123.921875 187.238281 125.296875 184.285156 126.972656 C 183.371094 127.5 182.492188 128.078125 181.632812 128.679688 C 179.417969 130.234375 177.316406 131.914062 174.867188 133.0625 C 173.230469 133.828125 171.78125 132.84375 171.554688 131.410156 C 171.539062 131.296875 171.511719 131.191406 171.511719 131.070312 C 169.535156 129.109375 167.433594 127.070312 165.164062 125.5 C 163.164062 124.117188 160.746094 122.761719 158.308594 123.792969 C 154.386719 125.4375 152.125 130.71875 151.132812 135.023438 C 150.960938 135.769531 150.820312 136.492188 150.722656 137.152344 C 149.0625 148.339844 154.222656 159.621094 159.6875 169.03125 C 160.417969 170.28125 160.320312 171.453125 159.777344 172.363281 C 161.910156 174.785156 163.4375 177.746094 164.066406 181.101562 C 164.546875 183.664062 161.019531 185.507812 159.652344 182.964844 C 158.398438 180.582031 156.480469 178.425781 154.234375 176.730469 Z M 21.398438 128.914062 C 20.164062 133.109375 19.480469 137.296875 19.089844 141.5 C 22.871094 142.355469 26.722656 142.84375 30.554688 143.410156 C 32.347656 143.671875 33.566406 145.25 33.566406 147.003906 C 33.566406 148.65625 32.207031 150.429688 30.449219 150.507812 C 26.40625 150.679688 22.5 150.101562 18.640625 149.128906 C 18.511719 153.3125 18.527344 157.523438 18.453125 161.792969 C 18.378906 165.933594 12.121094 165.363281 11.511719 161.6875 C 10.710938 156.851562 10.597656 151.753906 10.980469 146.65625 C 10.152344 146.324219 9.328125 145.988281 8.515625 145.621094 C 7.285156 145.054688 6.0625 144.347656 4.957031 143.558594 C 4.019531 142.882812 3.296875 141.988281 2.328125 141.347656 C -0.03125 139.792969 2.34375 136.039062 4.8125 137.175781 C 5.113281 137.3125 5.414062 137.445312 5.714844 137.582031 C 7.765625 137.738281 9.847656 138.605469 11.730469 139.304688 C 11.777344 139.320312 11.820312 139.332031 11.867188 139.347656 C 12.671875 134.671875 13.878906 130.101562 15.410156 125.84375 C 16.566406 122.625 18.003906 119.582031 19.632812 116.65625 C 15.980469 114.453125 12.511719 111.941406 9.34375 109.09375 C 7.074219 107.054688 9.859375 103.410156 12.289062 105.339844 C 15.5 107.890625 18.941406 110.046875 22.578125 111.875 C 26.375 106.226562 30.988281 101.128906 36.199219 96.558594 C 38.542969 94.507812 41.351562 98.332031 39.101562 100.386719 C 34.675781 104.429688 30.90625 109.117188 27.839844 114.234375 C 30.539062 115.28125 33.265625 116.199219 36.082031 116.84375 C 39.085938 117.542969 42.113281 117.898438 45.054688 118.835938 C 48.03125 119.777344 47.195312 124.695312 44.175781 124.851562 C 40.660156 125.039062 37.363281 124.121094 34.023438 123.117188 C 31.035156 122.214844 28.089844 121.121094 25.273438 119.761719 C 25.167969 119.710938 25.070312 119.65625 24.972656 119.605469 C 23.554688 122.613281 22.335938 125.710938 21.398438 128.914062 Z M 21.398438 128.914062 "/></g></svg>